<?xml version="1.0" standalone="no"?>
<!DOCTYPE svg PUBLIC "-//W3C//DTD SVG 20010904//EN"
 "http://www.w3.org/TR/2001/REC-SVG-20010904/DTD/svg10.dtd">
<svg version="1.0" xmlns="http://www.w3.org/2000/svg"
 width="512.000000pt" height="512.000000pt" viewBox="0 0 512.000000 512.000000"
 preserveAspectRatio="xMidYMid meet">
<metadata>
Created by potrace 1.14, written by Peter Selinger 2001-2017
</metadata>
<g transform="translate(0.000000,512.000000) scale(0.100000,-0.100000)"
fill="#000000" stroke="none">
<path d="M1610 4693 c-503 -23 -864 -229 -1044 -598 -44 -90 -77 -179 -92
-245 -4 -19 -8 -37 -9 -40 -9 -32 -24 -126 -31 -195 -9 -76 -9 -2029 0 -2110
36 -357 162 -616 396 -816 147 -125 361 -211 625 -250 84 -12 2093 -18 2165
-6 19 3 58 9 85 12 28 4 68 11 90 16 22 5 51 12 65 15 49 10 146 46 225 84
351 169 563 506 601 955 7 75 10 1873 4 2036 -6 149 -38 305 -95 454 -150 393
-507 639 -985 681 -76 6 -1866 12 -2000 7z m500 -1341 c57 -22 108 -111 96
-167 -11 -53 -42 -89 -300 -348 l-277 -277 276 -278 c152 -152 283 -291 290
-309 23 -55 6 -136 -39 -178 -42 -39 -118 -50 -172 -25 -25 11 -142 122 -330
311 -336 338 -339 343 -338 479 0 139 3 142 337 478 168 169 307 300 329 311
39 19 83 20 128 3z m1033 -3 c31 -16 573 -555 606 -604 44 -62 64 -137 58
-209 -10 -118 -22 -135 -340 -454 -161 -162 -305 -300 -321 -309 -96 -51 -212
7 -231 115 -13 76 1 95 291 384 151 150 274 278 274 285 0 6 -118 130 -262
275 -145 145 -271 275 -280 290 -55 85 -13 198 87 232 41 14 84 12 118 -5z"/>
</g>
</svg>
