<svg xmlns="http://www.w3.org/2000/svg" xmlns:xlink="http://www.w3.org/1999/xlink" viewBox="0 0 500 500" xmlns:v="https://vecta.io/nano"><style><![CDATA[.B{fill:#61da90}.C{fill:#fff}.D{fill:#455a64}.E{fill:#ebebeb}.F{fill:#e0e0e0}.G{fill:#37474f}.H{fill:#263238}.I{opacity:.8}.J{fill:#ffa8a7}.K{opacity:.1}.L{opacity:.5}.M{opacity:.05}.N{fill:#f28f8f}.O{fill:#fafafa}.P{fill:#f5f5f5}]]></style><ellipse cx="250.53" cy="343.52" rx="222.47" ry="128.44" class="P"/><g fill="#e6e6e6"><path d="M42.22 378.67l126.5 73.07a4.38 4.38 0 0 0 3.93 0l211-121.81a1.19 1.19 0 0 0 0-2.26l-126.5-73.08a4.41 4.41 0 0 0-3.94 0L42.22 376.4a1.2 1.2 0 0 0 0 2.27z"/><ellipse cx="361.64" cy="368.15" rx="60.66" ry="35.02"/></g><path d="M63.16 189.54l4.33 2.5 108.38-62.57-4.34-2.5-108.37 62.57z" class="P"/><path d="M121.68 69.87v88.39l4.34-2.51V67.37l-4.34 2.5z" class="E"/><path d="M119.51 68.61l2.17 1.26v88.39l-2.17-1.26V68.61z" class="F"/><path d="M121.68 69.87l4.34-2.5-2.17-1.26-4.34 2.5 2.17 1.26z" class="O"/><path d="M180.2,33.57l-117,67.58v98.4L180.2,132Zm-4.33,95.9L67.49,192V103.65L175.87,41.08Z" class="E"/><path d="M175.87 129.47l-4.34-2.5V43.58l4.34-2.5v88.39z" class="F"/><path d="M180.2 33.57l-4.33-2.5L58.82 98.65l4.34 2.5L180.2 33.57z" class="P"/><path d="M58.82 98.65l4.34 2.5v98.4l-4.34-2.5v-98.4z" class="F"/><path d="M121.68 72.37l4.32-2.5v2.5l-4.32 2.5v-2.5z" class="K"/><path d="M121.68 74.87l-2.17-1.25 2.17-1.25v2.5z" class="K"/><path d="M167.16 325v108.29a2.37 2.37 0 0 0 1.08 1.87l2.29 1.33a2.41 2.41 0 0 0 2.16 0l2.3-1.33a2.39 2.39 0 0 0 1.08-1.87V325c0-.69-.49-1-1.08-.63l-2.3 1.33a2.41 2.41 0 0 1-2.16 0l-2.29-1.33c-.6-.37-1.08-.09-1.08.63z" class="G"/><path d="M172.69 436.49l2.3-1.33a2.39 2.39 0 0 0 1.08-1.87V325c0-.69-.49-1-1.08-.63l-2.3 1.33a2.39 2.39 0 0 0-1.08 1.87v108.3c0 .68.49.96 1.08.62z" class="D"/><path d="M69.23 268.39v108.33a2.37 2.37 0 0 0 1.08 1.87l2.3 1.33a2.41 2.41 0 0 0 2.16 0l2.29-1.33a2.37 2.37 0 0 0 1.08-1.87V268.39c0-.68-.48-1-1.08-.62l-2.29 1.33a2.41 2.41 0 0 1-2.16 0l-2.3-1.33c-.6-.34-1.08-.06-1.08.62z" class="G"/><path d="M74.77 379.92l2.29-1.33a2.37 2.37 0 0 0 1.08-1.87V268.39c0-.68-.48-1-1.08-.62l-2.29 1.33a2.37 2.37 0 0 0-1.08 1.9v108.29c0 .71.48.97 1.08.63z" class="D"/><path d="M345.88 222.41v108.33a2.37 2.37 0 0 0 1.08 1.87l2.29 1.33a2.38 2.38 0 0 0 2.16 0l2.3-1.32a2.37 2.37 0 0 0 1.08-1.87V222.41c0-.69-.48-1-1.08-.62l-2.3 1.32a2.35 2.35 0 0 1-2.16 0l-2.25-1.32c-.64-.35-1.12-.07-1.12.62z" class="G"/><path d="M351.41 333.93l2.3-1.32a2.37 2.37 0 0 0 1.08-1.87V222.41c0-.69-.48-1-1.08-.62l-2.3 1.32a2.41 2.41 0 0 0-1.08 1.87v108.33c0 .69.49.97 1.08.62z" class="D"/><use xlink:href="#B" class="B"/><g opacity=".7" class="C"><use xlink:href="#B"/></g><use xlink:href="#C" class="B"/><g opacity=".6" class="C"><use xlink:href="#C"/></g><use xlink:href="#D" class="B"/><g class="I C"><use xlink:href="#D"/></g><path d="M198.37 245.46l23.24 13.46a2.86 2.86 0 0 0 2.61 0l68.67-39.59a.8.8 0 0 0 0-1.51l-23.24-13.45a2.89 2.89 0 0 0-2.61 0L198.37 244a.79.79 0 0 0 0 1.46z" class="M"/><path d="M291.48,215.44a.91.91,0,0,0-.54-.75L269.1,202.08a2.9,2.9,0,0,0-2.6,0l-66.63,38.53a.92.92,0,0,0-.54.76v2.29a.92.92,0,0,0,.54.75L221.69,257a2.86,2.86,0,0,0,2.61,0l66.64-38.47a.92.92,0,0,0,.54-.75Z" class="E"/><path d="M221.69 254.66l-21.82-12.54a.8.8 0 0 1 0-1.51l66.63-38.53a2.9 2.9 0 0 1 2.6 0l21.84 12.61c.72.41.72 1.08 0 1.5l-66.64 38.47a2.86 2.86 0 0 1-2.61 0z" class="C"/><path d="M222.91 255v2.35a2.57 2.57 0 0 1-1.22-.31l-21.82-12.6a.92.92 0 0 1-.54-.75v-2.3a.92.92 0 0 0 .54.75l21.82 12.56a2.68 2.68 0 0 0 1.22.3z" class="F"/><use xlink:href="#E" class="B"/><use xlink:href="#E" class="L"/><path d="M157.25 234.1l-12.1-7c-2.25-1.3-2.25-3.41 0-4.71l93.14-53.78a9 9 0 0 1 8.17 0l12.09 7c2.26 1.3 2.26 3.41 0 4.71l-93.14 53.78a9 9 0 0 1-8.16 0z" class="M"/><path d="M222.49 219.55l14.51-8.37a3.79 3.79 0 0 0 2.23-3.11v-2l-17.41-9.86a3.19 3.19 0 0 1-1.44-2.49v-17.85l-25.26 14.59v17.84a3.18 3.18 0 0 0 1.44 2.49l15.16 8.76a12 12 0 0 0 10.77 0z" fill="#e6e6e6"/><path d="M201.16 211.45v2l-4.63-2.67a3.19 3.19 0 0 1-1.44-2.49v-17.83l4.81-2.77.31 3.71-3.38 2v13.93a3.15 3.15 0 0 0 1.44 2.49z" class="F"/><path d="M196.83,207.29a3.21,3.21,0,0,0,1.44,2.5l13.42,7.75a12,12,0,0,0,10.8,0L237,209.17c3-1.72,3-4.51,0-6.23l-13.42-7.75a3.18,3.18,0,0,1-1.44-2.5V178.76l-25.27,14.6Z" class="P"/><path d="M226.47 196.88h0l-2.93-1.69a3.18 3.18 0 0 1-1.44-2.5v-13.93l-25.27 14.6v13.93a3.21 3.21 0 0 0 1.44 2.5l2.88 1.66zm12.73 9.18v2a3.79 3.79 0 0 1-2.24 3.11l-14.46 8.36a10.83 10.83 0 0 1-5.16 1.28v-2a11 11 0 0 0 5.16-1.28l14.5-8.36a3.78 3.78 0 0 0 2.2-3.11z" class="E"/><path d="M156.27 226.53a3.87 3.87 0 0 0 3.49-.06l97.7-56.41a4 4 0 0 0 1.8-3.12V81.42a3.39 3.39 0 0 0-5.18-3l-97.7 56.41a4 4 0 0 0-1.8 3.12v85.52a3.86 3.86 0 0 0 1.69 3.06z" class="D"/><use xlink:href="#F" class="B"/><use xlink:href="#F" class="G"/><path d="M159.49 226.6a3.37 3.37 0 0 1-4.91-3.12v-9.62l3.37 1.95v9.62c.05 1.05.67 1.57 1.54 1.17z" class="F"/><path d="M158,215.81v9.62c0,1.14.8,1.61,1.8,1l97.7-56.4a4,4,0,0,0,1.8-3.12v-9.62Z" class="C"/><use xlink:href="#G" class="B"/><g class="C"><use xlink:href="#G" class="L"/><path d="M166.8 140.47L249.06 93c.59-.34 1.08-.06 1.08.63v59.89a2.39 2.39 0 0 1-1.08 1.87l-82.26 47.46c-.6.35-1.08.07-1.08-.62v-59.89a2.37 2.37 0 0 1 1.08-1.87z"/></g><g class="B"><path d="M222.05 144.65L220 144c1.62-9.59-1.64-12.26-6.68-12 2.12.95 3.77 5.82 2.76 10.76l-2-.66c-.4-.13-.93.62-.86 1.22l1 8.92c.05.41.36.51.68.22l7-6.33c.44-.46.55-1.35.15-1.48z"/><path d="M215.19 137.88c-.38-2.87-1.56-5.14-2.94-5.76 0 0-5.19 1.14-9.26 9.2.01 0 6.4-6.86 12.2-3.44z" class="I"/><path d="M195.69 154.94l2.05.67c-1.62 9.59 1.64 12.25 6.68 12-2.12-.95-3.77-5.81-2.77-10.75l2 .66c.4.13.93-.62.86-1.22l-1-8.92c-.05-.41-.37-.51-.69-.22l-7 6.32c-.42.45-.53 1.33-.13 1.46z"/><path d="M202.55 161.71c.38 2.87 1.56 5.14 2.94 5.76 0 0 5.19-1.14 9.26-9.2 0 0-6.4 6.87-12.2 3.44z" class="I"/></g><path d="M250.14,93.59c0-.68-.49-1-1.08-.62l-82.26,47.5a2.37,2.37,0,0,0-1.08,1.87v4.6L250.14,98.2Z" class="F"/><path d="M208.61 190.46a3.72 3.72 0 0 0-1.69 2.93c0 1.08.75 1.51 1.69 1a3.71 3.71 0 0 0 1.69-2.92c0-1.11-.76-1.54-1.69-1.01z" class="D"/><path d="M158.49,138.13a3.75,3.75,0,0,0-.54,1.78v75.9l-3.37-1.95V138a3.8,3.8,0,0,1,.53-1.78Z" class="H"/><path d="M196.66 257.28l-2.55 1.47-20.12-11.78-2.22-2.61 4.63 1.22 20.26 11.7z" class="D K"/><path d="M176.21,243.79l-4.28-.84a.14.14,0,0,0-.13.22l2.91,3.29Z" class="J"/><path d="M171.8,243.17a.14.14,0,0,1,.13-.22l.83.17h0a.74.74,0,0,0-.34.68v.07Z" class="H"/><path d="M190.69 255.63l-.35-.2-.42-.24-15.21-8.73a2 2 0 0 1 .12-1.42 2 2 0 0 1 1.38-1.25l15.2 8.72.81.46c-.54-.27-2.07 2.38-1.53 2.66z" class="B"/><path d="M189.35,254.87l-.78-.45c-.23-.13-.1-.69.17-1.28.36-.78,1.07-1.54,1.37-1.37l.58.33.2.12c-.3-.16-1,.59-1.36,1.37-.26.56-.39,1.11-.2,1.26h0Z" class="E"/><path d="M189.16,254.75c-.54-.28,1-2.93,1.54-2.65l.78.45c-.53-.28-2.07,2.37-1.53,2.65Z" class="B"/><path d="M190.69 255.63l-.77-.44c-.53-.28.93-2.85 1.49-2.68h0l.78.45c-.51-.26-2.04 2.39-1.5 2.67z" class="E"/><path d="M171.78 243l.15-.08 3.11 1.7 16.08 9.23h.07c-.45.71-.8 1.61-.5 1.77l-.35-.2-.42-.24-15.21-8.73h0l-2.91-3.29a.12.12 0 0 1-.02-.16z" opacity=".15"/><path d="M194 257.51l-3.29-1.88c-.23-.12-.1-.68.16-1.27.36-.78 1.06-1.54 1.37-1.39h0l3.3 1.88c.65.38 0 1.8-.68 2.44a.78.78 0 0 1-.86.22z" class="N"/><path d="M193.78 256.49a2.36 2.36 0 0 1 1.34-1.62.54.54 0 0 1 .49.06c.5.46-.08 1.77-.77 2.37a.78.78 0 0 1-.85.21c-.24-.14-.34-.51-.21-1.02z" class="K"/><path d="M119 305.89l62.83-36.27a1.25 1.25 0 0 0 0-2.36l-47.49-27.39a4.51 4.51 0 0 0-4.08 0l-62.82 36.28a1.24 1.24 0 0 0 0 2.35l47.49 27.4a4.51 4.51 0 0 0 4.07-.01z" class="M"/><path d="M80.83 280.94a3.36 3.36 0 0 0 1.56 2.59l34 19.64a3.45 3.45 0 0 0 3.13 0l59.89-34.58a2.93 2.93 0 0 0 0-5.18l-34-19.64a3.45 3.45 0 0 0-3.13 0l-59.89 34.57a3.36 3.36 0 0 0-1.56 2.6z" class="B"/><path d="M181,266a3.33,3.33,0,0,1-1.56,2.59l-59.89,34.58a3.19,3.19,0,0,1-1.56.38v-3.39a3.18,3.18,0,0,0,1.56-.37l59.89-34.58c.76-.44.85-1.11.28-1.6A3.32,3.32,0,0,1,181,266Z" class="L"/><path d="M82.39 280.15l34 19.64a3.45 3.45 0 0 0 3.13 0l59.89-34.58a1 1 0 0 0 0-1.8l-34-19.64a3.45 3.45 0 0 0-3.13 0l-59.89 34.57a1 1 0 0 0 0 1.81z" opacity=".3"/><path d="M118 300.16v3.38a3.13 3.13 0 0 1-1.56-.37l-34-19.64a3.36 3.36 0 0 1-1.56-2.59 3.41 3.41 0 0 1 1.4-2.5c-.7.51-.64 1.24.16 1.71l34 19.64a3.13 3.13 0 0 0 1.56.37z" opacity=".7"/><path d="M79.36 278.4c-.8-.47-.76-1.26-.76-2.25v-47a3.46 3.46 0 0 1 1.56-2.71l59.89-34.58a3.37 3.37 0 0 1 3 0c.81.46.77 1.25.77 2.25v47a3.45 3.45 0 0 1-1.57 2.71l-59.86 34.52a3.34 3.34 0 0 1-3.03.06z" class="B"/><path d="M143.85 194.08c0-1-.7-1.4-1.57-.9l-59.89 34.58a3.16 3.16 0 0 0-1.1 1.16l-2.23-1.29h0a3.19 3.19 0 0 1 1.1-1.17l59.89-34.58a3.34 3.34 0 0 1 3 0c.84.41.8 1.2.8 2.2z" opacity=".3"/><path d="M80.83 230.46v47c0 1 .7 1.4 1.56.9l59.89-34.57a3.45 3.45 0 0 0 1.57-2.71v-47c0-1-.7-1.4-1.57-.9l-59.89 34.58a3.44 3.44 0 0 0-1.56 2.7z" class="L"/><path d="M82.21 278.44a3.39 3.39 0 0 1-2.84 0c-.81-.47-.77-1.26-.77-2.25v-47a3.12 3.12 0 0 1 .46-1.54l2.23 1.29h0a3.22 3.22 0 0 0-.46 1.54v47c0 .89.6 1.3 1.38.96z" opacity=".7"/><use xlink:href="#H" class="B"/><use xlink:href="#H" class="C L"/><path d="M86.72 278.44l55.59-32.1a1.72 1.72 0 0 1 1.56 0l.93.51a.48.48 0 0 1 0 .9l-55.6 32.09a1.74 1.74 0 0 1-1.57 0l-.91-.5c-.44-.25-.44-.66 0-.9zm59.94-29.51L91.07 281c-.43.25-.49.62-.14.83l14.47 8.35a1.58 1.58 0 0 0 1.43-.08l55.52-32.05c.43-.25.49-.62.14-.83l-14.41-8.39a1.6 1.6 0 0 0-1.42.1z" opacity=".3" class="H"/><use xlink:href="#I" class="B"/><use xlink:href="#I" class="K"/><path d="M127.97 280.17l.36.21 9.48 5.47 16.86-9.74.35-.2-9.84-5.67-17.21 9.93z" opacity=".4"/><path d="M128.33 280.38l9.48 5.47 16.86-9.74-9.49-5.47-16.85 9.74z" class="B"/><path d="M128.33 280.38l9.48 5.47 16.86-9.74-9.49-5.47-16.85 9.74z" opacity=".45"/><path d="M79.36 278.4a2.55 2.55 0 0 0 .48.2 2.55 2.55 0 0 1-.48-.2.71.71 0 0 1-.14-.1.71.71 0 0 0 .14.1zm2.74.14h0z" class="B"/><path d="M86.29 231.75l51.63-29.81c.6-.35 1.08-.07 1.08.62V236a2.37 2.37 0 0 1-1.08 1.87l-51.63 29.8c-.6.34-1.08.06-1.08-.63v-33.41a2.4 2.4 0 0 1 1.08-1.88z" class="C"/><g class="B"><path d="M121.91 231.71l-1.23-.4c1-5.77-1-7.37-4-7.23 1.28.57 2.27 3.5 1.67 6.47l-1.23-.4c-.24-.08-.56.37-.52.73l.61 5.37c0 .24.22.3.41.13l4.2-3.8c.26-.26.33-.79.09-.87z"/><path d="M117.79 227.64c-.23-1.73-.94-3.09-1.77-3.46 0 0-3.12.68-5.57 5.53 0 0 3.85-4.13 7.34-2.07z" class="I"/><path d="M106.07 237.9l1.23.39c-1 5.77 1 7.37 4 7.24-1.27-.58-2.26-3.5-1.66-6.47l1.23.4c.24.07.56-.38.52-.74l-.61-5.36c0-.25-.22-.31-.41-.13l-4.2 3.8c-.28.26-.34.79-.1.87z"/><path d="M110.19 242c.23 1.72.94 3.09 1.77 3.46 0 0 3.12-.69 5.57-5.53 0-.03-3.85 4.07-7.34 2.07z" class="I"/></g><path d="M139,202.55c0-.68-.48-1-1.08-.61L86.29,231.75a2.4,2.4,0,0,0-1.08,1.88v2.65L139,205.21Z" class="F"/><path d="M163 323.86a2.73 2.73 0 0 1-1.33-.32l-22.16-12.79a1.1 1.1 0 0 1 0-2l4-2.29-1.9-1.09a1.1 1.1 0 0 1 0-2l32.62-18.83a2.9 2.9 0 0 1 2.65 0L199 297.28a1.2 1.2 0 0 1 .68 1 1.21 1.21 0 0 1-.68 1l-4 2.31 1.89 1.09a1.1 1.1 0 0 1 0 2l-32.59 18.86a2.67 2.67 0 0 1-1.3.32z" class="M"/><path d="M197.16,302a.78.78,0,0,0-.46-.64l-22.16-12.8a2.5,2.5,0,0,0-2.23,0L139.7,307.37a.78.78,0,0,0-.46.64v1a.75.75,0,0,0,.46.63l22.16,12.8a2.5,2.5,0,0,0,2.23,0l32.61-18.83a.79.79,0,0,0,.46-.63Z" class="E"/><path d="M139.7 307.37l32.61-18.83a2.5 2.5 0 0 1 2.23 0l22.16 12.8a.68.68 0 0 1 0 1.28l-32.61 18.83a2.44 2.44 0 0 1-2.23 0l-22.16-12.79a.68.68 0 0 1 0-1.29z" class="C"/><path d="M163 321.72v1a2.22 2.22 0 0 1-1.11-.26l-22.19-12.79a.78.78 0 0 1-.46-.64v-1a.78.78 0 0 0 .46.65l22.16 12.79a2.23 2.23 0 0 0 1.14.25z" class="F"/><path d="M199.22,296.58a.78.78,0,0,0-.46-.65L176.6,283.14a2.44,2.44,0,0,0-2.23,0L141.76,302a.77.77,0,0,0-.46.64v1a.78.78,0,0,0,.46.64l22.16,12.79a2.44,2.44,0,0,0,2.23,0l32.61-18.83a.77.77,0,0,0,.46-.63Z" class="E"/><path d="M141.76 302l32.61-18.83a2.44 2.44 0 0 1 2.23 0l22.16 12.79a.68.68 0 0 1 0 1.29l-32.61 18.83a2.5 2.5 0 0 1-2.23 0l-22.16-12.8a.67.67 0 0 1 0-1.28z" class="C"/><path d="M165 316.31v1a2.23 2.23 0 0 1-1.11-.27l-22.16-12.79a.78.78 0 0 1-.46-.64v-1a.77.77 0 0 0 .46.64l22.16 12.8a2.22 2.22 0 0 0 1.11.26z" class="F"/><path d="M181.81 242.32l20.44 11.77-2.45 1.42-20.3-11.86-2.02-2.82 4.33 1.49z" class="K"/><path d="M179.82 242.9l-2.43-2.9a.12.12 0 0 1 .11-.19l3.71.82z" class="N"/><path d="M177.48,239.82h0l3.71.82-.74,1.19-.39-.24-2.6-1.64Z" class="J"/><path d="M177.5 239.82a.12.12 0 0 0-.11.19l.47.56h0a.65.65 0 0 1 .37-.55h.06z" class="H"/><path d="M198 250.77l-.3-.18-.36-.22-16.12-9.73a1.72 1.72 0 0 0-1 .68 1.76 1.76 0 0 0-.36 1.57l16.12 9.73.69.42c-.48-.3.88-2.56 1.33-2.27z" class="G"/><path d="M198 250.77l-.3-.18-.36-.22-16.12-9.73a1.78 1.78 0 0 0-1.18.92l16.82 10.26v.07c.35-.65.89-1.28 1.14-1.12z" class="D"/><path d="M196.85 250.08l-.66-.41c-.19-.12-.57.22-.9.67s-.71 1.45-.46 1.61l.49.3.18.1c-.25-.16 0-1 .46-1.61.32-.43.68-.76.87-.68h0s.02.01.02.02z" class="E"/><path d="M196.69,250c-.44-.29-1.8,2-1.36,2.27l.67.41c-.44-.29.91-2.56,1.35-2.28Z" class="G"/><path d="M198 250.77l-.66-.4c-.43-.29-1.76 1.9-1.39 2.25h0l.67.4c-.43-.28.93-2.54 1.38-2.25z" class="E"/><path d="M177.38 239.87a.12.12 0 0 1 .1-.05.12.12 0 0 0-.1.05z" class="J"/><path d="M200.79 252.46l-2.8-1.69c-.19-.13-.56.21-.89.65-.44.6-.72 1.45-.47 1.62h0l2.81 1.7c.56.33 1.38-.72 1.55-1.54a.68.68 0 0 0-.2-.74z" class="N"/><path d="M199.94 252.74a2.08 2.08 0 0 0-.67 1.7.5.5 0 0 0 .26.34c.55.18 1.3-.8 1.46-1.58a.66.66 0 0 0-.19-.73c-.21-.12-.54-.04-.86.27z" class="K"/><g class="M"><path d="M205.24 285.18a19.46 19.46 0 0 1 14.13 0c3.83 1.77 3.83 4.65 0 6.42a19.46 19.46 0 0 1-14.13 0c-3.96-1.77-3.96-4.6 0-6.42z"/></g><path d="M205.71 271.42a21.83 21.83 0 0 1 13.19 0c3.58 1.37 3.58 3.58 0 4.94a21.68 21.68 0 0 1-13.19 0c-3.71-1.36-3.71-3.57 0-4.94z" fill="#f0997a"/><path d="M202.61 264.49h19.29l-1.46 22.73h0c-.09.82-.86 1.64-2.34 2.27a17 17 0 0 1-11.57 0c-1.52-.63-2.32-1.45-2.42-2.27h0z" class="O"/><path d="M221.9 264.51l-.3 4.62a8.56 8.56 0 0 1-1.6.87 23.38 23.38 0 0 1-15.36 0c-.19-.07-.34-.16-.51-.23a9.77 9.77 0 0 1-1.21-.69l-.3-4.58z" class="F"/><path d="M202.27 265.26v-3.2h2.06l.91-.41a21.52 21.52 0 0 1 14.13 0 10.15 10.15 0 0 1 .87.41h2v3.2h0c0 1-1 2.08-2.88 2.88a21.59 21.59 0 0 1-14.13 0c-1.97-.8-2.96-1.84-2.96-2.88z" class="G"/><path d="M205.24 259.19a21.52 21.52 0 0 1 14.13 0c3.83 1.59 3.83 4.16 0 5.75a21.52 21.52 0 0 1-14.13 0c-3.96-1.59-3.96-4.16 0-5.75z" class="D"/><path d="M204.82 261.17h0l.8-2.14h13.28l.8 2.14h0c.3.83-.39 1.7-2.08 2.33a17.69 17.69 0 0 1-10.63 0c-1.76-.63-2.48-1.5-2.17-2.33z" class="G"/><path d="M207.57 257.55a15.67 15.67 0 0 1 9.44 0c2.57 1 2.57 2.53 0 3.49a15.67 15.67 0 0 1-9.44 0c-2.66-.96-2.66-2.53 0-3.49z" class="D"/><path d="M206.5 259.3s.07.16.29.33a4.62 4.62 0 0 0 1.09.55 13.83 13.83 0 0 0 4.44.67 13.16 13.16 0 0 0 4.37-.67 4 4 0 0 0 1.05-.55c.22-.18.28-.31.28-.34s-.23-.47-1.33-.88a12.91 12.91 0 0 0-4.37-.67 13.56 13.56 0 0 0-4.44.67c-1.1.4-1.38.8-1.38.89z" class="G"/><path d="M206.79 259.63a4.62 4.62 0 0 0 1.09.55 13.83 13.83 0 0 0 4.44.67 13.16 13.16 0 0 0 4.37-.67 4 4 0 0 0 1.05-.55 3.66 3.66 0 0 0-1.05-.56 13.18 13.18 0 0 0-4.37-.66 13.56 13.56 0 0 0-4.44.67 4 4 0 0 0-1.09.55z" class="H"/><path d="M209.45 259.69a1.34 1.34 0 0 0-1-.2c-.19.11 0 .37.35.6a1.34 1.34 0 0 0 1.05.2c.15-.12-.02-.38-.4-.6z"/><path d="M221.05,282.11c0,.84-.85,1.68-2.54,2.33a20.49,20.49,0,0,1-12.42,0c-1.75-.64-2.62-1.48-2.62-2.32l-.54-8.22c0,.9.92,1.79,2.78,2.47a21.68,21.68,0,0,0,13.19,0c1.79-.68,2.69-1.57,2.69-2.47Z" fill="#ffbda7"/><path d="M209.27 282.51a10.91 10.91 0 0 1-.74-1.39 4.12 4.12 0 0 0-2.15-1.89.27.27 0 0 0-.34.12 2.92 2.92 0 0 0 .79 3.25 3 3 0 0 0 3.22.81c.06 0 .07-.14 0-.16a2.58 2.58 0 0 1-.78-.74zm-2.38-3.51a4.63 4.63 0 0 1 1.36.84 4.18 4.18 0 0 1 1 1.34 4 4 0 0 0 1.23 1.64.27.27 0 0 0 .37-.06 2.84 2.84 0 0 0-.66-3.46 2.91 2.91 0 0 0-3.31-.77.26.26 0 0 0 .01.47z" fill="#9e6767"/><g class="M"><path d="M288.16 160.12c5 2.89 5 7.58 0 10.47s-13.12 2.89-18.13 0-5-7.58 0-10.47 13.12-2.89 18.13 0z"/></g><path d="M271.12 166c-4.36-4.45-6.92-15.55-2.67-19.08h21.64c4.25 3.53 1.69 14.63-2.67 19.08l-.12.12-.15.15-.39.35-.1.08-.33.25q-.29.2-.57.36a14.34 14.34 0 0 1-13 0h0a6.12 6.12 0 0 1-.57-.37 3.55 3.55 0 0 1-.31-.23l-.12-.1a3.16 3.16 0 0 1-.38-.34l-.18-.17a.94.94 0 0 1-.08-.1z" class="E"/><path d="M288.21 145.5c4.93 2.85 4.93 7.47 0 10.32s-12.94 2.85-17.88 0-4.93-7.47 0-10.32 12.94-2.85 17.88 0z" class="O"/><path d="M284.71 147.52c3 1.73 3 4.54 0 6.28a12.05 12.05 0 0 1-10.88 0c-3-1.74-3-4.55 0-6.28a12 12 0 0 1 10.88 0z" class="E"/><path d="M273.83 150.5a12 12 0 0 1 10.88 0 5 5 0 0 1 1.8 1.65 5 5 0 0 1-1.8 1.65 12.05 12.05 0 0 1-10.88 0 5 5 0 0 1-1.8-1.65 5 5 0 0 1 1.8-1.65z" class="F"/><g class="B"><path d="M284.05 152.15a25 25 0 0 0 3.93-5.23c1.82-3.21 2.15-7.52 1.21-8s-4.76 3.76-4.76 3.76a23.34 23.34 0 0 0 .4-5.48c-.16-2.86-.85-5.46-1.67-6s-2.66 3.08-3.44 5.7l-1.26 4.76a41.08 41.08 0 0 0-1.41-6c-.95-2.71-1.82-3.33-2.49-3.06s-1.11 1.54-1.31 5.15a36.39 36.39 0 0 0 .17 5.18l-2.85-2.92c-1.5-1.44-2.34-1.8-2.81-1.49s-.6 2.75 1.94 7.35a25.79 25.79 0 0 0 4.8 6.33s3.5 2.22 9.55-.05zm122.71-51.61V89.23l-9.55-.84a.76.76 0 0 0-.4.08l-8.18 4.7a.7.7 0 0 0-.15 1.08l10.12 11z"/><path d="M398.6,105.22l-10.12-11a.7.7,0,0,1,.57-1.17l9.55.83Z"/><use xlink:href="#J"/></g><use xlink:href="#J" class="C L"/><path d="M398.6,80.21a5.24,5.24,0,0,1,2.37-4.1L402.9,75a5.21,5.21,0,0,1,4.74,0l29.59,17.11a5.25,5.25,0,0,1,2.37,4.11v32.56a5.22,5.22,0,0,1-2.37,4.1L435.3,134a5.27,5.27,0,0,1-4.74,0L401,116.88a5.22,5.22,0,0,1-2.37-4.1Z" class="B"/><path d="M439.6,128.78a5.22,5.22,0,0,1-2.37,4.1L435.3,134a5.3,5.3,0,0,1-4.33.19c1.11.42,2-.21,2-1.56V100.07a4.93,4.93,0,0,0-.69-2.34l6.67-3.85a4.93,4.93,0,0,1,.69,2.34Z" opacity=".2"/><g class="C"><path d="M398.67 79.54c.28-1 1.2-1.33 2.29-.7L430.56 96a4.76 4.76 0 0 1 1.67 1.77l6.67-3.84a4.69 4.69 0 0 0-1.67-1.77L407.64 75a5.21 5.21 0 0 0-4.74 0l-1.9 1.11a5.3 5.3 0 0 0-2.33 3.43z" class="L"/><path d="M403.2 104.86l1.72-.91c-3-8.32-.48-11.22 4.06-11.82-1.74 1.19-2.44 5.8-.76 10.06l1.72-.92c.34-.18.93.41 1 1l.51 8.13c0 .38-.24.52-.57.31l-7.26-4.54c-.51-.35-.75-1.17-.42-1.31z"/><path d="M408.25 97.72c-.11-2.62.58-4.84 1.71-5.61 0 0 4.82.19 9.74 6.74 0 0-6.81-5.11-11.45-1.13z" class="I"/><path d="M428.39 109.86l-1.72.92c3 8.31.48 11.22-4.06 11.81 1.74-1.18 2.44-5.8.76-10l-1.72.92c-.34.18-.93-.41-1-1l-.51-8.13c0-.37.24-.51.57-.3l7.26 4.54c.51.29.75 1.06.42 1.24z"/><path d="M423.34 117c.11 2.62-.58 4.84-1.71 5.61 0 0-4.82-.2-9.74-6.75 0 .01 6.81 5.14 11.45 1.14z" class="I"/></g><path d="M444.37 164.3c1.35 2.12.81 5.37-3 10-3.28 4-8 5.54-9.16 4.33s7.05-15.7 12.16-14.33z" class="J"/><use xlink:href="#K" class="B"/><use xlink:href="#K" opacity=".6" class="C"/><g class="B"><path d="M420.79 189.06a2.65 2.65 0 0 0 1.47.22l.69-.1a2.65 2.65 0 0 0 1.5-.72l24.37-29.72a.74.74 0 0 0 .18-.53l-2.74.38a.75.75 0 0 1-.17.53l-24.38 29.73a.76.76 0 0 1-.92.21z"/><use xlink:href="#L"/></g><g class="C"><use xlink:href="#L" opacity=".4"/><path d="M442.83 160.68l-13.74-10.9a.65.65 0 0 0-.88.12l-19.45 23.72a.6.6 0 0 0 .07.86l13.74 10.9a.62.62 0 0 0 .87-.12l19.45-23.72a.61.61 0 0 0-.06-.86z"/></g><g class="B"><path d="M419.12 165.21h1.2c1.7-3.22 4.05-3.77 6.52-3.22a6.19 6.19 0 0 0-4.21 3.18h1.2c.23 0 .3.29.11.47l-2.85 2.77a.26.26 0 0 1-.4 0l-1.86-2.68c-.13-.22.05-.51.29-.52z"/><path d="M424.35 163.69a5.6 5.6 0 0 1 3-1.57 3.84 3.84 0 0 1 2.25 3.82 4.9 4.9 0 0 0-5.25-2.25z" class="I"/><path d="M429.68 171h-1.2c-1.71 3.23-4.05 3.78-6.53 3.23a6.17 6.17 0 0 0 4.22-3.19h-1.2c-.24 0-.31-.28-.12-.47l2.86-2.76a.26.26 0 0 1 .4 0l1.86 2.69a.33.33 0 0 1-.29.5z"/><path d="M424.45 172.51a5.74 5.74 0 0 1-3 1.57 3.83 3.83 0 0 1-2.25-3.82 4.91 4.91 0 0 0 5.25 2.25z" class="I"/></g><path d="M437.86 152.91a.5.5 0 0 0-.69.1.47.47 0 0 0 .05.67.5.5 0 0 0 .69-.09.49.49 0 0 0-.05-.68zm.14 1.96l-2.8-2.25a.29.29 0 0 0-.41 0 .28.28 0 0 0 0 .4l2.81 2.23a.3.3 0 0 0 .41 0 .27.27 0 0 0-.01-.38zm.71.56a.27.27 0 0 0-.38 0 .26.26 0 0 0 0 .38.27.27 0 0 0 .38-.05.26.26 0 0 0 0-.33zm-23.65 25.27a1 1 0 0 0-1.26 1.55 1 1 0 0 0 1.26-1.55z" class="H"/><path d="M373.76 141.68c3.69 10.62 12.64 32.85 12.64 32.85s21.66-8.93 24.45-11.72c1.73-1.73 2.56-3.58 3.63-4.51 3.93-3.42 6.6-2.74 10.67-4.73 1-.5 2.35-.51 2.4.92.07 1.64-1.4 3.32-2.7 4.16a9.44 9.44 0 0 1-1.79.84l-2.18.84a15.38 15.38 0 0 0-3.67 1.78 5.57 5.57 0 0 0-1 1l-4.21 5.11-4.16 5.08-2.28 2.7a.69.69 0 0 0 .08 1l4.83 3.83-21.48 11.35c-5.06 2.35-10.84 5.76-15.11-3.46-4.58-9.8-13.88-33.6-13.88-33.6l-1.89-26.76c5.05.35 11.58 1.58 15.65 13.32z" class="J"/><path d="M356.28 128.11s5.26-.34 8.41 1.06c2.81 1.25 7.3 2.61 10.37 9.84 2.3 5.4 10.64 29.07 10.64 29.07a27.49 27.49 0 0 1-18.3 7.44l-11.12-47.41z" class="G"/><path d="M372.05,321.59l-4.18,17.12s-7.32,2-11.26-1.28-2.12-4.89-2.12-4.89l.28-1.19,2.13-20.06Z" class="J"/><path d="M348.72,340.53c-.84-.07-1.89,2.93-1.87,3.9s1.07,3,2.43,4.88a35.26,35.26,0,0,1,4.52,7.3,35.78,35.78,0,0,0,5.5,9.21c3.06,3.88,10.08,9.29,20.78,6a10,10,0,0,0,4.82-2.69,4.73,4.73,0,0,0,.57-4.12Z" class="D"/><use xlink:href="#M" class="B"/><use xlink:href="#M" opacity=".35"/><path d="M364.08 366.39a12.5 12.5 0 0 1 7.85-9.38c5.81-2.39 8-.88 9.82.09 1.14.61 5.94 4.75 3.34 9.7-.51 1.07-10.22 7.76-21.01-.41z" class="O"/><path d="M362.35 346.84c.12 3-.12 7.16.71 10.31l1.91 7.35c.25 1.07.49 2.14.7 3.22a5.43 5.43 0 0 1-.13 3.41 4.13 4.13 0 0 1-1 1.26 9.54 9.54 0 0 1-6.72 2.28 7.16 7.16 0 0 1-3.65-1c-2.16-1.42-3-4-4.17-6.17-1.26-2.36-.52-3.6-.73-6.17a91.78 91.78 0 0 0-1.33-10.2c4.6-5.36 8.56-5.77 14.41-4.29z" class="J"/><path d="M347.86,372c-.8.26-.59,3.44-.19,4.32a10.43,10.43,0,0,0,3.79,3.85,17,17,0,0,1,5.5,5.54,29,29,0,0,0,9.15,8.45c4.34,2.37,10.14,2.62,15.45.66s5.83-3.42,5.69-5.47Z" class="D"/><use xlink:href="#N" class="B"/><use xlink:href="#N" opacity=".3"/><path d="M366.19 390.36s1.24-7.9 8-11.08 9.27-.28 10.33.48 6.19 4.82 2.72 9.63c.01 0-9.01 7.96-21.05.97z" class="O"/><path d="M376.66,210.85c5.87,29.57,12.8,61.36,9.45,74.25-2.51,9.66-14.57,42.08-14.57,42.08-4.21.59-12.83,1.53-16.19-5.86-.86-12,.51-86.1.51-86.1Z" class="D"/><path d="M355.86,235.22a54.76,54.76,0,0,0,14-12.19s-1.58,6-9.49,13.72c0,0,8,42.79,7.95,51s-4.46,37.65-4.46,37.65Z" class="G"/><path d="M376.66,210.85c-5.7,11.82-12.12,21.49-20.8,24.37,0,0,7.87,43.34,8.41,53.17.89,16.35-1.37,53.16-1.21,64.4-1.94,4.41-12.18,4.59-15,1.77-.75-5.47-8.12-24.17-9-40.61-.61-12.08,1.6-18.88,1.86-22-1.25-2.9-20.09-35.82-23.75-60.42-1.61-10.86-.56-16.78-.62-23l60.11,2.38" class="D"/><path d="M321,131.91s-4.8.11-4.19,16.48a135,135,0,0,0-2.65,26.31c-.13,15.32,2.09,38.94,2.09,38.94,8.08,9.15,48.13,6.42,60.39-2.79-.62-2.74-3.44-19.23-4.83-28.75.39-11.72.71-25,.37-32.32-.59-12.68-4.8-21.69-15.55-21.69l-15.32.87Z" fill="#f0f0f0"/><path d="M338.07 95.74c0 9 7 16.37 15.73 16.37s15.33-7.34 15.72-16.37c.69-16-7-16.38-15.72-16.38s-15.73 7.34-15.73 16.38zm-9.5-6.35c1.84-2.87 3.57-2.43 3.57-2.43l1.21 13.93 1.94.4.17 18.8a5.46 5.46 0 0 1-2.38-2.54c-.65-1.32-2-9.27-2.82-14 0-.04-3.26-11.7-1.69-14.16z" class="H"/><path d="M335,104.41c-.91.56-2.21-1.26-3.34-2.48s-4.79-2.9-6.62,1.12,1.62,9.49,4.51,10.44c5,1.62,5.72-1.7,5.72-1.7l.38,18.69c6.6,10.21,21.56,9.85,16.18-.5V124.3a30,30,0,0,0,6.71.35c3.65-.58,6-3.59,7.07-7.72,1.78-6.62,2.46-12,.94-25-1.65-14.28-17.6-14.43-26.21-8.78S335,104.41,335,104.41Z" class="J"/><g class="H"><path d="M359.24 90.93c-7.4.19-12-1.37-18.11-2.09a2.33 2.33 0 0 0-1.23.08c-1.35.61-1.64 4.81-1.88 6-.8 4.09-1.46 11-3 11-.46 0-2.2-3-3.34-4.07-1.57-1.49.46-15 .46-15 .07-.47-.35-1.32-.37-1.84a6.24 6.24 0 0 1 1-3.41 10.35 10.35 0 0 1 5.48-4.47c4.14-1.62 8.7-1.42 12.81-3.27a34.47 34.47 0 0 1 4.94-2.11 5 5 0 0 1 5 1 6.26 6.26 0 0 1 1.31 3.28 8.6 8.6 0 0 1 3.08-2.89c2.4-1.06 5.39.44 6.62 2.76s1.05 5.17.29 7.69a9.76 9.76 0 0 1-1 2.37c-2.3 3.7-8.06 4.87-12.06 4.97z"/><path d="M332.15 87.67l-5.51-3.08a3 3 0 0 1 4.17-1.44 3.5 3.5 0 0 1 1.34 4.52z"/></g><path d="M351.84,124.3s-8.17-1.72-11-3.3a9.61,9.61,0,0,1-3.95-4.07,13.77,13.77,0,0,0,2.24,4.8c2.09,2.78,12.73,4.83,12.73,4.83Z" class="N"/><path d="M349.88 102.28a1.64 1.64 0 1 1-1.64-1.77 1.71 1.71 0 0 1 1.64 1.77zM347.84 96l-3.5 2a2.23 2.23 0 0 1 .81-2.91 1.93 1.93 0 0 1 2.69.91z" class="H"/><path d="M351.1 114.06l3.74 1.46a2 2 0 0 1-2.54 1.29 2.21 2.21 0 0 1-1.2-2.75z" class="N"/><path d="M364.58 98.15l-3.19-2.56a1.88 1.88 0 0 1 2.77-.44 2.27 2.27 0 0 1 .42 3zm-1.09 3.65a1.7 1.7 0 0 1-1.64 1.76 1.78 1.78 0 1 1 1.64-1.76z" class="H"/><path d="M354.73 100.43l.19 10.34 5.87-1.35-6.06-8.99z" class="N"/><path d="M308.18 243.49c1.57 1.47 2.42 3.43 4 6.33s9.52 3.18 10.15-5c.47-6.14-.42-9-5.17-13.33s-6.17-6.29-6.5-8.56-.25-38.15-.25-38.15l11.3-30.42s5.29-15.44-.7-22.47c0 0-7.65-.37-12.87 4.84-6.1 6.09-11.41 33.68-12.93 39.76-1.21 4.8-2.48 6.79-1.45 16.52s4 37.15 5.27 41.66 4.97 4.89 9.15 8.82z" class="J"/><path d="M322.64 131.68s-6.85-1.1-12.22 2.61-7.1 8-10 18.15-4.24 17.21-4.24 17.21-.83 3 7.81 6.08 10.7.83 10.7.83l9.81-27.3c1.37-4.6 2.78-13.04-1.86-17.58z" class="G"/><defs ><path id="B" d="M47.92,276v-.79a4.34,4.34,0,0,1,2-3.4l219-126.47a4.32,4.32,0,0,1,3.93,0l106.24,61.36a4.35,4.35,0,0,1,2,3.4v.79a4.37,4.37,0,0,1-2,3.4l-219,126.47a4.41,4.41,0,0,1-3.94,0L49.89,279.41A4.34,4.34,0,0,1,47.92,276Z"/><path id="C" d="M158.09 335.92v5.32a4.1 4.1 0 0 1-2-.47l-106.2-61.35a4.36 4.36 0 0 1-2-3.41v-.79a4.35 4.35 0 0 1 1.61-3.14c-.71.6-.59 1.45.36 2l106.23 61.36a4 4 0 0 0 2 .48z"/><path id="D" d="M49.89 274.09l106.23 61.35a4.34 4.34 0 0 0 3.94 0L379.09 209a1.2 1.2 0 0 0 0-2.27l-106.24-61.38a4.32 4.32 0 0 0-3.93 0l-219 126.47a1.2 1.2 0 0 0-.03 2.27z"/><path id="E" d="M223.09 252.68H223l-2.16-1.25 2.93-1.69L226 251l-2.92 1.7zm-3.39-2h0l-2.16-1.25 2.3-1.33 2.16 1.3-2.3 1.32zm7.48-.42h0l-2.18-1.2 2.31-1.33 2.23 1.25-2.3 1.33zm-10.86-1.54h0l-2.16-1.24 3.72-2.15 2.24 1.25-3.72 2.15zm6.85-.05h0l-2.17-1.2 1.83-1.06 2.24 1.26-1.83 1.05zm7.48-.41h-.05l-2.16-1.24 2.3-1.33L233 247l-2.3 1.33zm-4.48-1.26h-.06l-2.11-1.26 1.83-1.06 2.24 1.26-1.88 1.06zm-13.23-.18h-.05l-2.16-1.25 2.93-1.69 2.24 1.26-2.9 1.68zm21.18-.51h-.05l-2.16-1.25 16.64-9.6 2.23 1.26-16.64 9.6zm-12.91-.31h-.05l-2.16-1.3 1.83-1.06 2.23 1.26-1.83 1zm7.95-.68h0L227 244l1.83-1 2.23 1.25-1.82 1.06zm-19.6-.41h-.05l-2.17-1.25 1.83-1.06 2.24 1.26-1.83 1.05zm7.47-.41h0l-2.17-1.24 1.83-1.06 2.24 1.26-1.83 1zm7.17-.23h0L222 243l1.83-1.06 2.23 1.26-1.82 1.05zm8-.68h-.05l-2.16-1.25 1.83-1.05 2.24 1.25-1.83 1.06zm-19.6-.4h-.05l-2.16-1.25 1.83-1.06 2.23 1.26-1.82 1zm7.48-.41H220l-2.16-1.25 1.83-1.06 2.23 1.26-1.82 1.05zm7.16-.23h-.05l-2.19-1.31 1.83-1.06 2.24 1.26-1.83 1.05zm-21.74 0h0l-2.16-1.25 2.3-1.33 2.24 1.26-2.3 1.32zm29.69-.68h0l-2.16-1.25 1.83-1.05 2.24 1.25-1.83 1.06zm-19.6-.4h0l-2.16-1.25 1.83-1.05 2.24 1.25-1.83 1.06zM223 241h0l-2.16-1.25 1.83-1.06 2.24 1.26-1.86 1.05zm7.17-.23h-.05l-2.12-1.26 1.83-1 2.23 1.25-1.83 1.06zm7.95-.69l-2.16-1.24 1.83-1.06L240 239l-1.82 1.05zm-27.92-.34h-.05l-2.15-1.26 1.83-1 2.23 1.26-1.82 1.05zm8.32-.06h0l-2.16-1.25 1.82-1 2.24 1.25-1.83 1.06zm7.48-.41h0l-2.2-1.27 1.83-1 2.24 1.25-1.87 1.02zm7.16-.23h-.05l-2.11-1.26 1.83-1.05L235 238l-1.79 1zm7.95-.68h0l-2.16-1.25 1.83-1.06 2.22 1.25-1.83 1zm-27.9-.36h-.05l-2.16-1.24 1.83-1.06 2.24 1.26-1.83 1zm8.32-.06h-.05l-2.16-1.24 1.83-1.06 2.23 1.26-1.82 1zm7.48-.41h0l-2.16-1.25 1.83-1.05 2.23 1.25-1.91 1.06zm7.16-.23h0l-2.17-1.25 1.83-1.05 2.24 1.25-1.83 1.06zm8-.68h0l-2.17-1.25 1.84-1.06 2.23 1.26-1.83 1.05zm-27.92-.34h0L214 235l1.82-1.06 2.24 1.26-1.83 1.05zm8.32-.07h-.05l-2.21-1.21 1.83-1.06 2.24 1.26-1.83 1.05zm27.4-.19h0l-2.16-1.24 2.3-1.33 2.24 1.25L252 236zm-19.97-.21h0l-2.16-1.24 1.83-1.06 2.24 1.26-1.91 1.04zm7.17-.23l-2.17-1.25 1.83-1.06 2.23 1.26-1.83 1.05zm8-.68h-.05l-2.16-1.25 1.83-1 2.23 1.25-1.82 1.06zm-27.92-.34h0L217 233.3l1.83-1.06 2.23 1.26-1.82 1.06zm8.32-.06h-.05l-2.16-1.25 1.83-1.06 2.23 1.26-1.83 1.05zm7.48-.42H235l-2.17-1.25 1.84-1.06 2.23 1.26-1.9 1.05zm20.39-.05h0l-2.16-1.25 2.3-1.32 2.23 1.25-2.3 1.33zm-13.23-.17h0L240 232.6l1.83-1.06 2.17 1.26-1.82 1zm8-.69h-.05l-2.16-1.25 1.83-1 2.24 1.25-1.83 1.06zm-19.6-.4h0l-2.16-1.25 1.83-1 2.23 1.25-1.82 1.06zm7.48-.41h-.05l-2.16-1.25 1.83-1.06 2.23 1.26-1.82 1zm7.16-.23h0l-2.17-1.25 1.83-1.06 2.24 1.26-1.83 1.05zm-21.66 0h0l-2.17-1.25 1.83-1.06 2.24 1.26-1.83 1zm35.36-.05h-.05l-2.16-1.25 2.3-1.33 2.24 1.26-2.3 1.33zm-5.75-.59h0l-2.16-1.25 1.83-1.05 2.23 1.26-1.83 1.05zm-19.6-.4h-.05l-2.16-1.25 1.83-1.05 2.24 1.25-1.93.96zm7.48-.41h0l-2.16-1.25 1.83-1.06 2.24 1.26-1.99 1zm7.17-.23h-.05l-2.16-1.25 1.83-1 2.23 1.25-1.83 1.06zm-21.66-.05h-.05l-2.16-1.25 1.83-1.05 2.23 1.25-1.83 1.06zm35.83-.32h-.05l-2.16-1.25 2.93-1.69 2.23 1.26-3.02 1.6zm-6.22-.32h-.05l-2.16-1.24 5.77-3.33 2.23 1.25-5.76 3.33zm-19.6-.4h-.05l-2.16-1.25 1.83-1.05 2.23 1.25-1.83 1.06zm7.48-.41h0l-2.16-1.25 1.83-1 2.23 1.25-1.98.95zm7.16-.23h0l-2.16-1.25 1.83-1 2.23 1.25-1.82 1.06zm-21.66 0h0l-2.16-1.25 1.83-1.05 2.23 1.25-1.82 1.06zm10-1h-.05l-2.16-1.24 1.83-1.06 2.23 1.26-1.82 1.05zm27.42-.42l-2.17-1.3 1.83-1 2.24 1.25-1.83 1.06zm-20-.13h-.05l-2.16-1.25 1.83-1 2.23 1.25-1.85 1zm7.16-.23h0l-2.17-1.25 1.68-1a.35.35 0 0 0 0-.62l-2.83-1.64 2.14-1.24 5.62 3.21-4.35 2.51zm-21.66-.05h0l-2.17-1.24 1.83-1.06 2.24 1.26-1.83 1zm10-1h0l-2.16-1.25 1.83-1.06 2.24 1.26-1.83 1zm27.56-.28H270l-2.16-1.24 1.83-1.06 2.23 1.26-1.83 1zm-20.06-.17h-.05l-2.16-1.24 1.83-1.06 2.24 1.26-1.86 1.04zm-13.19-1h-.05l-2.16-1.24 1.83-1.06 2.23 1.26-1.82 1zm8.71-.28h0l-2.16-1.25 1.83-1.06 2.23 1.26-1.83 1.05zm27.55-.29h0l-2.16-1.24 1.83-1.06 2.24 1.26-1.83 1.05zm-6.38-.22h0l-2.16-1.25 1.83-1.05 2.24 1.25-1.83 1.06zm-26.89-.94h0l-2.16-1.24 1.83-1.06 2.24 1.26-1.83 1.05zm8.71-.28h-.05l-2.16-1.25 3.25-1.87 2.23 1.25-3.24 1.88zm28.18-.65h0l-2.17-1.24 4.83-2.79 2.15 1.25-4.82 2.78zm-19.76-.31h-.05l-2.16-1.25 1.83-1.05 2.24 1.25-1.83 1.06zm-14.17-.47h0l-2.16-1.25 1.83-1.06 2.23 1.26-1.83 1zm30.51-1.16h0l-2.16-1.25 1.83-1 2.24 1.25-1.83 1.06zm-13.38-.09h-.05l-2.16-1.24 1.83-1.06 2.23 1.26-1.82 1.05zm-6.38-.22h0l-2.16-1.25 1.83-1.06 2.23 1.26-1.82 1.06zm-7.76-.26h-.05l-2.16-1.27 1.83-1.06 2.23 1.26-1.82 1.05zm36.89-.93h-.05l-2.16-1.34 1.83-1.06 2.24 1.26-1.83 1zm-6.38-.23h-.05l-2.16-1.25 1.83-1.05 2.24 1.25-1.83 1.06zm-13.38-.11h-.05l-2.16-1.25 1.83-1.06 2.24 1.26-1.83 1zm7-.13h-.05l-2.16-1.25 1.83-1.06 2.23 1.26-1.82 1.05zm-13.39-.09h-.05l-2.16-1.25 1.83-1.05 2.24 1.25-1.83 1.06zm-7.09-.64h0l-2.17-1.25 1.77-1.09 2.24 1.26-1.83 1.05zm36.22-.55h-.05l-5.54-3.2 1.83-1.06 5.62 3.21-1.83 1.06zm-6.37-.23h-.05l-2.16-1.24 1.83-1.06 2.23 1.26-1.82 1.05zm-6.38-.22h-.05l-2.16-1.25 1.83-1.05 2.24 1.25-1.83 1.06zM259.5 216h-.05l-2.16-1.25 1.83-1.05 2.23 1.25-1.82 1.05zm7-.14h-.05l-2.17-1.24 1.83-1.06 2.24 1.26-1.83 1zm-14.11-.5h-.05l-2.16-1.25 1.83-1 2.23 1.25-1.82 1.06zm23.48-1h-.05l-2.17-1.25 1.83-1 2.24 1.25-1.83 1.06zm-6.38-.23h-.05l-2.16-1.25 1.83-1.06 2.23 1.26-1.82 1zm-6.38-.22h-.05l-2.16-1.25 1.83-1.05 2.24 1.25-1.83 1.06zm-7.73-.28h0l-2.16-1.25 1.83-1.05 2.24 1.25-1.83 1.06zm23.48-1h-.05l-5.55-3.2 1.83-1 5.62 3.2-1.82 1.06zm-6.38-.22h-.05l-2.16-1.25 1.83-1.06 2.24 1.26-1.83 1.05zm-6.38-.23l-2.19-1.18 1.82-1 2.24 1.25-1.83 1.06zm-8-1.14h0l-.94-.53 1.83-1.06 1 .54-1.82 1.05zm11-.59h-.05l-2.16-1.24 1.83-1.06 2.23 1.26-1.82 1zm-8-1.14h-.05l-.94-.53 1.83-1.06 1 .55-1.82 1.05zm11-.59h-.05l-2.16-1.25 1.83-1.06 2.28 1.29-1.83 1.05zm-8-1.14h-.05l-.93-.53L265 206l1 .55-1.82 1.05zm3-1.73h-.05l-.94-.53 1.83-1.05 1 .54-1.82 1z"/><path id="F" d="M159.76 226.46l97.7-56.4a4 4 0 0 0 1.8-3.12V81.42c0-1.15-.81-1.61-1.8-1l-97.7 56.41a4 4 0 0 0-1.8 3.12v85.52c.04 1.1.8 1.53 1.8.99z"/><path id="G" d="M161.33 208.71V141a2.39 2.39 0 0 1 1.08-1.87l92.39-53.31c.6-.35 1.08-.07 1.08.62v67.69a2.38 2.38 0 0 1-1.08 1.87l-92.39 53.34c-.59.34-1.08.06-1.08-.63z"/><path id="H" d="M83.23 229.56L141 196.23c.51-.3.93-.06.93.54v41a2.06 2.06 0 0 1-.93 1.62l-57.77 33.34c-.52.3-.93.06-.93-.54v-41a2 2 0 0 1 .93-1.63z"/><path id="I" d="M139.36 262.41l1.74-1c.08 0 .08-.11 0-.15l-1.67-1a.28.28 0 0 0-.25 0l-1.74 1c-.08.05-.08.11 0 .15l1.67 1a.25.25 0 0 0 .25 0zm-2.54-3.47l-1.74 1c-.07 0-.08.11 0 .15l1.66 1a.28.28 0 0 0 .25 0l1.74-1c.08 0 .08-.1 0-.14l-1.67-1a.25.25 0 0 0-.24-.01zm-5.62 3.24l-2.95 1.7c-.07.05-.08.11 0 .15l1.66 1a.28.28 0 0 0 .25 0l2.95-1.7c.07 0 .08-.11 0-.14l-1.67-1a.31.31 0 0 0-.24-.01zm3.08-1.78l-1.74 1c-.08 0-.08.11 0 .15l1.67 1a.31.31 0 0 0 .25 0l1.74-1c.07 0 .08-.1 0-.14l-1.66-1a.28.28 0 0 0-.26-.01zm-6.83 4l-1.74 1c-.08 0-.08.11 0 .15l1.67 1a.28.28 0 0 0 .25 0l1.74-1c.08-.05.08-.11 0-.15l-1.67-1a.25.25 0 0 0-.25-.05zm-2.55 1.47l-1.74 1c-.07 0-.08.11 0 .15l1.66 1a.3.3 0 0 0 .26 0l1.74-1c.07 0 .08-.1 0-.14l-1.66-1a.27.27 0 0 0-.26-.06zm6.53 3.92l1.74-1c.08 0 .08-.1 0-.14l-1.67-1a.28.28 0 0 0-.25 0l-1.74 1c-.08 0-.08.11 0 .15l1.67 1a.28.28 0 0 0 .25-.06zm-2.54 1.47l1.74-1c.07 0 .08-.11 0-.14l-1.66-1a.3.3 0 0 0-.26 0l-1.74 1c-.07 0-.08.11 0 .14l1.66 1a.34.34 0 0 0 .26-.05zm-2.55 1.47l1.74-1c.08 0 .08-.11 0-.14l-1.67-1a.31.31 0 0 0-.25 0l-1.74 1c-.07 0-.08.11 0 .14l1.66 1a.28.28 0 0 0 .26-.05zm-2.54 1.46l1.74-1c.07 0 .08-.11 0-.15l-1.67-1a.28.28 0 0 0-.25 0l-1.74 1c-.08 0-.08.1 0 .14l1.67 1a.25.25 0 0 0 .25-.04zm13-10.26l1.74-1c.07-.05.08-.11 0-.15l-1.66-1a.28.28 0 0 0-.25 0l-1.74 1c-.08.05-.09.11 0 .15l1.67 1a.28.28 0 0 0 .26-.05zm-2.8 4.34l3.88-2.24c.07 0 .08-.11 0-.15l-4-2.33a.25.25 0 0 0-.25 0l-2 1.16c-.08 0-.08.1 0 .14l2.14 1.24c.07 0 .06.1 0 .14l-1.61.93c-.07 0-.08.11 0 .15l1.66 1a.3.3 0 0 0 .18-.04zm-11.62-1l-1.74 1c-.07 0-.08.11 0 .15l1.67 1a.31.31 0 0 0 .25 0l1.74-1c.08 0 .08-.1 0-.14l-1.67-1a.28.28 0 0 0-.27 0zm-2.54 1.47l-1.74 1c-.08 0-.08.11 0 .14l1.67 1a.31.31 0 0 0 .25 0l1.74-1c.07 0 .08-.11 0-.14l-1.66-1a.31.31 0 0 0-.28.01zm-14.08 15.68a.28.28 0 0 0 .25 0l1.74-1c.08 0 .08-.11 0-.15l-1.67-1a.31.31 0 0 0-.25 0l-1.74 1c-.08 0-.08.11 0 .14zm-6.27-3.93l-1.75 1c-.07 0-.08.11 0 .14l1.66 1a.34.34 0 0 0 .26 0l1.74-1c.07 0 .08-.11 0-.14l-1.66-1a.31.31 0 0 0-.27.01zm3.22 2.95a.28.28 0 0 0 .25 0l1.74-1c.08 0 .08-.1 0-.14l-1.67-1a.25.25 0 0 0-.25 0l-1.74 1c-.07 0-.08.11 0 .15zm7 1.58l1.74-1c.07 0 .08-.11 0-.14l-1.67-1a.31.31 0 0 0-.25 0l-1.74 1c-.08 0-.08.11 0 .14l1.67 1a.28.28 0 0 0 .25-.02zm-2.8 1.47a.3.3 0 0 0 .26 0l1.74-1c.07 0 .08-.11 0-.15l-1.66-1a.3.3 0 0 0-.26 0l-1.74 1c-.07 0-.08.1 0 .14zM102 279l-1.74 1c-.08 0-.08.11 0 .15l1.67 1a.31.31 0 0 0 .25 0l1.74-1c.08 0 .08-.1 0-.14l-1.67-1a.28.28 0 0 0-.25-.01zm12.72-7.34l-1.74 1c-.08 0-.08.1 0 .14l1.67 1a.25.25 0 0 0 .25 0l1.74-1c.08 0 .08-.11 0-.15l-1.67-1a.28.28 0 0 0-.24.04zm-10.18 5.88l-1.74 1c-.07 0-.08.11 0 .15l1.66 1a.3.3 0 0 0 .26 0l1.74-1c.07 0 .08-.1 0-.14l-1.66-1a.27.27 0 0 0-.25.02zm12.72-7.35l-1.74 1c-.07 0-.08.1 0 .14l1.66 1a.3.3 0 0 0 .26 0l1.74-1c.07 0 .08-.11 0-.15l-1.66-1a.34.34 0 0 0-.25.04zm-5.09 2.94l-1.74 1c-.07 0-.08.11 0 .15l1.66 1a.27.27 0 0 0 .26 0l1.74-1c.07 0 .08-.11 0-.15l-1.66-1a.3.3 0 0 0-.25.03zm-2.54 1.47l-1.74 1c-.07.05-.08.11 0 .15l1.66 1a.28.28 0 0 0 .25 0l1.74-1c.08-.05.08-.11 0-.15l-1.67-1a.28.28 0 0 0-.23.03zm-2.54 1.47l-1.74 1c-.08 0-.08.11 0 .15l1.67 1a.28.28 0 0 0 .25 0l1.74-1c.07-.05.08-.11 0-.15l-1.66-1a.25.25 0 0 0-.25.03zm11.61 1l1.74-1c.08-.05.08-.11 0-.15l-1.67-1a.28.28 0 0 0-.25 0l-1.74 1c-.08 0-.08.11 0 .15l1.67 1a.28.28 0 0 0 .26.01zm23.73-21.39l-1.74 1c-.07.05-.08.11 0 .15l1.66 1a.27.27 0 0 0 .26 0l1.74-1c.07 0 .08-.11 0-.15l-1.66-1a.3.3 0 0 0-.25.01zm-3.08 1.78l-1.74 1c-.07 0-.08.11 0 .15l1.66 1a.3.3 0 0 0 .26 0l1.74-1c.07-.05.08-.11 0-.15l-1.66-1a.27.27 0 0 0-.25.01zm5.63-3.25l-1.74 1c-.08 0-.08.1 0 .14l1.67 1a.25.25 0 0 0 .25 0l1.74-1c.07 0 .08-.11 0-.15l-1.67-1a.28.28 0 0 0-.23.02zm-14.06 13.06l1.74-1c.07 0 .08-.11 0-.15l-1.66-1a.3.3 0 0 0-.26 0l-1.74 1c-.07.05-.08.11 0 .15l1.66 1a.27.27 0 0 0 .27.01zm16.85-14.54a.28.28 0 0 0-.25 0l-1.74 1c-.07 0-.08.1 0 .14l1.66 1a.28.28 0 0 0 .25 0l1.74-1c.08 0 .09-.11 0-.15zm-26.52 22.87l1.74-1c.07 0 .08-.11 0-.15l-1.66-1a.3.3 0 0 0-.26 0l-1.74 1c-.07.05-.08.11 0 .15l1.66 1a.27.27 0 0 0 .27.01zm31.19-18l1.74-1c.08-.05.08-.11 0-.15l-1.67-1a.28.28 0 0 0-.25 0l-1.74 1c-.07.05-.08.11 0 .15l1.67 1a.28.28 0 0 0 .26 0zm-4.92.1l1.74-1c.07 0 .08-.11 0-.14l-1.66-1a.28.28 0 0 0-.25 0l-1.74 1c-.08 0-.08.11 0 .14l1.67 1a.31.31 0 0 0 .25 0zm2.63-3.58a.28.28 0 0 0-.25 0l-1.74 1c-.07 0-.08.11 0 .15l1.66 1a.28.28 0 0 0 .25 0l1.74-1c.08 0 .08-.1 0-.14zm.54-.31l4 2.33a.27.27 0 0 0 .26 0l1.74-1c.07 0 .08-.11 0-.15l-4-2.33a.27.27 0 0 0-.26 0l-1.74 1c-.05.04-.06.11.01.15zm-5.88 3.25l-1.74 1c-.07 0-.08.11 0 .14l1.66 1a.3.3 0 0 0 .26 0l1.74-1c.07 0 .08-.11 0-.14l-1.66-1a.34.34 0 0 0-.25 0zm-19.14 11.06l-1.74 1c-.08 0-.08.11 0 .15l1.67 1a.28.28 0 0 0 .25 0l1.74-1c.07-.05.08-.11 0-.15l-1.66-1a.25.25 0 0 0-.25 0zm24-9a.28.28 0 0 0 .25 0l1.74-1c.07-.05.08-.11 0-.15L150 257a.25.25 0 0 0-.25 0l-1.75 1c-.08 0-.09.11 0 .15zm-21.44 7.57l-1.74 1c-.07.05-.08.11 0 .15l1.66 1a.28.28 0 0 0 .25 0l1.74-1c.08-.05.08-.11 0-.15l-1.67-1a.28.28 0 0 0-.25-.04zM108.28 283a.34.34 0 0 0 .26 0l1.74-1c.07 0 .08-.11 0-.14l-1.66-1a.34.34 0 0 0-.26 0l-1.74 1c-.07 0-.08.11 0 .14zm-3-3.1l-1.75 1c-.07 0-.08.11 0 .15l1.66 1a.3.3 0 0 0 .26 0l1.74-1c.07-.05.08-.11 0-.15l-1.66-1a.25.25 0 0 0-.2-.03zm5.75 1.62l1.74-1c.07 0 .08-.1 0-.14l-1.67-1a.28.28 0 0 0-.25 0l-1.74 1c-.08 0-.08.11 0 .15l1.67 1a.31.31 0 0 0 .3-.04zm2.54-1.47l1.74-1c.08 0 .09-.1 0-.14l-1.67-1a.25.25 0 0 0-.25 0l-1.74 1c-.07 0-.08.11 0 .15l1.66 1a.28.28 0 0 0 .31-.06zm2.55-1.47l1.74-1c.07-.05.08-.11 0-.15l-1.66-1a.25.25 0 0 0-.25 0l-1.75 1c-.07 0-.08.11 0 .15l1.66 1a.3.3 0 0 0 .31-.03zm-8.3-.15l-1.74 1c-.08.05-.08.11 0 .15l1.67 1a.28.28 0 0 0 .25 0l1.74-1c.08-.05.08-.11 0-.15l-1.67-1a.28.28 0 0 0-.2-.03zm2.54-1.47l-1.74 1c-.07.05-.08.11 0 .15l1.66 1a.27.27 0 0 0 .26 0l1.74-1c.07 0 .08-.11 0-.15l-1.66-1a.3.3 0 0 0-.21-.03zm10.18-5.88l-1.74 1c-.08 0-.08.11 0 .15l1.67 1a.31.31 0 0 0 .25 0l1.74-1c.08 0 .08-.11 0-.14l-1.67-1a.28.28 0 0 0-.2-.04zm-2.54 1.44l-1.74 1c-.07 0-.08.11 0 .14l1.66 1a.34.34 0 0 0 .26 0l1.74-1c.07 0 .08-.11 0-.14l-1.66-1a.34.34 0 0 0-.26 0zm5.09-2.93l-1.74 1c-.07 0-.08.11 0 .15l1.66 1a.3.3 0 0 0 .26 0l1.74-1c.07 0 .08-.1 0-.14l-1.66-1a.27.27 0 0 0-.22-.01zM113 275.46l-1.74 1c-.08 0-.08.1 0 .14l1.67 1a.25.25 0 0 0 .25 0l1.74-1c.07 0 .08-.11 0-.15l-1.66-1a.28.28 0 0 0-.26.01zm2.5-1.46l-1.74 1c-.07 0-.08.1 0 .14l1.66 1a.28.28 0 0 0 .25 0l1.74-1c.08 0 .08-.11 0-.15l-1.67-1a.31.31 0 0 0-.24.01zm-3.25 9.57l1.74-1c.08 0 .08-.11 0-.14l-1.67-1a.27.27 0 0 0-.25 0l-1.74 1c-.07 0-.08.11 0 .14l1.66 1a.31.31 0 0 0 .26-.01zm-13.41-.64l-1.67-1a.31.31 0 0 0-.25 0l-1.74 1c-.07 0-.08.1 0 .14l1.66 1a.28.28 0 0 0 .25 0l1.74-1c.07-.07.07-.07.01-.15zm3.32.84l-1.67-1a.28.28 0 0 0-.25 0l-2.68 1.55c-.07 0-.08.11 0 .15l1.67 1a.28.28 0 0 0 .25 0l2.68-1.55c.05-.06.06-.13 0-.16zM96.35 281l-1.66-1a.31.31 0 0 0-.25 0l-2.15 1.24c-.07 0-.08.11 0 .15l1.66 1a.3.3 0 0 0 .26 0l2.14-1.24c.06-.02.07-.09 0-.15zm1.65-.95a.28.28 0 0 0 .25 0l1.74-1c.07 0 .08-.1 0-.14l-1.66-1a.25.25 0 0 0-.25 0l-1.74 1c-.08 0-.08.11 0 .15zm7.2 4.66l-1.66-1a.28.28 0 0 0-.25 0l-3.35 1.93c-.08 0-.08.11 0 .15l1.67 1a.28.28 0 0 0 .25 0l3.35-1.93c.05-.01.06-.08-.01-.12zm1.18 2.07l-1.67-1a.28.28 0 0 0-.25 0l-2.14 1.24c-.08 0-.08.11 0 .14l1.67 1a.28.28 0 0 0 .25 0l2.14-1.24c.06 0 .06-.07 0-.11zm10.53-17.65a.28.28 0 0 0 .25 0l1.74-1c.08 0 .08-.1 0-.14l-1.67-1a.28.28 0 0 0-.25 0l-1.74 1c-.07 0-.08.11 0 .15zm-5.09 2.93a.3.3 0 0 0 .26 0l1.74-1c.07 0 .08-.11 0-.14l-1.66-1a.34.34 0 0 0-.26 0l-1.74 1c-.07 0-.08.11 0 .14zm-11.28 6.52a.28.28 0 0 0 .25 0l1.74-1c.08-.05.08-.11 0-.15l-1.67-1a.25.25 0 0 0-.25 0l-1.74 1c-.07 0-.08.11 0 .15zm13.83-8a.31.31 0 0 0 .25 0l1.74-1c.07 0 .08-.11 0-.14l-1.66-1a.31.31 0 0 0-.25 0l-1.74 1c-.08 0-.08.11 0 .14zm-5.09 2.93a.25.25 0 0 0 .25 0l1.74-1c.08 0 .08-.11 0-.15l-1.67-1a.28.28 0 0 0-.25 0l-1.74 1c-.08 0-.08.1 0 .14zm-1.65 13.36a.3.3 0 0 0-.26 0l-2.67 1.55c-.08 0-.08.11 0 .15l1.67 1a.28.28 0 0 0 .25 0l2.68-1.55c.07 0 .08-.1 0-.14zm-2-11.25a.25.25 0 0 0 .25 0l1.74-1c.08-.05.08-.11 0-.15l-1.67-1a.28.28 0 0 0-.25 0l-1.74 1c-.08.05-.08.11 0 .15zm-2.55 1.47a.3.3 0 0 0 .26 0l1.74-1c.07-.05.08-.11 0-.15l-1.66-1a.3.3 0 0 0-.26 0l-1.74 1c-.07.05-.08.11 0 .15zm51.68-17.43a.3.3 0 0 0-.26 0l-4.28 2.48c-.07 0-.08.11 0 .14l1.67 1a.31.31 0 0 0 .25 0l4.29-2.48c.07 0 .08-.11 0-.14zm-5.63 3.34a.28.28 0 0 0-.25 0l-1.74 1c-.07 0-.08.1 0 .14l1.67 1a.25.25 0 0 0 .25 0l1.74-1c.08 0 .08-.11 0-.15zm-34.33 19.09l1.74-1c.07 0 .08-.1 0-.14l-1.66-1a.25.25 0 0 0-.25 0l-1.75 1c-.07 0-.08.11 0 .15l1.66 1a.3.3 0 0 0 .26-.01zm29.2-16.2a.28.28 0 0 0-.25 0l-1.74 1c-.07.05-.08.11 0 .15l1.66 1a.28.28 0 0 0 .25 0l1.75-1c.07-.05.08-.11 0-.15zm13.26-7.65a.25.25 0 0 0-.25 0l-1.74 1c-.08 0-.08.11 0 .15l1.67 1a.28.28 0 0 0 .25 0l1.74-1c.07 0 .08-.1 0-.14zm4.21-.51l-4-2.34a.34.34 0 0 0-.26 0l-1.74 1c-.07 0-.08.11 0 .14l4 2.34a.28.28 0 0 0 .25 0l1.74-1c.11-.04.11-.1.05-.14zm-27 13.65a.25.25 0 0 0-.25 0l-2.15 1.23c-.07.05-.08.11 0 .15l1.66 1a.3.3 0 0 0 .26 0l2.14-1.23c.07-.05.08-.11 0-.15zm6.43-3.71a.27.27 0 0 0-.26 0l-2.64 1.55c-.07 0-.08.11 0 .15l1.67 1a.28.28 0 0 0 .25 0l2.68-1.55c.07 0 .08-.1 0-.14zm-12.32 7.11a.3.3 0 0 0-.26 0L114 283.05c-.08 0-.08.11 0 .15l1.67 1a.31.31 0 0 0 .25 0l14.33-8.27c.07-.05.08-.11 0-.15zm-15.13 8.73a.31.31 0 0 0-.25 0l-2.15 1.24c-.07 0-.08.11 0 .15l1.66 1a.3.3 0 0 0 .26 0l2.14-1.24c.07 0 .08-.11 0-.14zm18.07-10.43a.25.25 0 0 0-.25 0l-2.14 1.23c-.08.05-.08.11 0 .15l1.67 1a.25.25 0 0 0 .25 0l2.14-1.23c.08-.05.08-.11 0-.15zm-21 12.13a.31.31 0 0 0-.25 0l-2.14 1.24c-.08 0-.08.11 0 .15l1.67 1a.28.28 0 0 0 .25 0l2.14-1.24c.08 0 .08-.11 0-.14zm26.91-15.53a.25.25 0 0 0-.25 0l-2.14 1.23c-.07.05-.08.11 0 .15l1.67 1a.28.28 0 0 0 .25 0l2.14-1.24c.08 0 .09-.1 0-.14zm9.11-5.26a.28.28 0 0 0-.25 0l-1.74 1c-.08.05-.09.11 0 .15l1.67 1a.25.25 0 0 0 .25 0l1.74-1c.07 0 .08-.11 0-.15zm5.7-4l1.74-1c.07 0 .08-.11 0-.15l-1.66-1a.3.3 0 0 0-.26 0l-1.74 1c-.07 0-.08.1 0 .14l1.66 1a.27.27 0 0 0 .31.03zm-10.38.5l1.74-1c.07 0 .08-.11 0-.15l-1.66-1a.3.3 0 0 0-.26 0l-1.74 1c-.07 0-.08.1 0 .14l1.66 1a.27.27 0 0 0 .31.03zm-6.76 9.4l5.09-2.94c.07 0 .08-.11 0-.14l-1.66-1a.34.34 0 0 0-.26 0l-5.08 2.94c-.08 0-.08.11 0 .15l1.67 1a.28.28 0 0 0 .29.01zm14.34-8.42a.25.25 0 0 0 .25 0l1.74-1c.08 0 .08-.11 0-.15l-1.67-1a.28.28 0 0 0-.25 0l-1.74 1c-.07.05-.08.11 0 .15zm-2.13-1.38l1.75-1c.07 0 .08-.1 0-.14l-1.67-1a.25.25 0 0 0-.25 0l-1.74 1c-.07 0-.08.11 0 .15l1.66 1a.28.28 0 0 0 .3.01zm-14.75 11.27l1.74-1c.07 0 .08-.11 0-.14l-1.66-1a.3.3 0 0 0-.26 0l-1.74 1c-.07 0-.08.11 0 .14l1.66 1a.34.34 0 0 0 .31.02zm11.26-6.64a.28.28 0 0 0 .25 0l1.74-1c.07 0 .08-.1 0-.14l-1.67-1a.25.25 0 0 0-.25 0l-1.74 1c-.08 0-.08.11 0 .15zm-24 14l1.74-1c.07 0 .08-.11 0-.15l-1.56-1a.3.3 0 0 0-.26 0l-1.74 1c-.07.05-.08.11 0 .15l1.66 1a.3.3 0 0 0 .23 0zm2.54-1.47l1.74-1c.07-.05.08-.11 0-.15l-1.66-1a.28.28 0 0 0-.25 0l-1.74 1c-.08.05-.08.11 0 .15l1.67 1a.25.25 0 0 0 .31 0zm-5.09 2.94l1.74-1c.08-.05.08-.11 0-.15l-1.67-1a.25.25 0 0 0-.25 0l-1.74 1c-.08 0-.08.11 0 .15l1.67 1a.28.28 0 0 0 .32 0zm10.18-5.87l1.74-1c.07 0 .08-.11 0-.15l-1.66-1a.3.3 0 0 0-.26 0l-1.74 1c-.07 0-.08.1 0 .14l1.66 1a.3.3 0 0 0 .33.01zm-2.45 1.46l1.74-1c.08 0 .08-.11 0-.15l-1.67-1a.28.28 0 0 0-.25 0l-1.74 1c-.07 0-.08.1 0 .14l1.66 1a.25.25 0 0 0 .26.01zm5.09-2.93l1.74-1c.08 0 .08-.11 0-.14l-1.67-1a.31.31 0 0 0-.25 0l-1.74 1c-.08 0-.08.11 0 .14l1.67 1a.31.31 0 0 0 .22 0zm13.88-20.44a.3.3 0 0 0 .26 0l1.74-1c.07 0 .08-.11 0-.15l-.44-.25a.25.25 0 0 0-.25 0l-1.74 1c-.08.05-.09.11 0 .15zm-12.64 8a.28.28 0 0 0 .25 0l1.74-1c.08 0 .08-.11 0-.15l-1.67-1a.25.25 0 0 0-.25 0l-1.74 1c-.07.05-.08.11 0 .15zm5.09-2.94a.25.25 0 0 0 .25 0l1.74-1c.07 0 .08-.11 0-.15l-1.67-1a.28.28 0 0 0-.25 0l-1.74 1c-.08 0-.08.1 0 .14zm-8.2 4.73a.27.27 0 0 0 .26 0l1.74-1c.07 0 .08-.11 0-.15l-1.66-1a.3.3 0 0 0-.26 0l-1.74 1c-.07 0-.08.1 0 .14zm5.65-3.26a.27.27 0 0 0 .26 0l1.74-1c.07-.05.08-.11 0-.15l-1.66-1a.3.3 0 0 0-.26 0l-1.74 1c-.07.05-.08.11 0 .15zm-10.73 6.2a.28.28 0 0 0 .25 0l1.74-1c.07-.05.08-.11 0-.15l-1.66-1a.28.28 0 0 0-.25 0l-1.75 1c-.07 0-.08.11 0 .15zm2.54-1.47a.25.25 0 0 0 .25 0l1.74-1c.08 0 .08-.11 0-.15L126 262a.28.28 0 0 0-.25 0l-1.75 1c-.08.05-.08.11 0 .15zm13.21-8.33a.25.25 0 0 0 .25 0l1.74-1c.07 0 .08-.11 0-.15l-.44-.25a.28.28 0 0 0-.25 0l-1.74 1c-.08 0-.08.11 0 .15zm7.63-4.4a.31.31 0 0 0 .25 0l1.74-1c.07 0 .08-.11 0-.14l-.45-.26a.28.28 0 0 0-.25 0l-1.74 1c-.07.05-.08.11 0 .15zm3.5 2a.31.31 0 0 0 .25 0l1.74-1c.07 0 .08-.11 0-.14l-1.66-1a.31.31 0 0 0-.25 0l-1.74 1c-.08 0-.09.11 0 .14zm4.84 5.58l1.74-1c.08 0 .08-.11 0-.15l-1.67-1a.31.31 0 0 0-.25 0l-1.74 1c-.08 0-.08.1 0 .14l1.67 1a.28.28 0 0 0 .22.06zm-13.43-4.67a.25.25 0 0 0 .25 0l1.74-1c.08 0 .08-.11 0-.15l-.45-.25a.25.25 0 0 0-.25 0l-1.74 1c-.07 0-.08.11 0 .15zm-20.84 12.74a.28.28 0 0 0 .25 0l1.74-1c.08-.05.09-.11 0-.15l-1.67-1a.25.25 0 0 0-.25 0l-1.74 1c-.07 0-.08.11 0 .15z"/><path id="J" d="M406.76 89.22l-8.16 4.69-9.55-.83a.72.72 0 0 0-.33 0l8.09-4.65a.74.74 0 0 1 .4-.08z"/><path id="K" d="M422.26 189.28l.69-.1a2.68 2.68 0 0 0 1.49-.71l24.38-29.73a.71.71 0 0 0-.07-1l-15.05-11.95a2.41 2.41 0 0 0-1.57-.29l-.69.1a2.74 2.74 0 0 0-1.5.71L405.56 176a.71.71 0 0 0 .08 1l15.05 12a2.38 2.38 0 0 0 1.57.28z"/><path id="L" d="M446.09 159.12l-24.38 29.73a.74.74 0 0 1-1 .14l-15.05-11.94a.71.71 0 0 1-.08-1l24.38-29.73a.74.74 0 0 1 1-.14L446 158.11a.7.7 0 0 1 .09 1.01z"/><path id="M" d="M369 336.41c-.1 2.36-.6 7.54 2.58 12.7 1.47 2.39 5.25 5 7.31 6.78 4.39 3.87 4.93 4.58 5.23 9.1.31 4.71-16.89 3.87-20.05 1.4a20.91 20.91 0 0 1-7.18-9A67.21 67.21 0 0 0 353 350c-1.5-2.54-4.24-5.37-4.43-8.05-.1-1.47 1.25-4.27 2.57-6.58 1.21-2.13 2.47-4.15 3.65-4l-.28 1.19a8.66 8.66 0 0 0 3.61 1.93c.63.2 1.4 4.86 2.12 4.85s-.42-2.82.89-2.46c5.47 1.47 7.87-.47 7.87-.47z"/><path id="N" d="M364.18 358.73c1.22 3.24 4.41 11.87 10.36 15.92 4.73 3.22 11.07 6.81 13.13 10.86 2.14 4.21-7.1 7-11.11 6.91-3.12-.1-7.26-.11-10.37-2.06a27.3 27.3 0 0 1-4.29-3.3c-2.64-2.45-4.55-5.52-6.46-7.46s-6-3.84-7.2-6.23c-.67-1.32-.54-4.42-.23-7.08.28-2.43.08-4.7 1.24-5l.2 1.41a24.41 24.41 0 0 0 4.66.06c.65-.06 2.11 1.85 2.76 1.56s-.62-1.76.14-2.88c2.48-3.66 7.17-2.71 7.17-2.71z"/></defs></svg>