<svg xmlns="http://www.w3.org/2000/svg" viewBox="0 0 500 500"><g id="freepik--Floor--inject-2"><ellipse id="freepik--floor--inject-2" cx="250.53" cy="343.52" rx="222.47" ry="128.44" style="fill:#f5f5f5"></ellipse></g><g id="freepik--Shadow--inject-2"><path id="freepik--shadow--inject-2" d="M42.22,378.67l126.5,73.07a4.38,4.38,0,0,0,3.93,0l211-121.81a1.19,1.19,0,0,0,0-2.26l-126.5-73.08a4.41,4.41,0,0,0-3.94,0L42.22,376.4A1.2,1.2,0,0,0,42.22,378.67Z" style="fill:#e6e6e6"></path><ellipse id="freepik--shadow--inject-2" cx="361.64" cy="368.15" rx="60.66" ry="35.02" style="fill:#e6e6e6"></ellipse></g><g id="freepik--Window--inject-2"><g id="freepik--window--inject-2"><g id="freepik--window--inject-2"><polygon points="63.16 189.54 67.49 192.04 175.87 129.47 171.53 126.97 63.16 189.54" style="fill:#f5f5f5"></polygon><polygon points="121.68 69.87 121.68 158.26 126.02 155.75 126.02 67.37 121.68 69.87" style="fill:#ebebeb"></polygon><polygon points="119.51 68.61 121.68 69.87 121.68 158.26 119.51 157 119.51 68.61" style="fill:#e0e0e0"></polygon><polygon points="121.68 69.87 126.02 67.37 123.85 66.11 119.51 68.61 121.68 69.87" style="fill:#fafafa"></polygon><path d="M180.2,33.57l-117,67.58v98.4L180.2,132Zm-4.33,95.9L67.49,192V103.65L175.87,41.08Z" style="fill:#ebebeb"></path><polygon points="175.87 129.47 171.53 126.97 171.53 43.58 175.87 41.08 175.87 129.47" style="fill:#e0e0e0"></polygon><polygon points="180.2 33.57 175.87 31.07 58.82 98.65 63.16 101.15 180.2 33.57" style="fill:#f5f5f5"></polygon><polygon points="58.82 98.65 63.16 101.15 63.16 199.55 58.82 197.05 58.82 98.65" style="fill:#e0e0e0"></polygon><polygon points="121.68 72.37 126 69.87 126 72.37 121.68 74.87 121.68 72.37" style="opacity:0.1"></polygon><polygon points="121.68 74.87 119.51 73.62 121.68 72.37 121.68 74.87" style="opacity:0.1"></polygon></g></g></g><g id="freepik--Desk--inject-2"><g id="freepik--desk--inject-2"><g id="freepik--Table--inject-2"><path d="M167.16,325V433.29a2.37,2.37,0,0,0,1.08,1.87l2.29,1.33a2.41,2.41,0,0,0,2.16,0l2.3-1.33a2.39,2.39,0,0,0,1.08-1.87V325c0-.69-.49-1-1.08-.63l-2.3,1.33a2.41,2.41,0,0,1-2.16,0l-2.29-1.33C167.64,324,167.16,324.28,167.16,325Z" style="fill:#37474f"></path><path d="M172.69,436.49l2.3-1.33a2.39,2.39,0,0,0,1.08-1.87V325c0-.69-.49-1-1.08-.63l-2.3,1.33a2.39,2.39,0,0,0-1.08,1.87V435.87C171.61,436.55,172.1,436.83,172.69,436.49Z" style="fill:#455a64"></path><path d="M69.23,268.39V376.72a2.37,2.37,0,0,0,1.08,1.87l2.3,1.33a2.41,2.41,0,0,0,2.16,0l2.29-1.33a2.37,2.37,0,0,0,1.08-1.87V268.39c0-.68-.48-1-1.08-.62l-2.29,1.33a2.41,2.41,0,0,1-2.16,0l-2.3-1.33C69.71,267.43,69.23,267.71,69.23,268.39Z" style="fill:#37474f"></path><path d="M74.77,379.92l2.29-1.33a2.37,2.37,0,0,0,1.08-1.87V268.39c0-.68-.48-1-1.08-.62l-2.29,1.33A2.37,2.37,0,0,0,73.69,271V379.29C73.69,380,74.17,380.26,74.77,379.92Z" style="fill:#455a64"></path><path d="M345.88,222.41V330.74a2.37,2.37,0,0,0,1.08,1.87l2.29,1.33a2.38,2.38,0,0,0,2.16,0l2.3-1.32a2.37,2.37,0,0,0,1.08-1.87V222.41c0-.69-.48-1-1.08-.62l-2.3,1.32a2.35,2.35,0,0,1-2.16,0L347,221.79C346.36,221.44,345.88,221.72,345.88,222.41Z" style="fill:#37474f"></path><path d="M351.41,333.93l2.3-1.32a2.37,2.37,0,0,0,1.08-1.87V222.41c0-.69-.48-1-1.08-.62l-2.3,1.32a2.41,2.41,0,0,0-1.08,1.87V333.31C350.33,334,350.82,334.28,351.41,333.93Z" style="fill:#455a64"></path><g id="freepik--desk--inject-2"><path d="M47.92,276v-.79a4.34,4.34,0,0,1,2-3.4l219-126.47a4.32,4.32,0,0,1,3.93,0l106.24,61.36a4.35,4.35,0,0,1,2,3.4v.79a4.37,4.37,0,0,1-2,3.4l-219,126.47a4.41,4.41,0,0,1-3.94,0L49.89,279.41A4.34,4.34,0,0,1,47.92,276Z" style="fill:#D6B8FE"></path><g style="opacity:0.7000000000000001"><path d="M47.92,276v-.79a4.34,4.34,0,0,1,2-3.4l219-126.47a4.32,4.32,0,0,1,3.93,0l106.24,61.36a4.35,4.35,0,0,1,2,3.4v.79a4.37,4.37,0,0,1-2,3.4l-219,126.47a4.41,4.41,0,0,1-3.94,0L49.89,279.41A4.34,4.34,0,0,1,47.92,276Z" style="fill:#fff"></path></g><path d="M158.09,335.92v5.32a4.1,4.1,0,0,1-2-.47L49.89,279.42a4.36,4.36,0,0,1-2-3.41v-.79a4.35,4.35,0,0,1,1.61-3.14c-.71.6-.59,1.45.36,2l106.23,61.36A4,4,0,0,0,158.09,335.92Z" style="fill:#D6B8FE"></path><g style="opacity:0.6000000000000001"><path d="M158.09,335.92v5.32a4.1,4.1,0,0,1-2-.47L49.89,279.42a4.36,4.36,0,0,1-2-3.41v-.79a4.35,4.35,0,0,1,1.61-3.14c-.71.6-.59,1.45.36,2l106.23,61.36A4,4,0,0,0,158.09,335.92Z" style="fill:#fff"></path></g><path d="M49.89,274.09l106.23,61.35a4.34,4.34,0,0,0,3.94,0L379.09,209a1.2,1.2,0,0,0,0-2.27L272.85,145.35a4.32,4.32,0,0,0-3.93,0l-219,126.47A1.2,1.2,0,0,0,49.89,274.09Z" style="fill:#D6B8FE"></path><g style="opacity:0.8"><path d="M49.89,274.09l106.23,61.35a4.34,4.34,0,0,0,3.94,0L379.09,209a1.2,1.2,0,0,0,0-2.27L272.85,145.35a4.32,4.32,0,0,0-3.93,0l-219,126.47A1.2,1.2,0,0,0,49.89,274.09Z" style="fill:#fff"></path></g></g></g><g id="freepik--Keyboard--inject-2"><path id="freepik--shadow--inject-2" d="M198.37,245.46l23.24,13.46a2.86,2.86,0,0,0,2.61,0l68.67-39.59a.8.8,0,0,0,0-1.51l-23.24-13.45a2.89,2.89,0,0,0-2.61,0L198.37,244A.79.79,0,0,0,198.37,245.46Z" style="opacity:0.05"></path><g id="freepik--keyboard--inject-2"><path d="M291.48,215.44a.91.91,0,0,0-.54-.75L269.1,202.08a2.9,2.9,0,0,0-2.6,0l-66.63,38.53a.92.92,0,0,0-.54.76v2.29a.92.92,0,0,0,.54.75L221.69,257a2.86,2.86,0,0,0,2.61,0l66.64-38.47a.92.92,0,0,0,.54-.75Z" style="fill:#ebebeb"></path><path d="M221.69,254.66l-21.82-12.54a.8.8,0,0,1,0-1.51l66.63-38.53a2.9,2.9,0,0,1,2.6,0l21.84,12.61c.72.41.72,1.08,0,1.5L224.3,254.66A2.86,2.86,0,0,1,221.69,254.66Z" style="fill:#fff"></path><path d="M222.91,255v2.35a2.57,2.57,0,0,1-1.22-.31l-21.82-12.6a.92.92,0,0,1-.54-.75v-2.3a.92.92,0,0,0,.54.75l21.82,12.56A2.68,2.68,0,0,0,222.91,255Z" style="fill:#e0e0e0"></path><path d="M223.09,252.68H223l-2.16-1.25,2.93-1.69L226,251l-2.92,1.7Zm-3.39-2h0l-2.16-1.25,2.3-1.33L222,249.4l-2.3,1.32Zm7.48-.42h0L225,249.06l2.31-1.33,2.23,1.25-2.3,1.33Zm-10.86-1.54h0l-2.16-1.24,3.72-2.15,2.24,1.25-3.72,2.15Zm6.85-.05h0L221,247.47l1.83-1.06,2.24,1.26-1.83,1.05Zm7.48-.41h-.05l-2.16-1.24,2.3-1.33L233,247l-2.3,1.33ZM226.17,247h-.06L224,245.74l1.83-1.06,2.24,1.26L226.19,247Zm-13.23-.18h-.05l-2.16-1.25,2.93-1.69,2.24,1.26L213,246.82Zm21.18-.51h-.05l-2.16-1.25,16.64-9.6,2.23,1.26-16.64,9.6ZM221.21,246h-.05L219,244.7l1.83-1.06,2.23,1.26-1.83,1Zm7.95-.68h0L227,244l1.83-1,2.23,1.25-1.82,1.06Zm-19.6-.41h-.05l-2.17-1.25,1.83-1.06,2.24,1.26-1.83,1.05Zm7.47-.41h0l-2.17-1.24,1.83-1.06,2.24,1.26-1.83,1Zm7.17-.23h0L222,243l1.83-1.06,2.23,1.26-1.82,1.05Zm8-.68h-.05l-2.16-1.25,1.83-1.05,2.24,1.25-1.83,1.06Zm-19.6-.4h-.05l-2.16-1.25,1.83-1.06,2.23,1.26-1.82,1Zm7.48-.41H220l-2.16-1.25,1.83-1.06,2.23,1.26-1.82,1.05Zm7.16-.23h-.05L225,241.24l1.83-1.06,2.24,1.26-1.83,1.05Zm-21.74,0h0l-2.16-1.25,2.3-1.33,2.24,1.26-2.3,1.32Zm29.69-.68h0l-2.16-1.25,1.83-1.05,2.24,1.25-1.83,1.06Zm-19.6-.4h0l-2.16-1.25,1.83-1.05,2.24,1.25-1.83,1.06ZM223,241H223l-2.16-1.25,1.83-1.06,2.24,1.26L223.05,241Zm7.17-.23h-.05L228,239.51l1.83-1,2.23,1.25-1.83,1.06Zm7.95-.69s0,0,0,0l-2.16-1.24,1.83-1.06L240,239l-1.82,1.05Zm-27.92-.34s-.05,0-.05,0L208,238.48l1.83-1,2.23,1.26-1.82,1.05Zm8.32-.06h0l-2.16-1.25,1.82-1,2.24,1.25-1.83,1.06Zm7.48-.41H226L223.8,238l1.83-1,2.24,1.25L226,239.27Zm7.16-.23h-.05L231,237.78l1.83-1.05L235,238,233.21,239Zm7.95-.68h0l-2.16-1.25,1.83-1.06L243,237.3l-1.83,1ZM213.21,238h-.05L211,236.76l1.83-1.06,2.24,1.26-1.83,1Zm8.32-.06h-.05l-2.16-1.24,1.83-1.06,2.23,1.26-1.82,1Zm7.48-.41h0l-2.16-1.25,1.83-1.05,2.23,1.25L229,237.54Zm7.16-.23h0L234,236.05l1.83-1.05,2.24,1.25-1.83,1.06Zm8-.68h0l-2.17-1.25,1.84-1.06,2.23,1.26-1.83,1.05Zm-27.92-.34h0L214,235l1.82-1.06,2.24,1.26-1.83,1.05Zm8.32-.07h-.05L222.31,235l1.83-1.06,2.24,1.26-1.83,1.05Zm27.4-.19h0l-2.16-1.24,2.3-1.33,2.24,1.25L252,236ZM232,235.81H232l-2.16-1.24,1.83-1.06,2.24,1.26L232,235.81Zm7.17-.23s0,0,0,0L237,234.33l1.83-1.06,2.23,1.26-1.83,1.05Zm8-.68h-.05l-2.16-1.25,1.83-1,2.23,1.25-1.82,1.06Zm-27.92-.34h0L217,233.3l1.83-1.06,2.23,1.26-1.82,1.06Zm8.32-.06h-.05l-2.16-1.25,1.83-1.06,2.23,1.26-1.83,1.05Zm7.48-.42H235l-2.17-1.25,1.84-1.06,2.23,1.26L235,234.08Zm20.39-.05h0l-2.16-1.25,2.3-1.32,2.23,1.25-2.3,1.33Zm-13.23-.17h0L240,232.6l1.83-1.06L244,232.8l-1.82,1Zm8-.69h-.05l-2.16-1.25,1.83-1,2.24,1.25-1.83,1.06Zm-19.6-.4h0l-2.16-1.25,1.83-1,2.23,1.25-1.82,1.06Zm7.48-.41h-.05l-2.16-1.25,1.83-1.06,2.23,1.26-1.82,1Zm7.16-.23h0l-2.17-1.25,1.83-1.06,2.24,1.26-1.83,1.05Zm-21.66,0h0l-2.17-1.25,1.83-1.06,2.24,1.26-1.83,1Zm35.36-.05h-.05l-2.16-1.25,2.3-1.33,2.24,1.26-2.3,1.33Zm-5.75-.59h0l-2.16-1.25,1.83-1.05,2.23,1.26-1.83,1.05Zm-19.6-.4h-.05l-2.16-1.25,1.83-1.05,2.24,1.25L233.53,231Zm7.48-.41h0l-2.16-1.25,1.83-1.06,2.24,1.26L241,230.63Zm7.17-.23h-.05l-2.16-1.25,1.83-1,2.23,1.25-1.83,1.06Zm-21.66-.05h-.05l-2.16-1.25,1.83-1.05,2.23,1.25-1.83,1.06Zm35.83-.32h-.05l-2.16-1.25,2.93-1.69,2.23,1.26L262.35,230Zm-6.22-.32h-.05l-2.16-1.24,5.77-3.33,2.23,1.25-5.76,3.33Zm-19.6-.4h-.05l-2.16-1.25,1.83-1.05,2.23,1.25-1.83,1.06Zm7.48-.41h0l-2.16-1.25,1.83-1,2.23,1.25L244,228.9Zm7.16-.23h0l-2.16-1.25,1.83-1,2.23,1.25-1.82,1.06Zm-21.66,0h0l-2.16-1.25,1.83-1.05,2.23,1.25-1.82,1.06Zm10-1h-.05l-2.16-1.24,1.83-1.06,2.23,1.26-1.82,1.05ZM267,227.3s0,0,0,0L264.83,226l1.83-1,2.24,1.25-1.83,1.06ZM247,227.17h-.05l-2.16-1.25,1.83-1,2.23,1.25L247,227.17Zm7.16-.23h0l-2.17-1.25,1.68-1a.35.35,0,0,0,0-.62l-2.83-1.64,2.14-1.24,5.62,3.21-4.35,2.51Zm-21.66-.05h0l-2.17-1.24,1.83-1.06,2.24,1.26-1.83,1Zm10-1h0l-2.16-1.25,1.83-1.06,2.24,1.26-1.83,1Zm27.56-.28H270l-2.16-1.24,1.83-1.06,2.23,1.26-1.83,1ZM250,225.44h-.05l-2.16-1.24,1.83-1.06,2.24,1.26L250,225.44Zm-13.19-1h-.05l-2.16-1.24,1.83-1.06,2.23,1.26-1.82,1Zm8.71-.28h0l-2.16-1.25,1.83-1.06,2.23,1.26-1.83,1.05Zm27.55-.29h0l-2.16-1.24,1.83-1.06,2.24,1.26-1.83,1.05Zm-6.38-.22h0l-2.16-1.25,1.83-1.05,2.24,1.25-1.83,1.06Zm-26.89-.94h0l-2.16-1.24,1.83-1.06,2.24,1.26-1.83,1.05Zm8.71-.28h-.05l-2.16-1.25,3.25-1.87,2.23,1.25-3.24,1.88Zm28.18-.65h0l-2.17-1.24,4.83-2.79L281.5,219l-4.82,2.78Zm-19.76-.31h-.05l-2.16-1.25,1.83-1.05,2.24,1.25-1.83,1.06ZM242.76,221h0l-2.16-1.25,1.83-1.06,2.23,1.26-1.83,1Zm30.51-1.16h0l-2.16-1.25,1.83-1,2.24,1.25-1.83,1.06Zm-13.38-.09s-.05,0-.05,0l-2.16-1.24,1.83-1.06,2.23,1.26-1.82,1.05Zm-6.38-.22h0l-2.16-1.25,1.83-1.06,2.23,1.26-1.82,1.06Zm-7.76-.26h-.05L243.54,218l1.83-1.06,2.23,1.26-1.82,1.05Zm36.89-.93h-.05L280.43,217l1.83-1.06,2.24,1.26-1.83,1Zm-6.38-.23h-.05l-2.16-1.25,1.83-1.05,2.24,1.25-1.83,1.06ZM262.88,218h-.05l-2.16-1.25,1.83-1.06,2.24,1.26-1.83,1Zm7-.13h-.05l-2.16-1.25,1.83-1.06,2.23,1.26-1.82,1.05Zm-13.39-.09h-.05l-2.16-1.25,1.83-1.05,2.24,1.25-1.83,1.06Zm-7.09-.64h0l-2.17-1.25L249,214.8l2.24,1.26-1.83,1.05Zm36.22-.55h-.05l-5.54-3.2,1.83-1.06,5.62,3.21-1.83,1.06Zm-6.37-.23h-.05l-2.16-1.24,1.83-1.06,2.23,1.26-1.82,1.05Zm-6.38-.22h-.05l-2.16-1.25,1.83-1.05,2.24,1.25-1.83,1.06ZM259.5,216h-.05l-2.16-1.25,1.83-1.05,2.23,1.25L259.53,216Zm7-.14h-.05l-2.17-1.24,1.83-1.06,2.24,1.26-1.83,1Zm-14.11-.5h-.05l-2.16-1.25,1.83-1,2.23,1.25-1.82,1.06Zm23.48-1h-.05l-2.17-1.25,1.83-1,2.24,1.25-1.83,1.06Zm-6.38-.23h-.05l-2.16-1.25,1.83-1.06,2.23,1.26-1.82,1Zm-6.38-.22h-.05l-2.16-1.25,1.83-1.05,2.24,1.25-1.83,1.06Zm-7.73-.28h0l-2.16-1.25,1.83-1.05,2.24,1.25-1.83,1.06Zm23.48-1h-.05l-5.55-3.2,1.83-1,5.62,3.2-1.82,1.06Zm-6.38-.22h-.05l-2.16-1.25,1.83-1.06,2.24,1.26-1.83,1.05Zm-6.38-.23s0,0,0,0L263.91,211l1.82-1,2.24,1.25-1.83,1.06Zm-8-1.14h0l-.94-.53,1.83-1.06,1,.54-1.82,1.05Zm11-.59h-.05l-2.16-1.24,1.83-1.06,2.23,1.26-1.82,1Zm-8-1.14h-.05l-.94-.53,1.83-1.06,1,.55-1.82,1.05Zm11-.59h-.05l-2.16-1.25,1.83-1.06L274,207.7l-1.83,1.05Zm-8-1.14h-.05l-.93-.53L265,206l1,.55-1.82,1.05Zm3-1.73h-.05l-.94-.53,1.83-1.05,1,.54-1.82,1Z" style="fill:#D6B8FE"></path><path d="M223.09,252.68H223l-2.16-1.25,2.93-1.69L226,251l-2.92,1.7Zm-3.39-2h0l-2.16-1.25,2.3-1.33L222,249.4l-2.3,1.32Zm7.48-.42h0L225,249.06l2.31-1.33,2.23,1.25-2.3,1.33Zm-10.86-1.54h0l-2.16-1.24,3.72-2.15,2.24,1.25-3.72,2.15Zm6.85-.05h0L221,247.47l1.83-1.06,2.24,1.26-1.83,1.05Zm7.48-.41h-.05l-2.16-1.24,2.3-1.33L233,247l-2.3,1.33ZM226.17,247h-.06L224,245.74l1.83-1.06,2.24,1.26L226.19,247Zm-13.23-.18h-.05l-2.16-1.25,2.93-1.69,2.24,1.26L213,246.82Zm21.18-.51h-.05l-2.16-1.25,16.64-9.6,2.23,1.26-16.64,9.6ZM221.21,246h-.05L219,244.7l1.83-1.06,2.23,1.26-1.83,1Zm7.95-.68h0L227,244l1.83-1,2.23,1.25-1.82,1.06Zm-19.6-.41h-.05l-2.17-1.25,1.83-1.06,2.24,1.26-1.83,1.05Zm7.47-.41h0l-2.17-1.24,1.83-1.06,2.24,1.26-1.83,1Zm7.17-.23h0L222,243l1.83-1.06,2.23,1.26-1.82,1.05Zm8-.68h-.05l-2.16-1.25,1.83-1.05,2.24,1.25-1.83,1.06Zm-19.6-.4h-.05l-2.16-1.25,1.83-1.06,2.23,1.26-1.82,1Zm7.48-.41H220l-2.16-1.25,1.83-1.06,2.23,1.26-1.82,1.05Zm7.16-.23h-.05L225,241.24l1.83-1.06,2.24,1.26-1.83,1.05Zm-21.74,0h0l-2.16-1.25,2.3-1.33,2.24,1.26-2.3,1.32Zm29.69-.68h0l-2.16-1.25,1.83-1.05,2.24,1.25-1.83,1.06Zm-19.6-.4h0l-2.16-1.25,1.83-1.05,2.24,1.25-1.83,1.06ZM223,241H223l-2.16-1.25,1.83-1.06,2.24,1.26L223.05,241Zm7.17-.23h-.05L228,239.51l1.83-1,2.23,1.25-1.83,1.06Zm7.95-.69s0,0,0,0l-2.16-1.24,1.83-1.06L240,239l-1.82,1.05Zm-27.92-.34s-.05,0-.05,0L208,238.48l1.83-1,2.23,1.26-1.82,1.05Zm8.32-.06h0l-2.16-1.25,1.82-1,2.24,1.25-1.83,1.06Zm7.48-.41H226L223.8,238l1.83-1,2.24,1.25L226,239.27Zm7.16-.23h-.05L231,237.78l1.83-1.05L235,238,233.21,239Zm7.95-.68h0l-2.16-1.25,1.83-1.06L243,237.3l-1.83,1ZM213.21,238h-.05L211,236.76l1.83-1.06,2.24,1.26-1.83,1Zm8.32-.06h-.05l-2.16-1.24,1.83-1.06,2.23,1.26-1.82,1Zm7.48-.41h0l-2.16-1.25,1.83-1.05,2.23,1.25L229,237.54Zm7.16-.23h0L234,236.05l1.83-1.05,2.24,1.25-1.83,1.06Zm8-.68h0l-2.17-1.25,1.84-1.06,2.23,1.26-1.83,1.05Zm-27.92-.34h0L214,235l1.82-1.06,2.24,1.26-1.83,1.05Zm8.32-.07h-.05L222.31,235l1.83-1.06,2.24,1.26-1.83,1.05Zm27.4-.19h0l-2.16-1.24,2.3-1.33,2.24,1.25L252,236ZM232,235.81H232l-2.16-1.24,1.83-1.06,2.24,1.26L232,235.81Zm7.17-.23s0,0,0,0L237,234.33l1.83-1.06,2.23,1.26-1.83,1.05Zm8-.68h-.05l-2.16-1.25,1.83-1,2.23,1.25-1.82,1.06Zm-27.92-.34h0L217,233.3l1.83-1.06,2.23,1.26-1.82,1.06Zm8.32-.06h-.05l-2.16-1.25,1.83-1.06,2.23,1.26-1.83,1.05Zm7.48-.42H235l-2.17-1.25,1.84-1.06,2.23,1.26L235,234.08Zm20.39-.05h0l-2.16-1.25,2.3-1.32,2.23,1.25-2.3,1.33Zm-13.23-.17h0L240,232.6l1.83-1.06L244,232.8l-1.82,1Zm8-.69h-.05l-2.16-1.25,1.83-1,2.24,1.25-1.83,1.06Zm-19.6-.4h0l-2.16-1.25,1.83-1,2.23,1.25-1.82,1.06Zm7.48-.41h-.05l-2.16-1.25,1.83-1.06,2.23,1.26-1.82,1Zm7.16-.23h0l-2.17-1.25,1.83-1.06,2.24,1.26-1.83,1.05Zm-21.66,0h0l-2.17-1.25,1.83-1.06,2.24,1.26-1.83,1Zm35.36-.05h-.05l-2.16-1.25,2.3-1.33,2.24,1.26-2.3,1.33Zm-5.75-.59h0l-2.16-1.25,1.83-1.05,2.23,1.26-1.83,1.05Zm-19.6-.4h-.05l-2.16-1.25,1.83-1.05,2.24,1.25L233.53,231Zm7.48-.41h0l-2.16-1.25,1.83-1.06,2.24,1.26L241,230.63Zm7.17-.23h-.05l-2.16-1.25,1.83-1,2.23,1.25-1.83,1.06Zm-21.66-.05h-.05l-2.16-1.25,1.83-1.05,2.23,1.25-1.83,1.06Zm35.83-.32h-.05l-2.16-1.25,2.93-1.69,2.23,1.26L262.35,230Zm-6.22-.32h-.05l-2.16-1.24,5.77-3.33,2.23,1.25-5.76,3.33Zm-19.6-.4h-.05l-2.16-1.25,1.83-1.05,2.23,1.25-1.83,1.06Zm7.48-.41h0l-2.16-1.25,1.83-1,2.23,1.25L244,228.9Zm7.16-.23h0l-2.16-1.25,1.83-1,2.23,1.25-1.82,1.06Zm-21.66,0h0l-2.16-1.25,1.83-1.05,2.23,1.25-1.82,1.06Zm10-1h-.05l-2.16-1.24,1.83-1.06,2.23,1.26-1.82,1.05ZM267,227.3s0,0,0,0L264.83,226l1.83-1,2.24,1.25-1.83,1.06ZM247,227.17h-.05l-2.16-1.25,1.83-1,2.23,1.25L247,227.17Zm7.16-.23h0l-2.17-1.25,1.68-1a.35.35,0,0,0,0-.62l-2.83-1.64,2.14-1.24,5.62,3.21-4.35,2.51Zm-21.66-.05h0l-2.17-1.24,1.83-1.06,2.24,1.26-1.83,1Zm10-1h0l-2.16-1.25,1.83-1.06,2.24,1.26-1.83,1Zm27.56-.28H270l-2.16-1.24,1.83-1.06,2.23,1.26-1.83,1ZM250,225.44h-.05l-2.16-1.24,1.83-1.06,2.24,1.26L250,225.44Zm-13.19-1h-.05l-2.16-1.24,1.83-1.06,2.23,1.26-1.82,1Zm8.71-.28h0l-2.16-1.25,1.83-1.06,2.23,1.26-1.83,1.05Zm27.55-.29h0l-2.16-1.24,1.83-1.06,2.24,1.26-1.83,1.05Zm-6.38-.22h0l-2.16-1.25,1.83-1.05,2.24,1.25-1.83,1.06Zm-26.89-.94h0l-2.16-1.24,1.83-1.06,2.24,1.26-1.83,1.05Zm8.71-.28h-.05l-2.16-1.25,3.25-1.87,2.23,1.25-3.24,1.88Zm28.18-.65h0l-2.17-1.24,4.83-2.79L281.5,219l-4.82,2.78Zm-19.76-.31h-.05l-2.16-1.25,1.83-1.05,2.24,1.25-1.83,1.06ZM242.76,221h0l-2.16-1.25,1.83-1.06,2.23,1.26-1.83,1Zm30.51-1.16h0l-2.16-1.25,1.83-1,2.24,1.25-1.83,1.06Zm-13.38-.09s-.05,0-.05,0l-2.16-1.24,1.83-1.06,2.23,1.26-1.82,1.05Zm-6.38-.22h0l-2.16-1.25,1.83-1.06,2.23,1.26-1.82,1.06Zm-7.76-.26h-.05L243.54,218l1.83-1.06,2.23,1.26-1.82,1.05Zm36.89-.93h-.05L280.43,217l1.83-1.06,2.24,1.26-1.83,1Zm-6.38-.23h-.05l-2.16-1.25,1.83-1.05,2.24,1.25-1.83,1.06ZM262.88,218h-.05l-2.16-1.25,1.83-1.06,2.24,1.26-1.83,1Zm7-.13h-.05l-2.16-1.25,1.83-1.06,2.23,1.26-1.82,1.05Zm-13.39-.09h-.05l-2.16-1.25,1.83-1.05,2.24,1.25-1.83,1.06Zm-7.09-.64h0l-2.17-1.25L249,214.8l2.24,1.26-1.83,1.05Zm36.22-.55h-.05l-5.54-3.2,1.83-1.06,5.62,3.21-1.83,1.06Zm-6.37-.23h-.05l-2.16-1.24,1.83-1.06,2.23,1.26-1.82,1.05Zm-6.38-.22h-.05l-2.16-1.25,1.83-1.05,2.24,1.25-1.83,1.06ZM259.5,216h-.05l-2.16-1.25,1.83-1.05,2.23,1.25L259.53,216Zm7-.14h-.05l-2.17-1.24,1.83-1.06,2.24,1.26-1.83,1Zm-14.11-.5h-.05l-2.16-1.25,1.83-1,2.23,1.25-1.82,1.06Zm23.48-1h-.05l-2.17-1.25,1.83-1,2.24,1.25-1.83,1.06Zm-6.38-.23h-.05l-2.16-1.25,1.83-1.06,2.23,1.26-1.82,1Zm-6.38-.22h-.05l-2.16-1.25,1.83-1.05,2.24,1.25-1.83,1.06Zm-7.73-.28h0l-2.16-1.25,1.83-1.05,2.24,1.25-1.83,1.06Zm23.48-1h-.05l-5.55-3.2,1.83-1,5.62,3.2-1.82,1.06Zm-6.38-.22h-.05l-2.16-1.25,1.83-1.06,2.24,1.26-1.83,1.05Zm-6.38-.23s0,0,0,0L263.91,211l1.82-1,2.24,1.25-1.83,1.06Zm-8-1.14h0l-.94-.53,1.83-1.06,1,.54-1.82,1.05Zm11-.59h-.05l-2.16-1.24,1.83-1.06,2.23,1.26-1.82,1Zm-8-1.14h-.05l-.94-.53,1.83-1.06,1,.55-1.82,1.05Zm11-.59h-.05l-2.16-1.25,1.83-1.06L274,207.7l-1.83,1.05Zm-8-1.14h-.05l-.93-.53L265,206l1,.55-1.82,1.05Zm3-1.73h-.05l-.94-.53,1.83-1.05,1,.54-1.82,1Z" style="opacity:0.5"></path></g></g><g id="freepik--PC--inject-2"><path id="freepik--shadow--inject-2" d="M157.25,234.1l-12.1-7c-2.25-1.3-2.25-3.41,0-4.71l93.14-53.78a9,9,0,0,1,8.17,0l12.09,7c2.26,1.3,2.26,3.41,0,4.71L165.41,234.1A9,9,0,0,1,157.25,234.1Z" style="opacity:0.05"></path><g id="freepik--Monitor--inject-2"><path d="M222.49,219.55,237,211.18a3.79,3.79,0,0,0,2.23-3.11c0-1.13,0-2,0-2l-17.41-9.86a3.19,3.19,0,0,1-1.44-2.49V175.87l-25.26,14.59V208.3a3.18,3.18,0,0,0,1.44,2.49l15.16,8.76A12,12,0,0,0,222.49,219.55Z" style="fill:#e6e6e6"></path><path d="M201.16,211.45v2l-4.63-2.67a3.19,3.19,0,0,1-1.44-2.49V190.46l4.81-2.77c.1,1.22.21,2.48.31,3.71l-3.38,2v13.93a3.15,3.15,0,0,0,1.44,2.49Z" style="fill:#e0e0e0"></path><path d="M196.83,207.29a3.21,3.21,0,0,0,1.44,2.5l13.42,7.75a12,12,0,0,0,10.8,0L237,209.17c3-1.72,3-4.51,0-6.23l-13.42-7.75a3.18,3.18,0,0,1-1.44-2.5V178.76l-25.27,14.6Z" style="fill:#f5f5f5"></path><path d="M226.47,196.88h0l-2.93-1.69a3.18,3.18,0,0,1-1.44-2.5V178.76l-25.27,14.6v13.93a3.21,3.21,0,0,0,1.44,2.5l2.88,1.66Z" style="fill:#ebebeb"></path><path d="M239.2,206.06v2a3.79,3.79,0,0,1-2.24,3.11l-14.46,8.36a10.83,10.83,0,0,1-5.16,1.28v-2a11,11,0,0,0,5.16-1.28L237,209.17A3.78,3.78,0,0,0,239.2,206.06Z" style="fill:#ebebeb"></path><path d="M156.27,226.53a3.87,3.87,0,0,0,3.49-.06l97.7-56.41a4,4,0,0,0,1.8-3.12V81.42a3.39,3.39,0,0,0-5.18-3l-97.7,56.41a4,4,0,0,0-1.8,3.12v85.52A3.86,3.86,0,0,0,156.27,226.53Z" style="fill:#455a64"></path><path d="M159.76,226.46l97.7-56.4a4,4,0,0,0,1.8-3.12V81.42c0-1.15-.81-1.61-1.8-1l-97.7,56.41a4,4,0,0,0-1.8,3.12v85.52C158,226.57,158.76,227,159.76,226.46Z" style="fill:#D6B8FE"></path><path d="M159.76,226.46l97.7-56.4a4,4,0,0,0,1.8-3.12V81.42c0-1.15-.81-1.61-1.8-1l-97.7,56.41a4,4,0,0,0-1.8,3.12v85.52C158,226.57,158.76,227,159.76,226.46Z" style="fill:#37474f"></path><path d="M159.49,226.6a3.37,3.37,0,0,1-4.91-3.12v-9.62l3.37,1.95v9.62C158,226.48,158.62,227,159.49,226.6Z" style="fill:#e0e0e0"></path><path d="M158,215.81v9.62c0,1.14.8,1.61,1.8,1l97.7-56.4a4,4,0,0,0,1.8-3.12v-9.62Z" style="fill:#fff"></path><path d="M161.33,208.71V141a2.39,2.39,0,0,1,1.08-1.87L254.8,85.82c.6-.35,1.08-.07,1.08.62v67.69A2.38,2.38,0,0,1,254.8,156l-92.39,53.34C161.82,209.68,161.33,209.4,161.33,208.71Z" style="fill:#D6B8FE"></path><path d="M161.33,208.71V141a2.39,2.39,0,0,1,1.08-1.87L254.8,85.82c.6-.35,1.08-.07,1.08.62v67.69A2.38,2.38,0,0,1,254.8,156l-92.39,53.34C161.82,209.68,161.33,209.4,161.33,208.71Z" style="fill:#fff;opacity:0.5"></path><path d="M166.8,140.47,249.06,93c.59-.34,1.08-.06,1.08.63v59.89a2.39,2.39,0,0,1-1.08,1.87L166.8,202.85c-.6.35-1.08.07-1.08-.62V142.34A2.37,2.37,0,0,1,166.8,140.47Z" style="fill:#fff"></path><path d="M222.05,144.65,220,144c1.62-9.59-1.64-12.26-6.68-12,2.12.95,3.77,5.82,2.76,10.76l-2-.66c-.4-.13-.93.62-.86,1.22l1,8.92c.05.41.36.51.68.22l7-6.33C222.34,145.67,222.45,144.78,222.05,144.65Z" style="fill:#D6B8FE"></path><path d="M215.19,137.88c-.38-2.87-1.56-5.14-2.94-5.76,0,0-5.19,1.14-9.26,9.2C203,141.32,209.39,134.46,215.19,137.88Z" style="fill:#D6B8FE;opacity:0.8"></path><path d="M195.69,154.94l2.05.67c-1.62,9.59,1.64,12.25,6.68,12-2.12-.95-3.77-5.81-2.77-10.75l2,.66c.4.13.93-.62.86-1.22l-1-8.92c-.05-.41-.37-.51-.69-.22l-7,6.32C195.4,153.93,195.29,154.81,195.69,154.94Z" style="fill:#D6B8FE"></path><path d="M202.55,161.71c.38,2.87,1.56,5.14,2.94,5.76,0,0,5.19-1.14,9.26-9.2C214.75,158.27,208.35,165.14,202.55,161.71Z" style="fill:#D6B8FE;opacity:0.8"></path><path d="M250.14,93.59c0-.68-.49-1-1.08-.62l-82.26,47.5a2.37,2.37,0,0,0-1.08,1.87v4.6L250.14,98.2Z" style="fill:#e0e0e0"></path><path d="M208.61,190.46a3.72,3.72,0,0,0-1.69,2.93c0,1.08.75,1.51,1.69,1a3.71,3.71,0,0,0,1.69-2.92C210.3,190.36,209.54,189.93,208.61,190.46Z" style="fill:#455a64"></path><path d="M158.49,138.13a3.75,3.75,0,0,0-.54,1.78v75.9l-3.37-1.95V138a3.8,3.8,0,0,1,.53-1.78Z" style="fill:#263238"></path></g></g><g id="freepik--Pencil--inject-2"><polygon id="freepik--shadow--inject-2" points="196.66 257.28 194.11 258.75 173.99 246.97 171.77 244.36 176.4 245.58 196.66 257.28" style="fill:#455a64;opacity:0.1"></polygon><path d="M176.21,243.79l-4.28-.84a.14.14,0,0,0-.13.22l2.91,3.29Z" style="fill:#ffa8a7"></path><path d="M171.8,243.17a.14.14,0,0,1,.13-.22l.83.17h0a.74.74,0,0,0-.34.68v.07Z" style="fill:#263238"></path><path d="M190.69,255.63l-.35-.2-.42-.24-15.21-8.73a2,2,0,0,1,.12-1.42,2,2,0,0,1,1.38-1.25l15.2,8.72.81.46C191.68,252.7,190.15,255.35,190.69,255.63Z" style="fill:#D6B8FE"></path><path d="M189.35,254.87l-.78-.45c-.23-.13-.1-.69.17-1.28.36-.78,1.07-1.54,1.37-1.37l.58.33.2.12c-.3-.16-1,.59-1.36,1.37-.26.56-.39,1.11-.2,1.26h0Z" style="fill:#ebebeb"></path><path d="M189.16,254.75c-.54-.28,1-2.93,1.54-2.65l.78.45c-.53-.28-2.07,2.37-1.53,2.65Z" style="fill:#D6B8FE"></path><path d="M190.69,255.63l-.77-.44c-.53-.28.93-2.85,1.49-2.68h0l.78.45C191.68,252.7,190.15,255.35,190.69,255.63Z" style="fill:#ebebeb"></path><path d="M171.78,243l.15-.08,3.11,1.7,16.08,9.23s0,0,.07,0c-.45.71-.8,1.61-.5,1.77l-.35-.2-.42-.24-15.21-8.73h0l-2.91-3.29A.12.12,0,0,1,171.78,243Z" style="opacity:0.15"></path><path d="M194,257.51l-3.29-1.88c-.23-.12-.1-.68.16-1.27.36-.78,1.06-1.54,1.37-1.39h0l3.3,1.88c.65.38,0,1.8-.68,2.44A.78.78,0,0,1,194,257.51Z" style="fill:#f28f8f"></path><path d="M193.78,256.49a2.36,2.36,0,0,1,1.34-1.62.54.54,0,0,1,.49.06c.5.46-.08,1.77-.77,2.37a.78.78,0,0,1-.85.21C193.75,257.37,193.65,257,193.78,256.49Z" style="opacity:0.1"></path></g><g id="freepik--Laptop--inject-2"><path d="M119,305.89l62.83-36.27a1.25,1.25,0,0,0,0-2.36l-47.49-27.39a4.51,4.51,0,0,0-4.08,0L67.44,276.15a1.24,1.24,0,0,0,0,2.35l47.49,27.4A4.51,4.51,0,0,0,119,305.89Z" style="opacity:0.05"></path><g id="freepik--laptop--inject-2"><path d="M80.83,280.94a3.36,3.36,0,0,0,1.56,2.59l34,19.64a3.45,3.45,0,0,0,3.13,0l59.89-34.58a2.93,2.93,0,0,0,0-5.18l-34-19.64a3.45,3.45,0,0,0-3.13,0L82.39,278.34A3.36,3.36,0,0,0,80.83,280.94Z" style="fill:#D6B8FE"></path><path d="M181,266a3.33,3.33,0,0,1-1.56,2.59l-59.89,34.58a3.19,3.19,0,0,1-1.56.38v-3.39a3.18,3.18,0,0,0,1.56-.37l59.89-34.58c.76-.44.85-1.11.28-1.6A3.32,3.32,0,0,1,181,266Z" style="opacity:0.5"></path><path d="M82.39,280.15l34,19.64a3.45,3.45,0,0,0,3.13,0l59.89-34.58a1,1,0,0,0,0-1.8l-34-19.64a3.45,3.45,0,0,0-3.13,0L82.39,278.34A1,1,0,0,0,82.39,280.15Z" style="opacity:0.30000000000000004"></path><path d="M118,300.16v3.38a3.13,3.13,0,0,1-1.56-.37l-34-19.64a3.36,3.36,0,0,1-1.56-2.59,3.41,3.41,0,0,1,1.4-2.5c-.7.51-.64,1.24.16,1.71l34,19.64A3.13,3.13,0,0,0,118,300.16Z" style="opacity:0.7000000000000001"></path><path d="M79.36,278.4c-.8-.47-.76-1.26-.76-2.25v-47a3.46,3.46,0,0,1,1.56-2.71l59.89-34.58a3.37,3.37,0,0,1,3,0c.81.46.77,1.25.77,2.25v47a3.45,3.45,0,0,1-1.57,2.71L82.39,278.34A3.34,3.34,0,0,1,79.36,278.4Z" style="fill:#D6B8FE"></path><path d="M143.85,194.08c0-1-.7-1.4-1.57-.9L82.39,227.76a3.16,3.16,0,0,0-1.1,1.16l-2.23-1.29h0a3.19,3.19,0,0,1,1.1-1.17l59.89-34.58a3.34,3.34,0,0,1,3,0C143.89,192.29,143.85,193.08,143.85,194.08Z" style="opacity:0.30000000000000004"></path><path d="M80.83,230.46v47c0,1,.7,1.4,1.56.9l59.89-34.57a3.45,3.45,0,0,0,1.57-2.71v-47c0-1-.7-1.4-1.57-.9L82.39,227.76A3.44,3.44,0,0,0,80.83,230.46Z" style="opacity:0.5"></path><path d="M82.21,278.44a3.39,3.39,0,0,1-2.84,0c-.81-.47-.77-1.26-.77-2.25v-47a3.12,3.12,0,0,1,.46-1.54l2.23,1.29h0a3.22,3.22,0,0,0-.46,1.54v47C80.83,278.37,81.43,278.78,82.21,278.44Z" style="opacity:0.7000000000000001"></path><path d="M83.23,229.56,141,196.23c.51-.3.93-.06.93.54v41a2.06,2.06,0,0,1-.93,1.62L83.23,272.73c-.52.3-.93.06-.93-.54v-41A2,2,0,0,1,83.23,229.56Z" style="fill:#D6B8FE"></path><path d="M83.23,229.56,141,196.23c.51-.3.93-.06.93.54v41a2.06,2.06,0,0,1-.93,1.62L83.23,272.73c-.52.3-.93.06-.93-.54v-41A2,2,0,0,1,83.23,229.56Z" style="fill:#fff;opacity:0.5"></path><path d="M86.72,278.44l55.59-32.1a1.72,1.72,0,0,1,1.56,0l.93.51a.48.48,0,0,1,0,.9L89.2,279.84a1.74,1.74,0,0,1-1.57,0l-.91-.5C86.28,279.09,86.28,278.68,86.72,278.44Z" style="fill:#263238;opacity:0.30000000000000004"></path><path d="M146.66,248.93,91.07,281c-.43.25-.49.62-.14.83l14.47,8.35a1.58,1.58,0,0,0,1.43-.08l55.52-32.05c.43-.25.49-.62.14-.83l-14.41-8.39A1.6,1.6,0,0,0,146.66,248.93Z" style="fill:#263238;opacity:0.30000000000000004"></path><path d="M139.36,262.41l1.74-1c.08,0,.08-.11,0-.15l-1.67-1a.28.28,0,0,0-.25,0l-1.74,1c-.08.05-.08.11,0,.15l1.67,1A.25.25,0,0,0,139.36,262.41Zm-2.54-3.47-1.74,1c-.07,0-.08.11,0,.15l1.66,1a.28.28,0,0,0,.25,0l1.74-1c.08,0,.08-.1,0-.14l-1.67-1A.25.25,0,0,0,136.82,258.94Zm-5.62,3.24-2.95,1.7c-.07.05-.08.11,0,.15l1.66,1a.28.28,0,0,0,.25,0l2.95-1.7c.07,0,.08-.11,0-.14l-1.67-1A.31.31,0,0,0,131.2,262.18Zm3.08-1.78-1.74,1c-.08,0-.08.11,0,.15l1.67,1a.31.31,0,0,0,.25,0l1.74-1c.07,0,.08-.1,0-.14l-1.66-1A.28.28,0,0,0,134.28,260.4Zm-6.83,4-1.74,1c-.08,0-.08.11,0,.15l1.67,1a.28.28,0,0,0,.25,0l1.74-1c.08-.05.08-.11,0-.15l-1.67-1A.25.25,0,0,0,127.45,264.35Zm-2.55,1.47-1.74,1c-.07,0-.08.11,0,.15l1.66,1a.3.3,0,0,0,.26,0l1.74-1c.07,0,.08-.1,0-.14l-1.66-1A.27.27,0,0,0,124.9,265.82Zm6.53,3.92,1.74-1c.08,0,.08-.1,0-.14l-1.67-1a.28.28,0,0,0-.25,0l-1.74,1c-.08,0-.08.11,0,.15l1.67,1A.28.28,0,0,0,131.43,269.74Zm-2.54,1.47,1.74-1c.07,0,.08-.11,0-.14l-1.66-1a.3.3,0,0,0-.26,0l-1.74,1c-.07,0-.08.11,0,.14l1.66,1A.34.34,0,0,0,128.89,271.21Zm-2.55,1.47,1.74-1c.08,0,.08-.11,0-.14l-1.67-1a.31.31,0,0,0-.25,0l-1.74,1c-.07,0-.08.11,0,.14l1.66,1A.28.28,0,0,0,126.34,272.68Zm-2.54,1.46,1.74-1c.07,0,.08-.11,0-.15l-1.67-1a.28.28,0,0,0-.25,0l-1.74,1c-.08,0-.08.1,0,.14l1.67,1A.25.25,0,0,0,123.8,274.14Zm13-10.26,1.74-1c.07-.05.08-.11,0-.15l-1.66-1a.28.28,0,0,0-.25,0l-1.74,1c-.08.05-.09.11,0,.15l1.67,1A.28.28,0,0,0,136.82,263.88ZM134,268.27l3.88-2.24c.07,0,.08-.11,0-.15l-4-2.33a.25.25,0,0,0-.25,0l-2,1.16c-.08,0-.08.1,0,.14l2.14,1.24c.07,0,.06.1,0,.14l-1.61.93c-.07,0-.08.11,0,.15l1.66,1A.3.3,0,0,0,134,268.27Zm-11.62-1-1.74,1c-.07,0-.08.11,0,.15l1.67,1a.31.31,0,0,0,.25,0l1.74-1c.08,0,.08-.1,0-.14l-1.67-1A.28.28,0,0,0,122.36,267.28Zm-2.54,1.47-1.74,1c-.08,0-.08.11,0,.14l1.67,1a.31.31,0,0,0,.25,0l1.74-1c.07,0,.08-.11,0-.14l-1.66-1A.31.31,0,0,0,119.82,268.75Zm-14.08,15.68a.28.28,0,0,0,.25,0l1.74-1c.08,0,.08-.11,0-.15l-1.67-1a.31.31,0,0,0-.25,0l-1.74,1c-.08,0-.08.11,0,.14Zm-6.27-3.93-1.75,1c-.07,0-.08.11,0,.14l1.66,1a.34.34,0,0,0,.26,0l1.74-1c.07,0,.08-.11,0-.14l-1.66-1A.31.31,0,0,0,99.47,280.5Zm3.22,2.95a.28.28,0,0,0,.25,0l1.74-1c.08,0,.08-.1,0-.14l-1.67-1a.25.25,0,0,0-.25,0l-1.74,1c-.07,0-.08.11,0,.15Zm7,1.58,1.74-1c.07,0,.08-.11,0-.14l-1.67-1a.31.31,0,0,0-.25,0l-1.74,1c-.08,0-.08.11,0,.14l1.67,1A.28.28,0,0,0,109.71,285Zm-2.8,1.47a.3.3,0,0,0,.26,0l1.74-1c.07,0,.08-.11,0-.15l-1.66-1a.3.3,0,0,0-.26,0l-1.74,1c-.07,0-.08.1,0,.14ZM102,279l-1.74,1c-.08,0-.08.11,0,.15l1.67,1a.31.31,0,0,0,.25,0l1.74-1c.08,0,.08-.1,0-.14l-1.67-1A.28.28,0,0,0,102,279Zm12.72-7.34-1.74,1c-.08,0-.08.1,0,.14l1.67,1a.25.25,0,0,0,.25,0l1.74-1c.08,0,.08-.11,0-.15l-1.67-1A.28.28,0,0,0,114.73,271.69Zm-10.18,5.88-1.74,1c-.07,0-.08.11,0,.15l1.66,1a.3.3,0,0,0,.26,0l1.74-1c.07,0,.08-.1,0-.14l-1.66-1A.27.27,0,0,0,104.55,277.57Zm12.72-7.35-1.74,1c-.07,0-.08.1,0,.14l1.66,1a.3.3,0,0,0,.26,0l1.74-1c.07,0,.08-.11,0-.15l-1.66-1A.34.34,0,0,0,117.27,270.22Zm-5.09,2.94-1.74,1c-.07,0-.08.11,0,.15l1.66,1a.27.27,0,0,0,.26,0l1.74-1c.07,0,.08-.11,0-.15l-1.66-1A.3.3,0,0,0,112.18,273.16Zm-2.54,1.47-1.74,1c-.07.05-.08.11,0,.15l1.66,1a.28.28,0,0,0,.25,0l1.74-1c.08-.05.08-.11,0-.15l-1.67-1A.28.28,0,0,0,109.64,274.63Zm-2.54,1.47-1.74,1c-.08,0-.08.11,0,.15l1.67,1a.28.28,0,0,0,.25,0l1.74-1c.07-.05.08-.11,0-.15l-1.66-1A.25.25,0,0,0,107.1,276.1Zm11.61,1,1.74-1c.08-.05.08-.11,0-.15l-1.67-1a.28.28,0,0,0-.25,0l-1.74,1c-.08,0-.08.11,0,.15l1.67,1A.28.28,0,0,0,118.71,277.08Zm23.73-21.39-1.74,1c-.07.05-.08.11,0,.15l1.66,1a.27.27,0,0,0,.26,0l1.74-1c.07,0,.08-.11,0-.15l-1.66-1A.3.3,0,0,0,142.44,255.69Zm-3.08,1.78-1.74,1c-.07,0-.08.11,0,.15l1.66,1a.3.3,0,0,0,.26,0l1.74-1c.07-.05.08-.11,0-.15l-1.66-1A.27.27,0,0,0,139.36,257.47Zm5.63-3.25-1.74,1c-.08,0-.08.1,0,.14l1.67,1a.25.25,0,0,0,.25,0l1.74-1c.07,0,.08-.11,0-.15l-1.67-1A.28.28,0,0,0,145,254.22Zm-14.06,13.06,1.74-1c.07,0,.08-.11,0-.15l-1.66-1a.3.3,0,0,0-.26,0l-1.74,1c-.07.05-.08.11,0,.15l1.66,1A.27.27,0,0,0,130.93,267.28Zm16.85-14.54a.28.28,0,0,0-.25,0l-1.74,1c-.07,0-.08.1,0,.14l1.66,1a.28.28,0,0,0,.25,0l1.74-1c.08,0,.09-.11,0-.15Zm-26.52,22.87,1.74-1c.07,0,.08-.11,0-.15l-1.66-1a.3.3,0,0,0-.26,0l-1.74,1c-.07.05-.08.11,0,.15l1.66,1A.27.27,0,0,0,121.26,275.61Zm31.19-18,1.74-1c.08-.05.08-.11,0-.15l-1.67-1a.28.28,0,0,0-.25,0l-1.74,1c-.07.05-.08.11,0,.15l1.67,1A.28.28,0,0,0,152.45,257.6Zm-4.92.1,1.74-1c.07,0,.08-.11,0-.14l-1.66-1a.28.28,0,0,0-.25,0l-1.74,1c-.08,0-.08.11,0,.14l1.67,1A.31.31,0,0,0,147.53,257.7Zm2.63-3.58a.28.28,0,0,0-.25,0l-1.74,1c-.07,0-.08.11,0,.15l1.66,1a.28.28,0,0,0,.25,0l1.74-1c.08,0,.08-.1,0-.14Zm.54-.31,4,2.33a.27.27,0,0,0,.26,0l1.74-1c.07,0,.08-.11,0-.15l-4-2.33a.27.27,0,0,0-.26,0l-1.74,1C150.64,253.7,150.63,253.77,150.7,253.81Zm-5.88,3.25-1.74,1c-.07,0-.08.11,0,.14l1.66,1a.3.3,0,0,0,.26,0l1.74-1c.07,0,.08-.11,0-.14l-1.66-1A.34.34,0,0,0,144.82,257.06Zm-19.14,11.06-1.74,1c-.08,0-.08.11,0,.15l1.67,1a.28.28,0,0,0,.25,0l1.74-1c.07-.05.08-.11,0-.15l-1.66-1A.25.25,0,0,0,125.68,268.12Zm24-9a.28.28,0,0,0,.25,0l1.74-1c.07-.05.08-.11,0-.15L150,257a.25.25,0,0,0-.25,0L148,258c-.08,0-.09.11,0,.15Zm-21.44,7.57-1.74,1c-.07.05-.08.11,0,.15l1.66,1a.28.28,0,0,0,.25,0l1.74-1c.08-.05.08-.11,0-.15l-1.67-1A.28.28,0,0,0,128.22,266.65ZM108.28,283a.34.34,0,0,0,.26,0l1.74-1c.07,0,.08-.11,0-.14l-1.66-1a.34.34,0,0,0-.26,0l-1.74,1c-.07,0-.08.11,0,.14Zm-3-3.1-1.75,1c-.07,0-.08.11,0,.15l1.66,1a.3.3,0,0,0,.26,0l1.74-1c.07-.05.08-.11,0-.15l-1.66-1A.25.25,0,0,0,105.33,279.87Zm5.75,1.62,1.74-1c.07,0,.08-.1,0-.14l-1.67-1a.28.28,0,0,0-.25,0l-1.74,1c-.08,0-.08.11,0,.15l1.67,1A.31.31,0,0,0,111.08,281.49Zm2.54-1.47,1.74-1c.08,0,.09-.1,0-.14l-1.67-1a.25.25,0,0,0-.25,0l-1.74,1c-.07,0-.08.11,0,.15l1.66,1A.28.28,0,0,0,113.62,280Zm2.55-1.47,1.74-1c.07-.05.08-.11,0-.15l-1.66-1a.25.25,0,0,0-.25,0l-1.75,1c-.07,0-.08.11,0,.15l1.66,1A.3.3,0,0,0,116.17,278.55Zm-8.3-.15-1.74,1c-.08.05-.08.11,0,.15l1.67,1a.28.28,0,0,0,.25,0l1.74-1c.08-.05.08-.11,0-.15l-1.67-1A.28.28,0,0,0,107.87,278.4Zm2.54-1.47-1.74,1c-.07.05-.08.11,0,.15l1.66,1a.27.27,0,0,0,.26,0l1.74-1c.07,0,.08-.11,0-.15l-1.66-1A.3.3,0,0,0,110.41,276.93Zm10.18-5.88-1.74,1c-.08,0-.08.11,0,.15l1.67,1a.31.31,0,0,0,.25,0l1.74-1c.08,0,.08-.11,0-.14l-1.67-1A.28.28,0,0,0,120.59,271.05ZM118,272.52l-1.74,1c-.07,0-.08.11,0,.14l1.66,1a.34.34,0,0,0,.26,0l1.74-1c.07,0,.08-.11,0-.14l-1.66-1A.34.34,0,0,0,118,272.52Zm5.09-2.93-1.74,1c-.07,0-.08.11,0,.15l1.66,1a.3.3,0,0,0,.26,0l1.74-1c.07,0,.08-.1,0-.14l-1.66-1A.27.27,0,0,0,123.13,269.59ZM113,275.46l-1.74,1c-.08,0-.08.1,0,.14l1.67,1a.25.25,0,0,0,.25,0l1.74-1c.07,0,.08-.11,0-.15l-1.66-1A.28.28,0,0,0,113,275.46ZM115.5,274l-1.74,1c-.07,0-.08.1,0,.14l1.66,1a.28.28,0,0,0,.25,0l1.74-1c.08,0,.08-.11,0-.15l-1.67-1A.31.31,0,0,0,115.5,274Zm-3.25,9.57,1.74-1c.08,0,.08-.11,0-.14l-1.67-1a.27.27,0,0,0-.25,0l-1.74,1c-.07,0-.08.11,0,.14l1.66,1A.31.31,0,0,0,112.25,283.56Zm-13.41-.64-1.67-1a.31.31,0,0,0-.25,0l-1.74,1c-.07,0-.08.1,0,.14l1.66,1a.28.28,0,0,0,.25,0l1.74-1C98.9,283,98.9,283,98.84,282.92Zm3.32.84-1.67-1a.28.28,0,0,0-.25,0l-2.68,1.55c-.07,0-.08.11,0,.15l1.67,1a.28.28,0,0,0,.25,0l2.68-1.55C102.21,283.86,102.22,283.79,102.16,283.76ZM96.35,281l-1.66-1a.31.31,0,0,0-.25,0l-2.15,1.24c-.07,0-.08.11,0,.15l1.66,1a.3.3,0,0,0,.26,0l2.14-1.24C96.41,281.13,96.42,281.06,96.35,281Zm1.65-.95a.28.28,0,0,0,.25,0l1.74-1c.07,0,.08-.1,0-.14l-1.66-1a.25.25,0,0,0-.25,0l-1.74,1c-.08,0-.08.11,0,.15Zm7.2,4.66-1.66-1a.28.28,0,0,0-.25,0l-3.35,1.93c-.08,0-.08.11,0,.15l1.67,1a.28.28,0,0,0,.25,0l3.35-1.93C105.26,284.85,105.27,284.78,105.2,284.74Zm1.18,2.07-1.67-1a.28.28,0,0,0-.25,0l-2.14,1.24c-.08,0-.08.11,0,.14l1.67,1a.28.28,0,0,0,.25,0l2.14-1.24C106.44,286.92,106.44,286.85,106.38,286.81Zm10.53-17.65a.28.28,0,0,0,.25,0l1.74-1c.08,0,.08-.1,0-.14l-1.67-1a.28.28,0,0,0-.25,0l-1.74,1c-.07,0-.08.11,0,.15Zm-5.09,2.93a.3.3,0,0,0,.26,0l1.74-1c.07,0,.08-.11,0-.14l-1.66-1a.34.34,0,0,0-.26,0l-1.74,1c-.07,0-.08.11,0,.14Zm-11.28,6.52a.28.28,0,0,0,.25,0l1.74-1c.08-.05.08-.11,0-.15l-1.67-1a.25.25,0,0,0-.25,0l-1.74,1c-.07,0-.08.11,0,.15Zm13.83-8a.31.31,0,0,0,.25,0l1.74-1c.07,0,.08-.11,0-.14l-1.66-1a.31.31,0,0,0-.25,0l-1.74,1c-.08,0-.08.11,0,.14Zm-5.09,2.93a.25.25,0,0,0,.25,0l1.74-1c.08,0,.08-.11,0-.15l-1.67-1a.28.28,0,0,0-.25,0l-1.74,1c-.08,0-.08.1,0,.14Zm-1.65,13.36a.3.3,0,0,0-.26,0l-2.67,1.55c-.08,0-.08.11,0,.15l1.67,1a.28.28,0,0,0,.25,0l2.68-1.55c.07,0,.08-.1,0-.14Zm-2-11.25a.25.25,0,0,0,.25,0l1.74-1c.08-.05.08-.11,0-.15l-1.67-1a.28.28,0,0,0-.25,0l-1.74,1c-.08.05-.08.11,0,.15Zm-2.55,1.47a.3.3,0,0,0,.26,0l1.74-1c.07-.05.08-.11,0-.15l-1.66-1a.3.3,0,0,0-.26,0l-1.74,1c-.07.05-.08.11,0,.15Zm51.68-17.43a.3.3,0,0,0-.26,0l-4.28,2.48c-.07,0-.08.11,0,.14l1.67,1a.31.31,0,0,0,.25,0l4.29-2.48c.07,0,.08-.11,0-.14ZM149.13,263a.28.28,0,0,0-.25,0l-1.74,1c-.07,0-.08.1,0,.14l1.67,1a.25.25,0,0,0,.25,0l1.74-1c.08,0,.08-.11,0-.15ZM114.8,282.09l1.74-1c.07,0,.08-.1,0-.14l-1.66-1a.25.25,0,0,0-.25,0l-1.75,1c-.07,0-.08.11,0,.15l1.66,1A.3.3,0,0,0,114.8,282.09ZM144,265.89a.28.28,0,0,0-.25,0l-1.74,1c-.07.05-.08.11,0,.15l1.66,1a.28.28,0,0,0,.25,0l1.75-1c.07-.05.08-.11,0-.15Zm13.26-7.65a.25.25,0,0,0-.25,0l-1.74,1c-.08,0-.08.11,0,.15l1.67,1a.28.28,0,0,0,.25,0l1.74-1c.07,0,.08-.1,0-.14Zm4.21-.51-4-2.34a.34.34,0,0,0-.26,0l-1.74,1c-.07,0-.08.11,0,.14l4,2.34a.28.28,0,0,0,.25,0l1.74-1C161.57,257.83,161.57,257.77,161.51,257.73Zm-27,13.65a.25.25,0,0,0-.25,0l-2.15,1.23c-.07.05-.08.11,0,.15l1.66,1a.3.3,0,0,0,.26,0l2.14-1.23c.07-.05.08-.11,0-.15Zm6.43-3.71a.27.27,0,0,0-.26,0L138,269.22c-.07,0-.08.11,0,.15l1.67,1a.28.28,0,0,0,.25,0l2.68-1.55c.07,0,.08-.1,0-.14Zm-12.32,7.11a.3.3,0,0,0-.26,0l-14.32,8.27c-.08,0-.08.11,0,.15l1.67,1a.31.31,0,0,0,.25,0l14.33-8.27c.07-.05.08-.11,0-.15Zm-15.13,8.73a.31.31,0,0,0-.25,0l-2.15,1.24c-.07,0-.08.11,0,.15l1.66,1a.3.3,0,0,0,.26,0l2.14-1.24c.07,0,.08-.11,0-.14Zm18.07-10.43a.25.25,0,0,0-.25,0l-2.14,1.23c-.08.05-.08.11,0,.15l1.67,1a.25.25,0,0,0,.25,0l2.14-1.23c.08-.05.08-.11,0-.15Zm-21,12.13a.31.31,0,0,0-.25,0l-2.14,1.24c-.08,0-.08.11,0,.15l1.67,1a.28.28,0,0,0,.25,0l2.14-1.24c.08,0,.08-.11,0-.14Zm26.91-15.53a.25.25,0,0,0-.25,0l-2.14,1.23c-.07.05-.08.11,0,.15l1.67,1a.28.28,0,0,0,.25,0l2.14-1.24c.08,0,.09-.1,0-.14Zm9.11-5.26a.28.28,0,0,0-.25,0l-1.74,1c-.08.05-.09.11,0,.15l1.67,1a.25.25,0,0,0,.25,0l1.74-1c.07,0,.08-.11,0-.15Zm5.7-4,1.74-1c.07,0,.08-.11,0-.15l-1.66-1a.3.3,0,0,0-.26,0l-1.74,1c-.07,0-.08.1,0,.14l1.66,1A.27.27,0,0,0,152.29,260.44Zm-10.38.5,1.74-1c.07,0,.08-.11,0-.15l-1.66-1a.3.3,0,0,0-.26,0l-1.74,1c-.07,0-.08.1,0,.14l1.66,1A.27.27,0,0,0,141.91,260.94Zm-6.76,9.4,5.09-2.94c.07,0,.08-.11,0-.14l-1.66-1a.34.34,0,0,0-.26,0l-5.08,2.94c-.08,0-.08.11,0,.15l1.67,1A.28.28,0,0,0,135.15,270.34Zm14.34-8.42a.25.25,0,0,0,.25,0l1.74-1c.08,0,.08-.11,0-.15l-1.67-1a.28.28,0,0,0-.25,0l-1.74,1c-.07.05-.08.11,0,.15Zm-2.13-1.38,1.75-1c.07,0,.08-.1,0-.14l-1.67-1a.25.25,0,0,0-.25,0l-1.74,1c-.07,0-.08.11,0,.15l1.66,1A.28.28,0,0,0,147.36,260.54Zm-14.75,11.27,1.74-1c.07,0,.08-.11,0-.14l-1.66-1a.3.3,0,0,0-.26,0l-1.74,1c-.07,0-.08.11,0,.14l1.66,1A.34.34,0,0,0,132.61,271.81Zm11.26-6.64a.28.28,0,0,0,.25,0l1.74-1c.07,0,.08-.1,0-.14l-1.67-1a.25.25,0,0,0-.25,0l-1.74,1c-.08,0-.08.11,0,.15Zm-24,14,1.74-1c.07,0,.08-.11,0-.15L120,277a.3.3,0,0,0-.26,0l-1.74,1c-.07.05-.08.11,0,.15l1.66,1A.3.3,0,0,0,119.89,279.15Zm2.54-1.47,1.74-1c.07-.05.08-.11,0-.15l-1.66-1a.28.28,0,0,0-.25,0l-1.74,1c-.08.05-.08.11,0,.15l1.67,1A.25.25,0,0,0,122.43,277.68Zm-5.09,2.94,1.74-1c.08-.05.08-.11,0-.15l-1.67-1a.25.25,0,0,0-.25,0l-1.74,1c-.08,0-.08.11,0,.15l1.67,1A.28.28,0,0,0,117.34,280.62Zm10.18-5.87,1.74-1c.07,0,.08-.11,0-.15l-1.66-1a.3.3,0,0,0-.26,0l-1.74,1c-.07,0-.08.1,0,.14l1.66,1A.3.3,0,0,0,127.52,274.75ZM125,276.21l1.74-1c.08,0,.08-.11,0-.15l-1.67-1a.28.28,0,0,0-.25,0l-1.74,1c-.07,0-.08.1,0,.14l1.66,1A.25.25,0,0,0,125,276.21Zm5.09-2.93,1.74-1c.08,0,.08-.11,0-.14l-1.67-1a.31.31,0,0,0-.25,0l-1.74,1c-.08,0-.08.11,0,.14l1.67,1A.31.31,0,0,0,130.06,273.28Zm13.88-20.44a.3.3,0,0,0,.26,0l1.74-1c.07,0,.08-.11,0-.15l-.44-.25a.25.25,0,0,0-.25,0l-1.74,1c-.08.05-.09.11,0,.15Zm-12.64,8a.28.28,0,0,0,.25,0l1.74-1c.08,0,.08-.11,0-.15l-1.67-1a.25.25,0,0,0-.25,0l-1.74,1c-.07.05-.08.11,0,.15Zm5.09-2.94a.25.25,0,0,0,.25,0l1.74-1c.07,0,.08-.11,0-.15l-1.67-1a.28.28,0,0,0-.25,0l-1.74,1c-.08,0-.08.1,0,.14Zm-8.2,4.73a.27.27,0,0,0,.26,0l1.74-1c.07,0,.08-.11,0-.15l-1.66-1a.3.3,0,0,0-.26,0l-1.74,1c-.07,0-.08.1,0,.14Zm5.65-3.26a.27.27,0,0,0,.26,0l1.74-1c.07-.05.08-.11,0-.15l-1.66-1a.3.3,0,0,0-.26,0l-1.74,1c-.07.05-.08.11,0,.15Zm-10.73,6.2a.28.28,0,0,0,.25,0l1.74-1c.07-.05.08-.11,0-.15l-1.66-1a.28.28,0,0,0-.25,0l-1.75,1c-.07,0-.08.11,0,.15Zm2.54-1.47a.25.25,0,0,0,.25,0l1.74-1c.08,0,.08-.11,0-.15L126,262a.28.28,0,0,0-.25,0L124,263c-.08.05-.08.11,0,.15Zm13.21-8.33a.25.25,0,0,0,.25,0l1.74-1c.07,0,.08-.11,0-.15l-.44-.25a.28.28,0,0,0-.25,0l-1.74,1c-.08,0-.08.11,0,.15Zm7.63-4.4a.31.31,0,0,0,.25,0l1.74-1c.07,0,.08-.11,0-.14l-.45-.26a.28.28,0,0,0-.25,0l-1.74,1c-.07.05-.08.11,0,.15Zm3.5,2a.31.31,0,0,0,.25,0l1.74-1c.07,0,.08-.11,0-.14l-1.66-1a.31.31,0,0,0-.25,0l-1.74,1c-.08,0-.09.11,0,.14Zm4.84,5.58,1.74-1c.08,0,.08-.11,0-.15l-1.67-1a.31.31,0,0,0-.25,0l-1.74,1c-.08,0-.08.1,0,.14l1.67,1A.28.28,0,0,0,154.83,259Zm-13.43-4.67a.25.25,0,0,0,.25,0l1.74-1c.08,0,.08-.11,0-.15l-.45-.25a.25.25,0,0,0-.25,0l-1.74,1c-.07,0-.08.11,0,.15Zm-20.84,12.74a.28.28,0,0,0,.25,0l1.74-1c.08-.05.09-.11,0-.15l-1.67-1a.25.25,0,0,0-.25,0l-1.74,1c-.07,0-.08.11,0,.15Z" style="fill:#D6B8FE"></path><path d="M139.36,262.41l1.74-1c.08,0,.08-.11,0-.15l-1.67-1a.28.28,0,0,0-.25,0l-1.74,1c-.08.05-.08.11,0,.15l1.67,1A.25.25,0,0,0,139.36,262.41Zm-2.54-3.47-1.74,1c-.07,0-.08.11,0,.15l1.66,1a.28.28,0,0,0,.25,0l1.74-1c.08,0,.08-.1,0-.14l-1.67-1A.25.25,0,0,0,136.82,258.94Zm-5.62,3.24-2.95,1.7c-.07.05-.08.11,0,.15l1.66,1a.28.28,0,0,0,.25,0l2.95-1.7c.07,0,.08-.11,0-.14l-1.67-1A.31.31,0,0,0,131.2,262.18Zm3.08-1.78-1.74,1c-.08,0-.08.11,0,.15l1.67,1a.31.31,0,0,0,.25,0l1.74-1c.07,0,.08-.1,0-.14l-1.66-1A.28.28,0,0,0,134.28,260.4Zm-6.83,4-1.74,1c-.08,0-.08.11,0,.15l1.67,1a.28.28,0,0,0,.25,0l1.74-1c.08-.05.08-.11,0-.15l-1.67-1A.25.25,0,0,0,127.45,264.35Zm-2.55,1.47-1.74,1c-.07,0-.08.11,0,.15l1.66,1a.3.3,0,0,0,.26,0l1.74-1c.07,0,.08-.1,0-.14l-1.66-1A.27.27,0,0,0,124.9,265.82Zm6.53,3.92,1.74-1c.08,0,.08-.1,0-.14l-1.67-1a.28.28,0,0,0-.25,0l-1.74,1c-.08,0-.08.11,0,.15l1.67,1A.28.28,0,0,0,131.43,269.74Zm-2.54,1.47,1.74-1c.07,0,.08-.11,0-.14l-1.66-1a.3.3,0,0,0-.26,0l-1.74,1c-.07,0-.08.11,0,.14l1.66,1A.34.34,0,0,0,128.89,271.21Zm-2.55,1.47,1.74-1c.08,0,.08-.11,0-.14l-1.67-1a.31.31,0,0,0-.25,0l-1.74,1c-.07,0-.08.11,0,.14l1.66,1A.28.28,0,0,0,126.34,272.68Zm-2.54,1.46,1.74-1c.07,0,.08-.11,0-.15l-1.67-1a.28.28,0,0,0-.25,0l-1.74,1c-.08,0-.08.1,0,.14l1.67,1A.25.25,0,0,0,123.8,274.14Zm13-10.26,1.74-1c.07-.05.08-.11,0-.15l-1.66-1a.28.28,0,0,0-.25,0l-1.74,1c-.08.05-.09.11,0,.15l1.67,1A.28.28,0,0,0,136.82,263.88ZM134,268.27l3.88-2.24c.07,0,.08-.11,0-.15l-4-2.33a.25.25,0,0,0-.25,0l-2,1.16c-.08,0-.08.1,0,.14l2.14,1.24c.07,0,.06.1,0,.14l-1.61.93c-.07,0-.08.11,0,.15l1.66,1A.3.3,0,0,0,134,268.27Zm-11.62-1-1.74,1c-.07,0-.08.11,0,.15l1.67,1a.31.31,0,0,0,.25,0l1.74-1c.08,0,.08-.1,0-.14l-1.67-1A.28.28,0,0,0,122.36,267.28Zm-2.54,1.47-1.74,1c-.08,0-.08.11,0,.14l1.67,1a.31.31,0,0,0,.25,0l1.74-1c.07,0,.08-.11,0-.14l-1.66-1A.31.31,0,0,0,119.82,268.75Zm-14.08,15.68a.28.28,0,0,0,.25,0l1.74-1c.08,0,.08-.11,0-.15l-1.67-1a.31.31,0,0,0-.25,0l-1.74,1c-.08,0-.08.11,0,.14Zm-6.27-3.93-1.75,1c-.07,0-.08.11,0,.14l1.66,1a.34.34,0,0,0,.26,0l1.74-1c.07,0,.08-.11,0-.14l-1.66-1A.31.31,0,0,0,99.47,280.5Zm3.22,2.95a.28.28,0,0,0,.25,0l1.74-1c.08,0,.08-.1,0-.14l-1.67-1a.25.25,0,0,0-.25,0l-1.74,1c-.07,0-.08.11,0,.15Zm7,1.58,1.74-1c.07,0,.08-.11,0-.14l-1.67-1a.31.31,0,0,0-.25,0l-1.74,1c-.08,0-.08.11,0,.14l1.67,1A.28.28,0,0,0,109.71,285Zm-2.8,1.47a.3.3,0,0,0,.26,0l1.74-1c.07,0,.08-.11,0-.15l-1.66-1a.3.3,0,0,0-.26,0l-1.74,1c-.07,0-.08.1,0,.14ZM102,279l-1.74,1c-.08,0-.08.11,0,.15l1.67,1a.31.31,0,0,0,.25,0l1.74-1c.08,0,.08-.1,0-.14l-1.67-1A.28.28,0,0,0,102,279Zm12.72-7.34-1.74,1c-.08,0-.08.1,0,.14l1.67,1a.25.25,0,0,0,.25,0l1.74-1c.08,0,.08-.11,0-.15l-1.67-1A.28.28,0,0,0,114.73,271.69Zm-10.18,5.88-1.74,1c-.07,0-.08.11,0,.15l1.66,1a.3.3,0,0,0,.26,0l1.74-1c.07,0,.08-.1,0-.14l-1.66-1A.27.27,0,0,0,104.55,277.57Zm12.72-7.35-1.74,1c-.07,0-.08.1,0,.14l1.66,1a.3.3,0,0,0,.26,0l1.74-1c.07,0,.08-.11,0-.15l-1.66-1A.34.34,0,0,0,117.27,270.22Zm-5.09,2.94-1.74,1c-.07,0-.08.11,0,.15l1.66,1a.27.27,0,0,0,.26,0l1.74-1c.07,0,.08-.11,0-.15l-1.66-1A.3.3,0,0,0,112.18,273.16Zm-2.54,1.47-1.74,1c-.07.05-.08.11,0,.15l1.66,1a.28.28,0,0,0,.25,0l1.74-1c.08-.05.08-.11,0-.15l-1.67-1A.28.28,0,0,0,109.64,274.63Zm-2.54,1.47-1.74,1c-.08,0-.08.11,0,.15l1.67,1a.28.28,0,0,0,.25,0l1.74-1c.07-.05.08-.11,0-.15l-1.66-1A.25.25,0,0,0,107.1,276.1Zm11.61,1,1.74-1c.08-.05.08-.11,0-.15l-1.67-1a.28.28,0,0,0-.25,0l-1.74,1c-.08,0-.08.11,0,.15l1.67,1A.28.28,0,0,0,118.71,277.08Zm23.73-21.39-1.74,1c-.07.05-.08.11,0,.15l1.66,1a.27.27,0,0,0,.26,0l1.74-1c.07,0,.08-.11,0-.15l-1.66-1A.3.3,0,0,0,142.44,255.69Zm-3.08,1.78-1.74,1c-.07,0-.08.11,0,.15l1.66,1a.3.3,0,0,0,.26,0l1.74-1c.07-.05.08-.11,0-.15l-1.66-1A.27.27,0,0,0,139.36,257.47Zm5.63-3.25-1.74,1c-.08,0-.08.1,0,.14l1.67,1a.25.25,0,0,0,.25,0l1.74-1c.07,0,.08-.11,0-.15l-1.67-1A.28.28,0,0,0,145,254.22Zm-14.06,13.06,1.74-1c.07,0,.08-.11,0-.15l-1.66-1a.3.3,0,0,0-.26,0l-1.74,1c-.07.05-.08.11,0,.15l1.66,1A.27.27,0,0,0,130.93,267.28Zm16.85-14.54a.28.28,0,0,0-.25,0l-1.74,1c-.07,0-.08.1,0,.14l1.66,1a.28.28,0,0,0,.25,0l1.74-1c.08,0,.09-.11,0-.15Zm-26.52,22.87,1.74-1c.07,0,.08-.11,0-.15l-1.66-1a.3.3,0,0,0-.26,0l-1.74,1c-.07.05-.08.11,0,.15l1.66,1A.27.27,0,0,0,121.26,275.61Zm31.19-18,1.74-1c.08-.05.08-.11,0-.15l-1.67-1a.28.28,0,0,0-.25,0l-1.74,1c-.07.05-.08.11,0,.15l1.67,1A.28.28,0,0,0,152.45,257.6Zm-4.92.1,1.74-1c.07,0,.08-.11,0-.14l-1.66-1a.28.28,0,0,0-.25,0l-1.74,1c-.08,0-.08.11,0,.14l1.67,1A.31.31,0,0,0,147.53,257.7Zm2.63-3.58a.28.28,0,0,0-.25,0l-1.74,1c-.07,0-.08.11,0,.15l1.66,1a.28.28,0,0,0,.25,0l1.74-1c.08,0,.08-.1,0-.14Zm.54-.31,4,2.33a.27.27,0,0,0,.26,0l1.74-1c.07,0,.08-.11,0-.15l-4-2.33a.27.27,0,0,0-.26,0l-1.74,1C150.64,253.7,150.63,253.77,150.7,253.81Zm-5.88,3.25-1.74,1c-.07,0-.08.11,0,.14l1.66,1a.3.3,0,0,0,.26,0l1.74-1c.07,0,.08-.11,0-.14l-1.66-1A.34.34,0,0,0,144.82,257.06Zm-19.14,11.06-1.74,1c-.08,0-.08.11,0,.15l1.67,1a.28.28,0,0,0,.25,0l1.74-1c.07-.05.08-.11,0-.15l-1.66-1A.25.25,0,0,0,125.68,268.12Zm24-9a.28.28,0,0,0,.25,0l1.74-1c.07-.05.08-.11,0-.15L150,257a.25.25,0,0,0-.25,0L148,258c-.08,0-.09.11,0,.15Zm-21.44,7.57-1.74,1c-.07.05-.08.11,0,.15l1.66,1a.28.28,0,0,0,.25,0l1.74-1c.08-.05.08-.11,0-.15l-1.67-1A.28.28,0,0,0,128.22,266.65ZM108.28,283a.34.34,0,0,0,.26,0l1.74-1c.07,0,.08-.11,0-.14l-1.66-1a.34.34,0,0,0-.26,0l-1.74,1c-.07,0-.08.11,0,.14Zm-3-3.1-1.75,1c-.07,0-.08.11,0,.15l1.66,1a.3.3,0,0,0,.26,0l1.74-1c.07-.05.08-.11,0-.15l-1.66-1A.25.25,0,0,0,105.33,279.87Zm5.75,1.62,1.74-1c.07,0,.08-.1,0-.14l-1.67-1a.28.28,0,0,0-.25,0l-1.74,1c-.08,0-.08.11,0,.15l1.67,1A.31.31,0,0,0,111.08,281.49Zm2.54-1.47,1.74-1c.08,0,.09-.1,0-.14l-1.67-1a.25.25,0,0,0-.25,0l-1.74,1c-.07,0-.08.11,0,.15l1.66,1A.28.28,0,0,0,113.62,280Zm2.55-1.47,1.74-1c.07-.05.08-.11,0-.15l-1.66-1a.25.25,0,0,0-.25,0l-1.75,1c-.07,0-.08.11,0,.15l1.66,1A.3.3,0,0,0,116.17,278.55Zm-8.3-.15-1.74,1c-.08.05-.08.11,0,.15l1.67,1a.28.28,0,0,0,.25,0l1.74-1c.08-.05.08-.11,0-.15l-1.67-1A.28.28,0,0,0,107.87,278.4Zm2.54-1.47-1.74,1c-.07.05-.08.11,0,.15l1.66,1a.27.27,0,0,0,.26,0l1.74-1c.07,0,.08-.11,0-.15l-1.66-1A.3.3,0,0,0,110.41,276.93Zm10.18-5.88-1.74,1c-.08,0-.08.11,0,.15l1.67,1a.31.31,0,0,0,.25,0l1.74-1c.08,0,.08-.11,0-.14l-1.67-1A.28.28,0,0,0,120.59,271.05ZM118,272.52l-1.74,1c-.07,0-.08.11,0,.14l1.66,1a.34.34,0,0,0,.26,0l1.74-1c.07,0,.08-.11,0-.14l-1.66-1A.34.34,0,0,0,118,272.52Zm5.09-2.93-1.74,1c-.07,0-.08.11,0,.15l1.66,1a.3.3,0,0,0,.26,0l1.74-1c.07,0,.08-.1,0-.14l-1.66-1A.27.27,0,0,0,123.13,269.59ZM113,275.46l-1.74,1c-.08,0-.08.1,0,.14l1.67,1a.25.25,0,0,0,.25,0l1.74-1c.07,0,.08-.11,0-.15l-1.66-1A.28.28,0,0,0,113,275.46ZM115.5,274l-1.74,1c-.07,0-.08.1,0,.14l1.66,1a.28.28,0,0,0,.25,0l1.74-1c.08,0,.08-.11,0-.15l-1.67-1A.31.31,0,0,0,115.5,274Zm-3.25,9.57,1.74-1c.08,0,.08-.11,0-.14l-1.67-1a.27.27,0,0,0-.25,0l-1.74,1c-.07,0-.08.11,0,.14l1.66,1A.31.31,0,0,0,112.25,283.56Zm-13.41-.64-1.67-1a.31.31,0,0,0-.25,0l-1.74,1c-.07,0-.08.1,0,.14l1.66,1a.28.28,0,0,0,.25,0l1.74-1C98.9,283,98.9,283,98.84,282.92Zm3.32.84-1.67-1a.28.28,0,0,0-.25,0l-2.68,1.55c-.07,0-.08.11,0,.15l1.67,1a.28.28,0,0,0,.25,0l2.68-1.55C102.21,283.86,102.22,283.79,102.16,283.76ZM96.35,281l-1.66-1a.31.31,0,0,0-.25,0l-2.15,1.24c-.07,0-.08.11,0,.15l1.66,1a.3.3,0,0,0,.26,0l2.14-1.24C96.41,281.13,96.42,281.06,96.35,281Zm1.65-.95a.28.28,0,0,0,.25,0l1.74-1c.07,0,.08-.1,0-.14l-1.66-1a.25.25,0,0,0-.25,0l-1.74,1c-.08,0-.08.11,0,.15Zm7.2,4.66-1.66-1a.28.28,0,0,0-.25,0l-3.35,1.93c-.08,0-.08.11,0,.15l1.67,1a.28.28,0,0,0,.25,0l3.35-1.93C105.26,284.85,105.27,284.78,105.2,284.74Zm1.18,2.07-1.67-1a.28.28,0,0,0-.25,0l-2.14,1.24c-.08,0-.08.11,0,.14l1.67,1a.28.28,0,0,0,.25,0l2.14-1.24C106.44,286.92,106.44,286.85,106.38,286.81Zm10.53-17.65a.28.28,0,0,0,.25,0l1.74-1c.08,0,.08-.1,0-.14l-1.67-1a.28.28,0,0,0-.25,0l-1.74,1c-.07,0-.08.11,0,.15Zm-5.09,2.93a.3.3,0,0,0,.26,0l1.74-1c.07,0,.08-.11,0-.14l-1.66-1a.34.34,0,0,0-.26,0l-1.74,1c-.07,0-.08.11,0,.14Zm-11.28,6.52a.28.28,0,0,0,.25,0l1.74-1c.08-.05.08-.11,0-.15l-1.67-1a.25.25,0,0,0-.25,0l-1.74,1c-.07,0-.08.11,0,.15Zm13.83-8a.31.31,0,0,0,.25,0l1.74-1c.07,0,.08-.11,0-.14l-1.66-1a.31.31,0,0,0-.25,0l-1.74,1c-.08,0-.08.11,0,.14Zm-5.09,2.93a.25.25,0,0,0,.25,0l1.74-1c.08,0,.08-.11,0-.15l-1.67-1a.28.28,0,0,0-.25,0l-1.74,1c-.08,0-.08.1,0,.14Zm-1.65,13.36a.3.3,0,0,0-.26,0l-2.67,1.55c-.08,0-.08.11,0,.15l1.67,1a.28.28,0,0,0,.25,0l2.68-1.55c.07,0,.08-.1,0-.14Zm-2-11.25a.25.25,0,0,0,.25,0l1.74-1c.08-.05.08-.11,0-.15l-1.67-1a.28.28,0,0,0-.25,0l-1.74,1c-.08.05-.08.11,0,.15Zm-2.55,1.47a.3.3,0,0,0,.26,0l1.74-1c.07-.05.08-.11,0-.15l-1.66-1a.3.3,0,0,0-.26,0l-1.74,1c-.07.05-.08.11,0,.15Zm51.68-17.43a.3.3,0,0,0-.26,0l-4.28,2.48c-.07,0-.08.11,0,.14l1.67,1a.31.31,0,0,0,.25,0l4.29-2.48c.07,0,.08-.11,0-.14ZM149.13,263a.28.28,0,0,0-.25,0l-1.74,1c-.07,0-.08.1,0,.14l1.67,1a.25.25,0,0,0,.25,0l1.74-1c.08,0,.08-.11,0-.15ZM114.8,282.09l1.74-1c.07,0,.08-.1,0-.14l-1.66-1a.25.25,0,0,0-.25,0l-1.75,1c-.07,0-.08.11,0,.15l1.66,1A.3.3,0,0,0,114.8,282.09ZM144,265.89a.28.28,0,0,0-.25,0l-1.74,1c-.07.05-.08.11,0,.15l1.66,1a.28.28,0,0,0,.25,0l1.75-1c.07-.05.08-.11,0-.15Zm13.26-7.65a.25.25,0,0,0-.25,0l-1.74,1c-.08,0-.08.11,0,.15l1.67,1a.28.28,0,0,0,.25,0l1.74-1c.07,0,.08-.1,0-.14Zm4.21-.51-4-2.34a.34.34,0,0,0-.26,0l-1.74,1c-.07,0-.08.11,0,.14l4,2.34a.28.28,0,0,0,.25,0l1.74-1C161.57,257.83,161.57,257.77,161.51,257.73Zm-27,13.65a.25.25,0,0,0-.25,0l-2.15,1.23c-.07.05-.08.11,0,.15l1.66,1a.3.3,0,0,0,.26,0l2.14-1.23c.07-.05.08-.11,0-.15Zm6.43-3.71a.27.27,0,0,0-.26,0L138,269.22c-.07,0-.08.11,0,.15l1.67,1a.28.28,0,0,0,.25,0l2.68-1.55c.07,0,.08-.1,0-.14Zm-12.32,7.11a.3.3,0,0,0-.26,0l-14.32,8.27c-.08,0-.08.11,0,.15l1.67,1a.31.31,0,0,0,.25,0l14.33-8.27c.07-.05.08-.11,0-.15Zm-15.13,8.73a.31.31,0,0,0-.25,0l-2.15,1.24c-.07,0-.08.11,0,.15l1.66,1a.3.3,0,0,0,.26,0l2.14-1.24c.07,0,.08-.11,0-.14Zm18.07-10.43a.25.25,0,0,0-.25,0l-2.14,1.23c-.08.05-.08.11,0,.15l1.67,1a.25.25,0,0,0,.25,0l2.14-1.23c.08-.05.08-.11,0-.15Zm-21,12.13a.31.31,0,0,0-.25,0l-2.14,1.24c-.08,0-.08.11,0,.15l1.67,1a.28.28,0,0,0,.25,0l2.14-1.24c.08,0,.08-.11,0-.14Zm26.91-15.53a.25.25,0,0,0-.25,0l-2.14,1.23c-.07.05-.08.11,0,.15l1.67,1a.28.28,0,0,0,.25,0l2.14-1.24c.08,0,.09-.1,0-.14Zm9.11-5.26a.28.28,0,0,0-.25,0l-1.74,1c-.08.05-.09.11,0,.15l1.67,1a.25.25,0,0,0,.25,0l1.74-1c.07,0,.08-.11,0-.15Zm5.7-4,1.74-1c.07,0,.08-.11,0-.15l-1.66-1a.3.3,0,0,0-.26,0l-1.74,1c-.07,0-.08.1,0,.14l1.66,1A.27.27,0,0,0,152.29,260.44Zm-10.38.5,1.74-1c.07,0,.08-.11,0-.15l-1.66-1a.3.3,0,0,0-.26,0l-1.74,1c-.07,0-.08.1,0,.14l1.66,1A.27.27,0,0,0,141.91,260.94Zm-6.76,9.4,5.09-2.94c.07,0,.08-.11,0-.14l-1.66-1a.34.34,0,0,0-.26,0l-5.08,2.94c-.08,0-.08.11,0,.15l1.67,1A.28.28,0,0,0,135.15,270.34Zm14.34-8.42a.25.25,0,0,0,.25,0l1.74-1c.08,0,.08-.11,0-.15l-1.67-1a.28.28,0,0,0-.25,0l-1.74,1c-.07.05-.08.11,0,.15Zm-2.13-1.38,1.75-1c.07,0,.08-.1,0-.14l-1.67-1a.25.25,0,0,0-.25,0l-1.74,1c-.07,0-.08.11,0,.15l1.66,1A.28.28,0,0,0,147.36,260.54Zm-14.75,11.27,1.74-1c.07,0,.08-.11,0-.14l-1.66-1a.3.3,0,0,0-.26,0l-1.74,1c-.07,0-.08.11,0,.14l1.66,1A.34.34,0,0,0,132.61,271.81Zm11.26-6.64a.28.28,0,0,0,.25,0l1.74-1c.07,0,.08-.1,0-.14l-1.67-1a.25.25,0,0,0-.25,0l-1.74,1c-.08,0-.08.11,0,.15Zm-24,14,1.74-1c.07,0,.08-.11,0-.15L120,277a.3.3,0,0,0-.26,0l-1.74,1c-.07.05-.08.11,0,.15l1.66,1A.3.3,0,0,0,119.89,279.15Zm2.54-1.47,1.74-1c.07-.05.08-.11,0-.15l-1.66-1a.28.28,0,0,0-.25,0l-1.74,1c-.08.05-.08.11,0,.15l1.67,1A.25.25,0,0,0,122.43,277.68Zm-5.09,2.94,1.74-1c.08-.05.08-.11,0-.15l-1.67-1a.25.25,0,0,0-.25,0l-1.74,1c-.08,0-.08.11,0,.15l1.67,1A.28.28,0,0,0,117.34,280.62Zm10.18-5.87,1.74-1c.07,0,.08-.11,0-.15l-1.66-1a.3.3,0,0,0-.26,0l-1.74,1c-.07,0-.08.1,0,.14l1.66,1A.3.3,0,0,0,127.52,274.75ZM125,276.21l1.74-1c.08,0,.08-.11,0-.15l-1.67-1a.28.28,0,0,0-.25,0l-1.74,1c-.07,0-.08.1,0,.14l1.66,1A.25.25,0,0,0,125,276.21Zm5.09-2.93,1.74-1c.08,0,.08-.11,0-.14l-1.67-1a.31.31,0,0,0-.25,0l-1.74,1c-.08,0-.08.11,0,.14l1.67,1A.31.31,0,0,0,130.06,273.28Zm13.88-20.44a.3.3,0,0,0,.26,0l1.74-1c.07,0,.08-.11,0-.15l-.44-.25a.25.25,0,0,0-.25,0l-1.74,1c-.08.05-.09.11,0,.15Zm-12.64,8a.28.28,0,0,0,.25,0l1.74-1c.08,0,.08-.11,0-.15l-1.67-1a.25.25,0,0,0-.25,0l-1.74,1c-.07.05-.08.11,0,.15Zm5.09-2.94a.25.25,0,0,0,.25,0l1.74-1c.07,0,.08-.11,0-.15l-1.67-1a.28.28,0,0,0-.25,0l-1.74,1c-.08,0-.08.1,0,.14Zm-8.2,4.73a.27.27,0,0,0,.26,0l1.74-1c.07,0,.08-.11,0-.15l-1.66-1a.3.3,0,0,0-.26,0l-1.74,1c-.07,0-.08.1,0,.14Zm5.65-3.26a.27.27,0,0,0,.26,0l1.74-1c.07-.05.08-.11,0-.15l-1.66-1a.3.3,0,0,0-.26,0l-1.74,1c-.07.05-.08.11,0,.15Zm-10.73,6.2a.28.28,0,0,0,.25,0l1.74-1c.07-.05.08-.11,0-.15l-1.66-1a.28.28,0,0,0-.25,0l-1.75,1c-.07,0-.08.11,0,.15Zm2.54-1.47a.25.25,0,0,0,.25,0l1.74-1c.08,0,.08-.11,0-.15L126,262a.28.28,0,0,0-.25,0L124,263c-.08.05-.08.11,0,.15Zm13.21-8.33a.25.25,0,0,0,.25,0l1.74-1c.07,0,.08-.11,0-.15l-.44-.25a.28.28,0,0,0-.25,0l-1.74,1c-.08,0-.08.11,0,.15Zm7.63-4.4a.31.31,0,0,0,.25,0l1.74-1c.07,0,.08-.11,0-.14l-.45-.26a.28.28,0,0,0-.25,0l-1.74,1c-.07.05-.08.11,0,.15Zm3.5,2a.31.31,0,0,0,.25,0l1.74-1c.07,0,.08-.11,0-.14l-1.66-1a.31.31,0,0,0-.25,0l-1.74,1c-.08,0-.09.11,0,.14Zm4.84,5.58,1.74-1c.08,0,.08-.11,0-.15l-1.67-1a.31.31,0,0,0-.25,0l-1.74,1c-.08,0-.08.1,0,.14l1.67,1A.28.28,0,0,0,154.83,259Zm-13.43-4.67a.25.25,0,0,0,.25,0l1.74-1c.08,0,.08-.11,0-.15l-.45-.25a.25.25,0,0,0-.25,0l-1.74,1c-.07,0-.08.11,0,.15Zm-20.84,12.74a.28.28,0,0,0,.25,0l1.74-1c.08-.05.09-.11,0-.15l-1.67-1a.25.25,0,0,0-.25,0l-1.74,1c-.07,0-.08.11,0,.15Z" style="opacity:0.1"></path><polygon points="127.97 280.17 128.33 280.38 137.81 285.85 154.67 276.11 155.02 275.91 145.18 270.24 127.97 280.17" style="opacity:0.4"></polygon><polygon points="128.33 280.38 137.81 285.85 154.67 276.11 145.18 270.64 128.33 280.38" style="fill:#D6B8FE"></polygon><polygon points="128.33 280.38 137.81 285.85 154.67 276.11 145.18 270.64 128.33 280.38" style="opacity:0.45"></polygon><path d="M79.36,278.4a2.55,2.55,0,0,0,.48.2,2.55,2.55,0,0,1-.48-.2.71.71,0,0,1-.14-.1A.71.71,0,0,0,79.36,278.4Z" style="fill:#D6B8FE"></path><path d="M82.1,278.54l0,0s0,0,0,0Z" style="fill:#D6B8FE"></path><path d="M86.29,231.75l51.63-29.81c.6-.35,1.08-.07,1.08.62V236a2.37,2.37,0,0,1-1.08,1.87L86.29,267.67c-.6.34-1.08.06-1.08-.63V233.63A2.4,2.4,0,0,1,86.29,231.75Z" style="fill:#fff"></path><path d="M121.91,231.71l-1.23-.4c1-5.77-1-7.37-4-7.23,1.28.57,2.27,3.5,1.67,6.47l-1.23-.4c-.24-.08-.56.37-.52.73l.61,5.37c0,.24.22.3.41.13l4.2-3.8C122.08,232.32,122.15,231.79,121.91,231.71Z" style="fill:#D6B8FE"></path><path d="M117.79,227.64c-.23-1.73-.94-3.09-1.77-3.46,0,0-3.12.68-5.57,5.53C110.45,229.71,114.3,225.58,117.79,227.64Z" style="fill:#D6B8FE;opacity:0.8"></path><path d="M106.07,237.9l1.23.39c-1,5.77,1,7.37,4,7.24-1.27-.58-2.26-3.5-1.66-6.47l1.23.4c.24.07.56-.38.52-.74l-.61-5.36c0-.25-.22-.31-.41-.13l-4.2,3.8C105.89,237.29,105.83,237.82,106.07,237.9Z" style="fill:#D6B8FE"></path><path d="M110.19,242c.23,1.72.94,3.09,1.77,3.46,0,0,3.12-.69,5.57-5.53C117.53,239.9,113.68,244,110.19,242Z" style="fill:#D6B8FE;opacity:0.8"></path><path d="M139,202.55c0-.68-.48-1-1.08-.61L86.29,231.75a2.4,2.4,0,0,0-1.08,1.88v2.65L139,205.21Z" style="fill:#e0e0e0"></path></g></g><g id="freepik--Papers--inject-2"><path id="freepik--shadow--inject-2" d="M163,323.86a2.73,2.73,0,0,1-1.33-.32l-22.16-12.79a1.1,1.1,0,0,1,0-2l4-2.29-1.9-1.09a1.1,1.1,0,0,1,0-2l32.62-18.83a2.9,2.9,0,0,1,2.65,0L199,297.28a1.2,1.2,0,0,1,.68,1,1.21,1.21,0,0,1-.68,1L195,301.59l1.89,1.09a1.1,1.1,0,0,1,0,2L164.3,323.54A2.67,2.67,0,0,1,163,323.86Z" style="opacity:0.05"></path><path d="M197.16,302a.78.78,0,0,0-.46-.64l-22.16-12.8a2.5,2.5,0,0,0-2.23,0L139.7,307.37a.78.78,0,0,0-.46.64v1a.75.75,0,0,0,.46.63l22.16,12.8a2.5,2.5,0,0,0,2.23,0l32.61-18.83a.79.79,0,0,0,.46-.63Z" style="fill:#ebebeb"></path><path d="M139.7,307.37l32.61-18.83a2.5,2.5,0,0,1,2.23,0l22.16,12.8a.68.68,0,0,1,0,1.28l-32.61,18.83a2.44,2.44,0,0,1-2.23,0L139.7,308.66A.68.68,0,0,1,139.7,307.37Z" style="fill:#fff"></path><path d="M163,321.72v1a2.22,2.22,0,0,1-1.11-.26L139.7,309.67a.78.78,0,0,1-.46-.64v-1a.78.78,0,0,0,.46.65l22.16,12.79A2.23,2.23,0,0,0,163,321.72Z" style="fill:#e0e0e0"></path><path d="M199.22,296.58a.78.78,0,0,0-.46-.65L176.6,283.14a2.44,2.44,0,0,0-2.23,0L141.76,302a.77.77,0,0,0-.46.64v1a.78.78,0,0,0,.46.64l22.16,12.79a2.44,2.44,0,0,0,2.23,0l32.61-18.83a.77.77,0,0,0,.46-.63Z" style="fill:#ebebeb"></path><path d="M141.76,302l32.61-18.83a2.44,2.44,0,0,1,2.23,0l22.16,12.79a.68.68,0,0,1,0,1.29l-32.61,18.83a2.5,2.5,0,0,1-2.23,0l-22.16-12.8A.67.67,0,0,1,141.76,302Z" style="fill:#fff"></path><path d="M165,316.31v1a2.23,2.23,0,0,1-1.11-.27l-22.16-12.79a.78.78,0,0,1-.46-.64v-1a.77.77,0,0,0,.46.64l22.16,12.8A2.22,2.22,0,0,0,165,316.31Z" style="fill:#e0e0e0"></path></g><g id="freepik--black-pencil--inject-2"><polygon id="freepik--shadow--inject-2" points="181.81 242.32 202.25 254.09 199.8 255.51 179.5 243.65 177.48 240.83 181.81 242.32" style="opacity:0.1"></polygon><g id="freepik--pencil--inject-2"><path d="M179.82,242.9,177.39,240a.12.12,0,0,1,.11-.19l3.71.82Z" style="fill:#f28f8f"></path><path d="M177.48,239.82h0l3.71.82-.74,1.19-.39-.24-2.6-1.64Z" style="fill:#ffa8a7"></path><path d="M177.5,239.82a.12.12,0,0,0-.11.19l.47.56h0a.65.65,0,0,1,.37-.55l.06,0Z" style="fill:#263238"></path><path d="M198,250.77l-.3-.18-.36-.22-16.12-9.73a1.72,1.72,0,0,0-1,.68,1.76,1.76,0,0,0-.36,1.57l16.12,9.73.69.42C196.19,252.74,197.55,250.48,198,250.77Z" style="fill:#37474f"></path><path d="M198,250.77l-.3-.18-.36-.22-16.12-9.73a1.78,1.78,0,0,0-1.18.92l16.82,10.26c0,.05,0,.07,0,.07C197.21,251.24,197.75,250.61,198,250.77Z" style="fill:#455a64"></path><path d="M196.85,250.08l-.66-.41c-.19-.12-.57.22-.9.67s-.71,1.45-.46,1.61l.49.3.18.1c-.25-.16,0-1,.46-1.61.32-.43.68-.76.87-.68h0S196.85,250.07,196.85,250.08Z" style="fill:#ebebeb"></path><path d="M196.69,250c-.44-.29-1.8,2-1.36,2.27l.67.41c-.44-.29.91-2.56,1.35-2.28Z" style="fill:#37474f"></path><path d="M198,250.77l-.66-.4c-.43-.29-1.76,1.9-1.39,2.25l0,0,.67.4C196.19,252.74,197.55,250.48,198,250.77Z" style="fill:#ebebeb"></path><path d="M177.38,239.87a.12.12,0,0,1,.1-.05A.12.12,0,0,0,177.38,239.87Z" style="fill:#ffa8a7"></path><path d="M200.79,252.46l-2.8-1.69c-.19-.13-.56.21-.89.65-.44.6-.72,1.45-.47,1.62h0l2.81,1.7c.56.33,1.38-.72,1.55-1.54A.68.68,0,0,0,200.79,252.46Z" style="fill:#f28f8f"></path><path d="M199.94,252.74a2.08,2.08,0,0,0-.67,1.7.5.5,0,0,0,.26.34c.55.18,1.3-.8,1.46-1.58a.66.66,0,0,0-.19-.73C200.59,252.35,200.26,252.43,199.94,252.74Z" style="opacity:0.1"></path></g></g><g id="freepik--Coffe--inject-2"><g style="opacity:0.05"><path d="M205.24,285.18a19.46,19.46,0,0,1,14.13,0c3.83,1.77,3.83,4.65,0,6.42a19.46,19.46,0,0,1-14.13,0C201.28,289.83,201.28,287,205.24,285.18Z"></path></g><path d="M205.71,271.42a21.83,21.83,0,0,1,13.19,0c3.58,1.37,3.58,3.58,0,4.94a21.68,21.68,0,0,1-13.19,0C202,275,202,272.79,205.71,271.42Z" style="fill:#f0997a"></path><path d="M202.61,264.49l19.29,0-1.46,22.73h0c-.09.82-.86,1.64-2.34,2.27a17,17,0,0,1-11.57,0c-1.52-.63-2.32-1.45-2.42-2.27h0Z" style="fill:#fafafa"></path><path d="M221.9,264.51l-.3,4.62A8.56,8.56,0,0,1,220,270a23.38,23.38,0,0,1-15.36,0c-.19-.07-.34-.16-.51-.23a9.77,9.77,0,0,1-1.21-.69l-.3-4.58Z" style="fill:#e0e0e0"></path><path d="M202.27,265.26v-3.2h2.06c.28-.14.58-.28.91-.41a21.52,21.52,0,0,1,14.13,0c.32.13.6.27.87.41h2v3.2h0c0,1-1,2.08-2.88,2.88a21.59,21.59,0,0,1-14.13,0C203.26,267.34,202.27,266.3,202.27,265.26Z" style="fill:#37474f"></path><path d="M205.24,259.19a21.52,21.52,0,0,1,14.13,0c3.83,1.59,3.83,4.16,0,5.75a21.52,21.52,0,0,1-14.13,0C201.28,263.35,201.28,260.78,205.24,259.19Z" style="fill:#455a64"></path><path d="M204.82,261.17h0l.8-2.14H218.9l.8,2.14h0c.3.83-.39,1.7-2.08,2.33a17.69,17.69,0,0,1-10.63,0C205.23,262.87,204.51,262,204.82,261.17Z" style="fill:#37474f"></path><path d="M207.57,257.55a15.67,15.67,0,0,1,9.44,0c2.57,1,2.57,2.53,0,3.49a15.67,15.67,0,0,1-9.44,0C204.91,260.08,204.91,258.51,207.57,257.55Z" style="fill:#455a64"></path><path d="M206.5,259.3s.07.16.29.33a4.62,4.62,0,0,0,1.09.55,13.83,13.83,0,0,0,4.44.67,13.16,13.16,0,0,0,4.37-.67,4,4,0,0,0,1.05-.55c.22-.18.28-.31.28-.34s-.23-.47-1.33-.88a12.91,12.91,0,0,0-4.37-.67,13.56,13.56,0,0,0-4.44.67C206.78,258.81,206.5,259.21,206.5,259.3Z" style="fill:#37474f"></path><path d="M206.79,259.63a4.62,4.62,0,0,0,1.09.55,13.83,13.83,0,0,0,4.44.67,13.16,13.16,0,0,0,4.37-.67,4,4,0,0,0,1.05-.55,3.66,3.66,0,0,0-1.05-.56,13.18,13.18,0,0,0-4.37-.66,13.56,13.56,0,0,0-4.44.67A4,4,0,0,0,206.79,259.63Z" style="fill:#263238"></path><path d="M209.45,259.69a1.34,1.34,0,0,0-1-.2c-.19.11,0,.37.35.6a1.34,1.34,0,0,0,1.05.2C210,260.17,209.83,259.91,209.45,259.69Z"></path><path d="M221.05,282.11c0,.84-.85,1.68-2.54,2.33a20.49,20.49,0,0,1-12.42,0c-1.75-.64-2.62-1.48-2.62-2.32l-.54-8.22c0,.9.92,1.79,2.78,2.47a21.68,21.68,0,0,0,13.19,0c1.79-.68,2.69-1.57,2.69-2.47Z" style="fill:#ffbda7"></path><path d="M209.27,282.51a10.91,10.91,0,0,1-.74-1.39,4.12,4.12,0,0,0-2.15-1.89.27.27,0,0,0-.34.12,2.92,2.92,0,0,0,.79,3.25,3,3,0,0,0,3.22.81c.06,0,.07-.14,0-.16A2.58,2.58,0,0,1,209.27,282.51Z" style="fill:#9e6767"></path><path d="M206.89,279a4.63,4.63,0,0,1,1.36.84,4.18,4.18,0,0,1,1,1.34,4,4,0,0,0,1.23,1.64.27.27,0,0,0,.37-.06,2.84,2.84,0,0,0-.66-3.46,2.91,2.91,0,0,0-3.31-.77A.26.26,0,0,0,206.89,279Z" style="fill:#9e6767"></path></g><g id="freepik--Pot--inject-2"><g style="opacity:0.05"><path d="M288.16,160.12c5,2.89,5,7.58,0,10.47s-13.12,2.89-18.13,0-5-7.58,0-10.47S283.15,157.23,288.16,160.12Z"></path></g><path d="M271.12,166c-4.36-4.45-6.92-15.55-2.67-19.08h21.64c4.25,3.53,1.69,14.63-2.67,19.08l-.12.12-.15.15-.39.35-.1.08-.33.25q-.29.2-.57.36a14.34,14.34,0,0,1-13,0h0a6.12,6.12,0,0,1-.57-.37,3.55,3.55,0,0,1-.31-.23l-.12-.1a3.16,3.16,0,0,1-.38-.34l-.18-.17A.94.94,0,0,1,271.12,166Z" style="fill:#ebebeb"></path><path d="M288.21,145.5c4.93,2.85,4.93,7.47,0,10.32s-12.94,2.85-17.88,0-4.93-7.47,0-10.32S283.27,142.65,288.21,145.5Z" style="fill:#fafafa"></path><path d="M284.71,147.52c3,1.73,3,4.54,0,6.28a12.05,12.05,0,0,1-10.88,0c-3-1.74-3-4.55,0-6.28A12,12,0,0,1,284.71,147.52Z" style="fill:#ebebeb"></path><path d="M273.83,150.5a12,12,0,0,1,10.88,0,5,5,0,0,1,1.8,1.65,5,5,0,0,1-1.8,1.65,12.05,12.05,0,0,1-10.88,0,5,5,0,0,1-1.8-1.65A5,5,0,0,1,273.83,150.5Z" style="fill:#e0e0e0"></path><path d="M284.05,152.15a25,25,0,0,0,3.93-5.23c1.82-3.21,2.15-7.52,1.21-8s-4.76,3.76-4.76,3.76a23.34,23.34,0,0,0,.4-5.48c-.16-2.86-.85-5.46-1.67-6s-2.66,3.08-3.44,5.7-1.26,4.76-1.26,4.76a41.08,41.08,0,0,0-1.41-6c-.95-2.71-1.82-3.33-2.49-3.06s-1.11,1.54-1.31,5.15a36.39,36.39,0,0,0,.17,5.18s-1.35-1.48-2.85-2.92-2.34-1.8-2.81-1.49-.6,2.75,1.94,7.35a25.79,25.79,0,0,0,4.8,6.33S278,154.42,284.05,152.15Z" style="fill:#D6B8FE"></path></g></g></g><g id="freepik--speech-bubble--inject-2"><g id="freepik--speach-bubble--inject-2"><g id="freepik--speach-bubble--inject-2"><path d="M406.76,100.54V89.23l-9.55-.84a.76.76,0,0,0-.4.08l-8.18,4.7a.7.7,0,0,0-.15,1.08l10.12,11Z" style="fill:#D6B8FE"></path><path d="M398.6,105.22l-10.12-11a.7.7,0,0,1,.57-1.17l9.55.83Z" style="fill:#D6B8FE"></path><path d="M406.76,89.22l-8.16,4.69-9.55-.83a.72.72,0,0,0-.33,0c.76-.45,7.75-4.46,8.09-4.65a.74.74,0,0,1,.4-.08Z" style="fill:#D6B8FE"></path><path d="M406.76,89.22l-8.16,4.69-9.55-.83a.72.72,0,0,0-.33,0c.76-.45,7.75-4.46,8.09-4.65a.74.74,0,0,1,.4-.08Z" style="fill:#fff;opacity:0.5"></path><g id="freepik--speach-bubble--inject-2"><path d="M398.6,80.21a5.24,5.24,0,0,1,2.37-4.1L402.9,75a5.21,5.21,0,0,1,4.74,0l29.59,17.11a5.25,5.25,0,0,1,2.37,4.11v32.56a5.22,5.22,0,0,1-2.37,4.1L435.3,134a5.27,5.27,0,0,1-4.74,0L401,116.88a5.22,5.22,0,0,1-2.37-4.1Z" style="fill:#D6B8FE"></path><path d="M439.6,128.78a5.22,5.22,0,0,1-2.37,4.1L435.3,134a5.3,5.3,0,0,1-4.33.19c1.11.42,2-.21,2-1.56V100.07a4.93,4.93,0,0,0-.69-2.34l6.67-3.85a4.93,4.93,0,0,1,.69,2.34Z" style="opacity:0.2"></path><path d="M398.67,79.54c.28-1,1.2-1.33,2.29-.7L430.56,96a4.76,4.76,0,0,1,1.67,1.77l6.67-3.84a4.69,4.69,0,0,0-1.67-1.77L407.64,75a5.21,5.21,0,0,0-4.74,0L401,76.11A5.3,5.3,0,0,0,398.67,79.54Z" style="fill:#fff;opacity:0.5"></path></g></g><path d="M403.2,104.86l1.72-.91c-3-8.32-.48-11.22,4.06-11.82-1.74,1.19-2.44,5.8-.76,10.06l1.72-.92c.34-.18.93.41,1,1l.51,8.13c0,.38-.24.52-.57.31l-7.26-4.54C403.11,105.82,402.87,105,403.2,104.86Z" style="fill:#fff"></path><path d="M408.25,97.72c-.11-2.62.58-4.84,1.71-5.61,0,0,4.82.19,9.74,6.74C419.7,98.85,412.89,93.74,408.25,97.72Z" style="fill:#fff;opacity:0.8"></path><path d="M428.39,109.86l-1.72.92c3,8.31.48,11.22-4.06,11.81,1.74-1.18,2.44-5.8.76-10l-1.72.92c-.34.18-.93-.41-1-1l-.51-8.13c0-.37.24-.51.57-.3l7.26,4.54C428.48,108.91,428.72,109.68,428.39,109.86Z" style="fill:#fff"></path><path d="M423.34,117c.11,2.62-.58,4.84-1.71,5.61,0,0-4.82-.2-9.74-6.75C411.89,115.87,418.7,121,423.34,117Z" style="fill:#fff;opacity:0.8"></path></g></g><g id="freepik--Character--inject-2"><g id="freepik--character--inject-2"><path d="M444.37,164.3c1.35,2.12.81,5.37-3,10-3.28,4-8,5.54-9.16,4.33S439.26,162.93,444.37,164.3Z" style="fill:#ffa8a7"></path><g id="freepik--device-2--inject-2"><path d="M422.26,189.28l.69-.1a2.68,2.68,0,0,0,1.49-.71l24.38-29.73a.71.71,0,0,0-.07-1L433.7,145.79a2.41,2.41,0,0,0-1.57-.29l-.69.1a2.74,2.74,0,0,0-1.5.71L405.56,176a.71.71,0,0,0,.08,1L420.69,189A2.38,2.38,0,0,0,422.26,189.28Z" style="fill:#D6B8FE"></path><path d="M422.26,189.28l.69-.1a2.68,2.68,0,0,0,1.49-.71l24.38-29.73a.71.71,0,0,0-.07-1L433.7,145.79a2.41,2.41,0,0,0-1.57-.29l-.69.1a2.74,2.74,0,0,0-1.5.71L405.56,176a.71.71,0,0,0,.08,1L420.69,189A2.38,2.38,0,0,0,422.26,189.28Z" style="fill:#fff;opacity:0.6"></path><path d="M420.79,189.06a2.65,2.65,0,0,0,1.47.22l.69-.1a2.65,2.65,0,0,0,1.5-.72l24.37-29.72a.74.74,0,0,0,.18-.53l-2.74.38a.75.75,0,0,1-.17.53l-24.38,29.73A.76.76,0,0,1,420.79,189.06Z" style="fill:#D6B8FE"></path><path d="M446.09,159.12l-24.38,29.73a.74.74,0,0,1-1,.14l-15.05-11.94a.71.71,0,0,1-.08-1l24.38-29.73a.74.74,0,0,1,1-.14L446,158.11A.7.7,0,0,1,446.09,159.12Z" style="fill:#D6B8FE"></path><path d="M446.09,159.12l-24.38,29.73a.74.74,0,0,1-1,.14l-15.05-11.94a.71.71,0,0,1-.08-1l24.38-29.73a.74.74,0,0,1,1-.14L446,158.11A.7.7,0,0,1,446.09,159.12Z" style="fill:#fff;opacity:0.4"></path><path d="M442.83,160.68l-13.74-10.9a.65.65,0,0,0-.88.12l-19.45,23.72a.6.6,0,0,0,.07.86l13.74,10.9a.62.62,0,0,0,.87-.12l19.45-23.72A.61.61,0,0,0,442.83,160.68Z" style="fill:#fff"></path><path d="M419.12,165.21l1.2,0c1.7-3.22,4.05-3.77,6.52-3.22a6.19,6.19,0,0,0-4.21,3.18l1.2,0c.23,0,.3.29.11.47l-2.85,2.77a.26.26,0,0,1-.4,0l-1.86-2.68C418.7,165.51,418.88,165.22,419.12,165.21Z" style="fill:#D6B8FE"></path><path d="M424.35,163.69a5.6,5.6,0,0,1,3-1.57,3.84,3.84,0,0,1,2.25,3.82A4.9,4.9,0,0,0,424.35,163.69Z" style="fill:#D6B8FE;opacity:0.8"></path><path d="M429.68,171l-1.2,0c-1.71,3.23-4.05,3.78-6.53,3.23a6.17,6.17,0,0,0,4.22-3.19l-1.2,0c-.24,0-.31-.28-.12-.47l2.86-2.76a.26.26,0,0,1,.4,0l1.86,2.69A.33.33,0,0,1,429.68,171Z" style="fill:#D6B8FE"></path><path d="M424.45,172.51a5.74,5.74,0,0,1-3,1.57,3.83,3.83,0,0,1-2.25-3.82A4.91,4.91,0,0,0,424.45,172.51Z" style="fill:#D6B8FE;opacity:0.8"></path><path d="M437.86,152.91a.5.5,0,0,0-.69.1.47.47,0,0,0,.05.67.5.5,0,0,0,.69-.09A.49.49,0,0,0,437.86,152.91Z" style="fill:#263238"></path><path d="M438,154.87c-.76-.58-2.07-1.66-2.8-2.25a.29.29,0,0,0-.41,0,.28.28,0,0,0,0,.4l2.81,2.23a.3.3,0,0,0,.41,0A.27.27,0,0,0,438,154.87Z" style="fill:#263238"></path><path d="M438.71,155.43a.27.27,0,0,0-.38,0,.26.26,0,0,0,0,.38.27.27,0,0,0,.38-.05A.26.26,0,0,0,438.71,155.43Z" style="fill:#263238"></path><path d="M415.06,180.7a1,1,0,0,0-1.36.19,1,1,0,0,0,.1,1.36,1,1,0,0,0,1.37-.19A1,1,0,0,0,415.06,180.7Z" style="fill:#263238"></path></g><path d="M373.76,141.68c3.69,10.62,12.64,32.85,12.64,32.85s21.66-8.93,24.45-11.72c1.73-1.73,2.56-3.58,3.63-4.51,3.93-3.42,6.6-2.74,10.67-4.73,1-.5,2.35-.51,2.4.92.07,1.64-1.4,3.32-2.7,4.16a9.44,9.44,0,0,1-1.79.84l-2.18.84a15.38,15.38,0,0,0-3.67,1.78,5.57,5.57,0,0,0-1,1L412,168.22l-4.16,5.08L405.56,176a.69.69,0,0,0,.08,1l4.83,3.83s-16.42,9-21.48,11.35-10.84,5.76-15.11-3.46C369.3,178.92,360,155.12,360,155.12l-1.89-26.76C363.16,128.71,369.69,129.94,373.76,141.68Z" style="fill:#ffa8a7"></path><path d="M356.28,128.11s5.26-.34,8.41,1.06c2.81,1.25,7.3,2.61,10.37,9.84,2.3,5.4,10.64,29.07,10.64,29.07a27.49,27.49,0,0,1-18.3,7.44C362.23,154.54,356.28,128.11,356.28,128.11Z" style="fill:#37474f"></path><path d="M372.05,321.59l-4.18,17.12s-7.32,2-11.26-1.28-2.12-4.89-2.12-4.89l.28-1.19,2.13-20.06Z" style="fill:#ffa8a7"></path><path d="M348.72,340.53c-.84-.07-1.89,2.93-1.87,3.9s1.07,3,2.43,4.88a35.26,35.26,0,0,1,4.52,7.3,35.78,35.78,0,0,0,5.5,9.21c3.06,3.88,10.08,9.29,20.78,6a10,10,0,0,0,4.82-2.69,4.73,4.73,0,0,0,.57-4.12Z" style="fill:#455a64"></path><path d="M369,336.41c-.1,2.36-.6,7.54,2.58,12.7,1.47,2.39,5.25,5,7.31,6.78,4.39,3.87,4.93,4.58,5.23,9.1.31,4.71-16.89,3.87-20.05,1.4a20.91,20.91,0,0,1-7.18-9A67.21,67.21,0,0,0,353,350c-1.5-2.54-4.24-5.37-4.43-8.05-.1-1.47,1.25-4.27,2.57-6.58,1.21-2.13,2.47-4.15,3.65-4l-.28,1.19a8.66,8.66,0,0,0,3.61,1.93c.63.2,1.4,4.86,2.12,4.85s-.42-2.82.89-2.46C366.6,338.35,369,336.41,369,336.41Z" style="fill:#D6B8FE"></path><path d="M369,336.41c-.1,2.36-.6,7.54,2.58,12.7,1.47,2.39,5.25,5,7.31,6.78,4.39,3.87,4.93,4.58,5.23,9.1.31,4.71-16.89,3.87-20.05,1.4a20.91,20.91,0,0,1-7.18-9A67.21,67.21,0,0,0,353,350c-1.5-2.54-4.24-5.37-4.43-8.05-.1-1.47,1.25-4.27,2.57-6.58,1.21-2.13,2.47-4.15,3.65-4l-.28,1.19a8.66,8.66,0,0,0,3.61,1.93c.63.2,1.4,4.86,2.12,4.85s-.42-2.82.89-2.46C366.6,338.35,369,336.41,369,336.41Z" style="opacity:0.35000000000000003"></path><path d="M364.08,366.39a12.5,12.5,0,0,1,7.85-9.38c5.81-2.39,8-.88,9.82.09,1.14.61,5.94,4.75,3.34,9.7C384.58,367.87,374.87,374.56,364.08,366.39Z" style="fill:#fafafa"></path><path d="M362.35,346.84c.12,3-.12,7.16.71,10.31.63,2.41,1.35,4.93,1.91,7.35.25,1.07.49,2.14.7,3.22a5.43,5.43,0,0,1-.13,3.41,4.13,4.13,0,0,1-1,1.26,9.54,9.54,0,0,1-6.72,2.28,7.16,7.16,0,0,1-3.65-1c-2.16-1.42-3-4-4.17-6.17-1.26-2.36-.52-3.6-.73-6.17a91.78,91.78,0,0,0-1.33-10.2C352.54,345.77,356.5,345.36,362.35,346.84Z" style="fill:#ffa8a7"></path><path d="M347.86,372c-.8.26-.59,3.44-.19,4.32a10.43,10.43,0,0,0,3.79,3.85,17,17,0,0,1,5.5,5.54,29,29,0,0,0,9.15,8.45c4.34,2.37,10.14,2.62,15.45.66s5.83-3.42,5.69-5.47Z" style="fill:#455a64"></path><path d="M364.18,358.73c1.22,3.24,4.41,11.87,10.36,15.92,4.73,3.22,11.07,6.81,13.13,10.86,2.14,4.21-7.1,7-11.11,6.91-3.12-.1-7.26-.11-10.37-2.06a27.3,27.3,0,0,1-4.29-3.3c-2.64-2.45-4.55-5.52-6.46-7.46s-6-3.84-7.2-6.23c-.67-1.32-.54-4.42-.23-7.08.28-2.43.08-4.7,1.24-5l.2,1.41a24.41,24.41,0,0,0,4.66.06c.65-.06,2.11,1.85,2.76,1.56s-.62-1.76.14-2.88C359.49,357.78,364.18,358.73,364.18,358.73Z" style="fill:#D6B8FE"></path><path d="M364.18,358.73c1.22,3.24,4.41,11.87,10.36,15.92,4.73,3.22,11.07,6.81,13.13,10.86,2.14,4.21-7.1,7-11.11,6.91-3.12-.1-7.26-.11-10.37-2.06a27.3,27.3,0,0,1-4.29-3.3c-2.64-2.45-4.55-5.52-6.46-7.46s-6-3.84-7.2-6.23c-.67-1.32-.54-4.42-.23-7.08.28-2.43.08-4.7,1.24-5l.2,1.41a24.41,24.41,0,0,0,4.66.06c.65-.06,2.11,1.85,2.76,1.56s-.62-1.76.14-2.88C359.49,357.78,364.18,358.73,364.18,358.73Z" style="opacity:0.30000000000000004"></path><path d="M366.19,390.36s1.24-7.9,8-11.08,9.27-.28,10.33.48,6.19,4.82,2.72,9.63C387.25,389.39,378.23,397.35,366.19,390.36Z" style="fill:#fafafa"></path><path d="M376.66,210.85c5.87,29.57,12.8,61.36,9.45,74.25-2.51,9.66-14.57,42.08-14.57,42.08-4.21.59-12.83,1.53-16.19-5.86-.86-12,.51-86.1.51-86.1Z" style="fill:#455a64"></path><path d="M355.86,235.22a54.76,54.76,0,0,0,14-12.19s-1.58,6-9.49,13.72c0,0,8,42.79,7.95,51s-4.46,37.65-4.46,37.65Z" style="fill:#37474f"></path><path d="M376.66,210.85c-5.7,11.82-12.12,21.49-20.8,24.37,0,0,7.87,43.34,8.41,53.17.89,16.35-1.37,53.16-1.21,64.4-1.94,4.41-12.18,4.59-15,1.77-.75-5.47-8.12-24.17-9-40.61-.61-12.08,1.6-18.88,1.86-22-1.25-2.9-20.09-35.82-23.75-60.42-1.61-10.86-.56-16.78-.62-23l60.11,2.38" style="fill:#455a64"></path><path d="M321,131.91s-4.8.11-4.19,16.48a135,135,0,0,0-2.65,26.31c-.13,15.32,2.09,38.94,2.09,38.94,8.08,9.15,48.13,6.42,60.39-2.79-.62-2.74-3.44-19.23-4.83-28.75.39-11.72.71-25,.37-32.32-.59-12.68-4.8-21.69-15.55-21.69l-15.32.87Z" style="fill:#f0f0f0"></path><path d="M338.07,95.74c0,9,7,16.37,15.73,16.37s15.33-7.34,15.72-16.37c.69-16-7-16.38-15.72-16.38S338.07,86.7,338.07,95.74Z" style="fill:#263238"></path><path d="M328.57,89.39c1.84-2.87,3.57-2.43,3.57-2.43l1.21,13.93,1.94.4.17,18.8a5.46,5.46,0,0,1-2.38-2.54c-.65-1.32-2-9.27-2.82-14C330.26,103.51,327,91.85,328.57,89.39Z" style="fill:#263238"></path><path d="M335,104.41c-.91.56-2.21-1.26-3.34-2.48s-4.79-2.9-6.62,1.12,1.62,9.49,4.51,10.44c5,1.62,5.72-1.7,5.72-1.7l.38,18.69c6.6,10.21,21.56,9.85,16.18-.5V124.3a30,30,0,0,0,6.71.35c3.65-.58,6-3.59,7.07-7.72,1.78-6.62,2.46-12,.94-25-1.65-14.28-17.6-14.43-26.21-8.78S335,104.41,335,104.41Z" style="fill:#ffa8a7"></path><path d="M359.24,90.93c-7.4.19-12-1.37-18.11-2.09a2.33,2.33,0,0,0-1.23.08c-1.35.61-1.64,4.81-1.88,6-.8,4.09-1.46,11-3,11-.46,0-2.2-3-3.34-4.07-1.57-1.49.46-15,.46-15,.07-.47-.35-1.32-.37-1.84a6.24,6.24,0,0,1,1-3.41,10.35,10.35,0,0,1,5.48-4.47c4.14-1.62,8.7-1.42,12.81-3.27A34.47,34.47,0,0,1,356,71.75a5,5,0,0,1,5,1,6.26,6.26,0,0,1,1.31,3.28,8.6,8.6,0,0,1,3.08-2.89c2.4-1.06,5.39.44,6.62,2.76s1.05,5.17.29,7.69a9.76,9.76,0,0,1-1,2.37C369,89.66,363.24,90.83,359.24,90.93Z" style="fill:#263238"></path><path d="M332.15,87.67l-5.51-3.08a3,3,0,0,1,4.17-1.44A3.5,3.5,0,0,1,332.15,87.67Z" style="fill:#263238"></path><path d="M351.84,124.3s-8.17-1.72-11-3.3a9.61,9.61,0,0,1-3.95-4.07,13.77,13.77,0,0,0,2.24,4.8c2.09,2.78,12.73,4.83,12.73,4.83Z" style="fill:#f28f8f"></path><path d="M349.88,102.28a1.64,1.64,0,1,1-1.64-1.77A1.71,1.71,0,0,1,349.88,102.28Z" style="fill:#263238"></path><path d="M347.84,96l-3.5,2a2.23,2.23,0,0,1,.81-2.91A1.93,1.93,0,0,1,347.84,96Z" style="fill:#263238"></path><path d="M351.1,114.06l3.74,1.46a2,2,0,0,1-2.54,1.29A2.21,2.21,0,0,1,351.1,114.06Z" style="fill:#f28f8f"></path><path d="M364.58,98.15l-3.19-2.56a1.88,1.88,0,0,1,2.77-.44A2.27,2.27,0,0,1,364.58,98.15Z" style="fill:#263238"></path><path d="M363.49,101.8a1.7,1.7,0,0,1-1.64,1.76,1.78,1.78,0,1,1,1.64-1.76Z" style="fill:#263238"></path><polygon points="354.73 100.43 354.92 110.77 360.79 109.42 354.73 100.43" style="fill:#f28f8f"></polygon><path d="M308.18,243.49c1.57,1.47,2.42,3.43,4,6.33s9.52,3.18,10.15-5c.47-6.14-.42-9-5.17-13.33s-6.17-6.29-6.5-8.56-.25-38.15-.25-38.15l11.3-30.42s5.29-15.44-.7-22.47c0,0-7.65-.37-12.87,4.84-6.1,6.09-11.41,33.68-12.93,39.76-1.21,4.8-2.48,6.79-1.45,16.52s4,37.15,5.27,41.66S304,239.56,308.18,243.49Z" style="fill:#ffa8a7"></path><path d="M322.64,131.68s-6.85-1.1-12.22,2.61-7.1,8-10,18.15-4.24,17.21-4.24,17.21-.83,3,7.81,6.08,10.7.83,10.7.83,8.44-22.7,9.81-27.3S327.28,136.22,322.64,131.68Z" style="fill:#37474f"></path></g></g></svg>