<svg width="1023" height="301" viewBox="0 0 1023 301" fill="none" xmlns="http://www.w3.org/2000/svg">
<path d="M387.182 93H375.909C375.242 89.7576 374.076 86.9091 372.409 84.4545C370.773 82 368.773 79.9394 366.409 78.2727C364.076 76.5758 361.485 75.303 358.636 74.4545C355.788 73.6061 352.818 73.1818 349.727 73.1818C344.091 73.1818 338.985 74.6061 334.409 77.4545C329.864 80.303 326.242 84.5 323.545 90.0455C320.879 95.5909 319.545 102.394 319.545 110.455C319.545 118.515 320.879 125.318 323.545 130.864C326.242 136.409 329.864 140.606 334.409 143.455C338.985 146.303 344.091 147.727 349.727 147.727C352.818 147.727 355.788 147.303 358.636 146.455C361.485 145.606 364.076 144.348 366.409 142.682C368.773 140.985 370.773 138.909 372.409 136.455C374.076 133.97 375.242 131.121 375.909 127.909H387.182C386.333 132.667 384.788 136.924 382.545 140.682C380.303 144.439 377.515 147.636 374.182 150.273C370.848 152.879 367.106 154.864 362.955 156.227C358.833 157.591 354.424 158.273 349.727 158.273C341.788 158.273 334.727 156.333 328.545 152.455C322.364 148.576 317.5 143.061 313.955 135.909C310.409 128.758 308.636 120.273 308.636 110.455C308.636 100.636 310.409 92.1515 313.955 85C317.5 77.8485 322.364 72.3333 328.545 68.4545C334.727 64.5758 341.788 62.6364 349.727 62.6364C354.424 62.6364 358.833 63.3182 362.955 64.6818C367.106 66.0455 370.848 68.0455 374.182 70.6818C377.515 73.2879 380.303 76.4697 382.545 80.2273C384.788 83.9545 386.333 88.2121 387.182 93ZM432.307 158.455C426.004 158.455 420.473 156.955 415.716 153.955C410.989 150.955 407.292 146.758 404.625 141.364C401.989 135.97 400.67 129.667 400.67 122.455C400.67 115.182 401.989 108.833 404.625 103.409C407.292 97.9848 410.989 93.7727 415.716 90.7727C420.473 87.7727 426.004 86.2727 432.307 86.2727C438.61 86.2727 444.125 87.7727 448.852 90.7727C453.61 93.7727 457.307 97.9848 459.943 103.409C462.61 108.833 463.943 115.182 463.943 122.455C463.943 129.667 462.61 135.97 459.943 141.364C457.307 146.758 453.61 150.955 448.852 153.955C444.125 156.955 438.61 158.455 432.307 158.455ZM432.307 148.818C437.095 148.818 441.034 147.591 444.125 145.136C447.216 142.682 449.504 139.455 450.989 135.455C452.473 131.455 453.216 127.121 453.216 122.455C453.216 117.788 452.473 113.439 450.989 109.409C449.504 105.379 447.216 102.121 444.125 99.6364C441.034 97.1515 437.095 95.9091 432.307 95.9091C427.519 95.9091 423.58 97.1515 420.489 99.6364C417.398 102.121 415.11 105.379 413.625 109.409C412.14 113.439 411.398 117.788 411.398 122.455C411.398 127.121 412.14 131.455 413.625 135.455C415.11 139.455 417.398 142.682 420.489 145.136C423.58 147.591 427.519 148.818 432.307 148.818ZM506.682 158.455C500.864 158.455 495.727 156.985 491.273 154.045C486.818 151.076 483.333 146.894 480.818 141.5C478.303 136.076 477.045 129.667 477.045 122.273C477.045 114.939 478.303 108.576 480.818 103.182C483.333 97.7879 486.833 93.6212 491.318 90.6818C495.803 87.7424 500.985 86.2727 506.864 86.2727C511.409 86.2727 515 87.0303 517.636 88.5455C520.303 90.0303 522.333 91.7273 523.727 93.6364C525.152 95.5151 526.258 97.0606 527.045 98.2727H527.955V63.9091H538.682V157H528.318V146.273H527.045C526.258 147.545 525.136 149.152 523.682 151.091C522.227 153 520.152 154.712 517.455 156.227C514.758 157.712 511.167 158.455 506.682 158.455ZM508.136 148.818C512.439 148.818 516.076 147.697 519.045 145.455C522.015 143.182 524.273 140.045 525.818 136.045C527.364 132.015 528.136 127.364 528.136 122.091C528.136 116.879 527.379 112.318 525.864 108.409C524.348 104.47 522.106 101.409 519.136 99.2273C516.167 97.0151 512.5 95.9091 508.136 95.9091C503.591 95.9091 499.803 97.0758 496.773 99.4091C493.773 101.712 491.515 104.848 490 108.818C488.515 112.758 487.773 117.182 487.773 122.091C487.773 127.061 488.53 131.576 490.045 135.636C491.591 139.667 493.864 142.879 496.864 145.273C499.894 147.636 503.652 148.818 508.136 148.818ZM589.091 158.455C582.364 158.455 576.561 156.97 571.682 154C566.833 151 563.091 146.818 560.455 141.455C557.848 136.061 556.545 129.788 556.545 122.636C556.545 115.485 557.848 109.182 560.455 103.727C563.091 98.2424 566.758 93.9697 571.455 90.9091C576.182 87.8182 581.697 86.2727 588 86.2727C591.636 86.2727 595.227 86.8788 598.773 88.0909C602.318 89.303 605.545 91.2727 608.455 94C611.364 96.697 613.682 100.273 615.409 104.727C617.136 109.182 618 114.667 618 121.182V125.727H564.182V116.455H607.091C607.091 112.515 606.303 109 604.727 105.909C603.182 102.818 600.97 100.379 598.091 98.5909C595.242 96.803 591.879 95.9091 588 95.9091C583.727 95.9091 580.03 96.9697 576.909 99.0909C573.818 101.182 571.439 103.909 569.773 107.273C568.106 110.636 567.273 114.242 567.273 118.091V124.273C567.273 129.545 568.182 134.015 570 137.682C571.848 141.318 574.409 144.091 577.682 146C580.955 147.879 584.758 148.818 589.091 148.818C591.909 148.818 594.455 148.424 596.727 147.636C599.03 146.818 601.015 145.606 602.682 144C604.348 142.364 605.636 140.333 606.545 137.909L616.909 140.818C615.818 144.333 613.985 147.424 611.409 150.091C608.833 152.727 605.652 154.788 601.864 156.273C598.076 157.727 593.818 158.455 589.091 158.455Z" fill="white"/>
<path d="M722.682 87.1818C722.136 82.5758 719.924 79 716.045 76.4545C712.167 73.9091 707.409 72.6364 701.773 72.6364C697.652 72.6364 694.045 73.303 690.955 74.6364C687.894 75.9697 685.5 77.803 683.773 80.1364C682.076 82.4697 681.227 85.1212 681.227 88.0909C681.227 90.5758 681.818 92.7121 683 94.5C684.212 96.2576 685.758 97.7273 687.636 98.9091C689.515 100.061 691.485 101.015 693.545 101.773C695.606 102.5 697.5 103.091 699.227 103.545L708.682 106.091C711.106 106.727 713.803 107.606 716.773 108.727C719.773 109.848 722.636 111.379 725.364 113.318C728.121 115.227 730.394 117.682 732.182 120.682C733.97 123.682 734.864 127.364 734.864 131.727C734.864 136.758 733.545 141.303 730.909 145.364C728.303 149.424 724.485 152.652 719.455 155.045C714.455 157.439 708.379 158.636 701.227 158.636C694.561 158.636 688.788 157.561 683.909 155.409C679.061 153.258 675.242 150.258 672.455 146.409C669.697 142.561 668.136 138.091 667.773 133H679.409C679.712 136.515 680.894 139.424 682.955 141.727C685.045 144 687.682 145.697 690.864 146.818C694.076 147.909 697.53 148.455 701.227 148.455C705.53 148.455 709.394 147.758 712.818 146.364C716.242 144.939 718.955 142.97 720.955 140.455C722.955 137.909 723.955 134.939 723.955 131.545C723.955 128.455 723.091 125.939 721.364 124C719.636 122.061 717.364 120.485 714.545 119.273C711.727 118.061 708.682 117 705.409 116.091L693.955 112.818C686.682 110.727 680.924 107.742 676.682 103.864C672.439 99.9848 670.318 94.9091 670.318 88.6364C670.318 83.4242 671.727 78.8788 674.545 75C677.394 71.0909 681.212 68.0606 686 65.9091C690.818 63.7273 696.197 62.6364 702.136 62.6364C708.136 62.6364 713.47 63.7121 718.136 65.8636C722.803 67.9848 726.5 70.8939 729.227 74.5909C731.985 78.2879 733.439 82.4848 733.591 87.1818H722.682ZM758.852 183.182C757.034 183.182 755.413 183.03 753.989 182.727C752.564 182.455 751.58 182.182 751.034 181.909L753.761 172.455C756.367 173.121 758.67 173.364 760.67 173.182C762.67 173 764.443 172.106 765.989 170.5C767.564 168.924 769.004 166.364 770.307 162.818L772.307 157.364L746.489 87.1818H758.125L777.398 142.818H778.125L797.398 87.1818H809.034L779.398 167.182C778.064 170.788 776.413 173.773 774.443 176.136C772.473 178.53 770.186 180.303 767.58 181.455C765.004 182.606 762.095 183.182 758.852 183.182ZM833.92 115V157H823.193V87.1818H833.557V98.0909H834.466C836.102 94.5455 838.587 91.697 841.92 89.5455C845.254 87.3636 849.557 86.2727 854.83 86.2727C859.557 86.2727 863.693 87.2424 867.239 89.1818C870.784 91.0909 873.542 94 875.511 97.9091C877.481 101.788 878.466 106.697 878.466 112.636V157H867.739V113.364C867.739 107.879 866.314 103.606 863.466 100.545C860.617 97.4545 856.708 95.9091 851.739 95.9091C848.314 95.9091 845.254 96.6515 842.557 98.1364C839.89 99.6212 837.784 101.788 836.239 104.636C834.693 107.485 833.92 110.939 833.92 115ZM926.432 158.455C919.886 158.455 914.25 156.909 909.523 153.818C904.795 150.727 901.159 146.47 898.614 141.045C896.068 135.621 894.795 129.424 894.795 122.455C894.795 115.364 896.098 109.106 898.705 103.682C901.341 98.2273 905.008 93.9697 909.705 90.9091C914.432 87.8182 919.947 86.2727 926.25 86.2727C931.159 86.2727 935.583 87.1818 939.523 89C943.462 90.8182 946.689 93.3636 949.205 96.6364C951.72 99.9091 953.28 103.727 953.886 108.091H943.159C942.341 104.909 940.523 102.091 937.705 99.6364C934.917 97.1515 931.159 95.9091 926.432 95.9091C922.25 95.9091 918.583 97 915.432 99.1818C912.311 101.333 909.871 104.379 908.114 108.318C906.386 112.227 905.523 116.818 905.523 122.091C905.523 127.485 906.371 132.182 908.068 136.182C909.795 140.182 912.22 143.288 915.341 145.5C918.492 147.712 922.189 148.818 926.432 148.818C929.22 148.818 931.75 148.333 934.023 147.364C936.295 146.394 938.22 145 939.795 143.182C941.371 141.364 942.492 139.182 943.159 136.636H953.886C953.28 140.758 951.78 144.47 949.386 147.773C947.023 151.045 943.886 153.652 939.977 155.591C936.098 157.5 931.583 158.455 926.432 158.455Z" fill="#39E079"/>
<path d="M343.199 202H340.557C340.401 201.24 340.127 200.572 339.737 199.997C339.353 199.422 338.884 198.939 338.33 198.548C337.783 198.151 337.176 197.852 336.509 197.653C335.841 197.455 335.145 197.355 334.42 197.355C333.099 197.355 331.903 197.689 330.83 198.357C329.765 199.024 328.916 200.008 328.284 201.308C327.659 202.607 327.347 204.202 327.347 206.091C327.347 207.98 327.659 209.575 328.284 210.874C328.916 212.174 329.765 213.158 330.83 213.825C331.903 214.493 333.099 214.827 334.42 214.827C335.145 214.827 335.841 214.727 336.509 214.528C337.176 214.33 337.783 214.035 338.33 213.644C338.884 213.246 339.353 212.76 339.737 212.185C340.127 211.602 340.401 210.935 340.557 210.182H343.199C343 211.297 342.638 212.295 342.112 213.175C341.587 214.056 340.933 214.805 340.152 215.423C339.371 216.034 338.494 216.499 337.521 216.819C336.555 217.138 335.521 217.298 334.42 217.298C332.56 217.298 330.905 216.844 329.456 215.935C328.007 215.026 326.867 213.733 326.036 212.057C325.205 210.381 324.79 208.392 324.79 206.091C324.79 203.79 325.205 201.801 326.036 200.125C326.867 198.449 328.007 197.156 329.456 196.247C330.905 195.338 332.56 194.884 334.42 194.884C335.521 194.884 336.555 195.043 337.521 195.363C338.494 195.683 339.371 196.151 340.152 196.769C340.933 197.38 341.587 198.126 342.112 199.006C342.638 199.88 343 200.878 343.199 202ZM353.775 217.341C352.298 217.341 351.002 216.989 349.887 216.286C348.779 215.583 347.912 214.599 347.287 213.335C346.669 212.071 346.36 210.594 346.36 208.903C346.36 207.199 346.669 205.711 347.287 204.44C347.912 203.168 348.779 202.181 349.887 201.478C351.002 200.775 352.298 200.423 353.775 200.423C355.252 200.423 356.545 200.775 357.653 201.478C358.768 202.181 359.634 203.168 360.252 204.44C360.877 205.711 361.19 207.199 361.19 208.903C361.19 210.594 360.877 212.071 360.252 213.335C359.634 214.599 358.768 215.583 357.653 216.286C356.545 216.989 355.252 217.341 353.775 217.341ZM353.775 215.082C354.897 215.082 355.82 214.795 356.545 214.219C357.269 213.644 357.806 212.888 358.154 211.95C358.502 211.013 358.676 209.997 358.676 208.903C358.676 207.81 358.502 206.79 358.154 205.846C357.806 204.901 357.269 204.138 356.545 203.555C355.82 202.973 354.897 202.682 353.775 202.682C352.653 202.682 351.73 202.973 351.005 203.555C350.281 204.138 349.744 204.901 349.396 205.846C349.048 206.79 348.874 207.81 348.874 208.903C348.874 209.997 349.048 211.013 349.396 211.95C349.744 212.888 350.281 213.644 351.005 214.219C351.73 214.795 352.653 215.082 353.775 215.082ZM371.207 217.341C369.843 217.341 368.639 216.996 367.595 216.308C366.551 215.612 365.734 214.631 365.145 213.367C364.555 212.096 364.261 210.594 364.261 208.861C364.261 207.142 364.555 205.651 365.145 204.386C365.734 203.122 366.555 202.146 367.606 201.457C368.657 200.768 369.871 200.423 371.249 200.423C372.315 200.423 373.156 200.601 373.774 200.956C374.399 201.304 374.875 201.702 375.202 202.149C375.536 202.589 375.795 202.952 375.979 203.236H376.192V195.182H378.707V217H376.278V214.486H375.979C375.795 214.784 375.532 215.161 375.191 215.615C374.85 216.062 374.364 216.464 373.732 216.819C373.099 217.167 372.258 217.341 371.207 217.341ZM371.548 215.082C372.556 215.082 373.408 214.82 374.104 214.294C374.8 213.761 375.33 213.026 375.692 212.089C376.054 211.144 376.235 210.054 376.235 208.818C376.235 207.597 376.058 206.528 375.702 205.612C375.347 204.688 374.822 203.971 374.126 203.46C373.43 202.941 372.57 202.682 371.548 202.682C370.482 202.682 369.594 202.955 368.884 203.502C368.181 204.042 367.652 204.777 367.297 205.707C366.949 206.631 366.775 207.668 366.775 208.818C366.775 209.983 366.952 211.041 367.308 211.993C367.67 212.937 368.202 213.69 368.906 214.251C369.616 214.805 370.496 215.082 371.548 215.082ZM390.521 217.341C388.945 217.341 387.585 216.993 386.441 216.297C385.305 215.594 384.428 214.614 383.81 213.357C383.199 212.092 382.893 210.622 382.893 208.946C382.893 207.27 383.199 205.793 383.81 204.514C384.428 203.229 385.287 202.227 386.388 201.51C387.496 200.786 388.788 200.423 390.266 200.423C391.118 200.423 391.96 200.565 392.79 200.849C393.621 201.134 394.378 201.595 395.06 202.234C395.741 202.866 396.285 203.705 396.69 204.749C397.094 205.793 397.297 207.078 397.297 208.605V209.67H384.683V207.497H394.74C394.74 206.574 394.555 205.75 394.186 205.026C393.824 204.301 393.305 203.729 392.631 203.31C391.963 202.891 391.175 202.682 390.266 202.682C389.264 202.682 388.398 202.93 387.666 203.428C386.942 203.918 386.384 204.557 385.994 205.345C385.603 206.134 385.408 206.979 385.408 207.881V209.33C385.408 210.565 385.621 211.613 386.047 212.472C386.48 213.325 387.08 213.974 387.847 214.422C388.614 214.862 389.506 215.082 390.521 215.082C391.182 215.082 391.778 214.99 392.311 214.805C392.851 214.614 393.316 214.33 393.707 213.953C394.097 213.57 394.399 213.094 394.612 212.526L397.041 213.207C396.786 214.031 396.356 214.756 395.752 215.381C395.148 215.999 394.403 216.482 393.515 216.83C392.627 217.17 391.629 217.341 390.521 217.341ZM404.871 214.017L404.701 215.168C404.58 215.977 404.396 216.844 404.147 217.767C403.906 218.69 403.653 219.56 403.391 220.377C403.128 221.194 402.911 221.844 402.741 222.327H400.823C400.915 221.872 401.036 221.272 401.185 220.526C401.335 219.781 401.484 218.946 401.633 218.023C401.789 217.107 401.917 216.169 402.016 215.21L402.144 214.017H404.871ZM435.865 202H433.223C433.067 201.24 432.793 200.572 432.403 199.997C432.019 199.422 431.55 198.939 430.996 198.548C430.449 198.151 429.842 197.852 429.175 197.653C428.507 197.455 427.811 197.355 427.086 197.355C425.765 197.355 424.569 197.689 423.496 198.357C422.431 199.024 421.582 200.008 420.95 201.308C420.325 202.607 420.013 204.202 420.013 206.091C420.013 207.98 420.325 209.575 420.95 210.874C421.582 212.174 422.431 213.158 423.496 213.825C424.569 214.493 425.765 214.827 427.086 214.827C427.811 214.827 428.507 214.727 429.175 214.528C429.842 214.33 430.449 214.035 430.996 213.644C431.55 213.246 432.019 212.76 432.403 212.185C432.793 211.602 433.067 210.935 433.223 210.182H435.865C435.666 211.297 435.304 212.295 434.778 213.175C434.253 214.056 433.599 214.805 432.818 215.423C432.037 216.034 431.16 216.499 430.187 216.819C429.221 217.138 428.187 217.298 427.086 217.298C425.226 217.298 423.571 216.844 422.122 215.935C420.673 215.026 419.533 213.733 418.702 212.057C417.871 210.381 417.456 208.392 417.456 206.091C417.456 203.79 417.871 201.801 418.702 200.125C419.533 198.449 420.673 197.156 422.122 196.247C423.571 195.338 425.226 194.884 427.086 194.884C428.187 194.884 429.221 195.043 430.187 195.363C431.16 195.683 432.037 196.151 432.818 196.769C433.599 197.38 434.253 198.126 434.778 199.006C435.304 199.88 435.666 200.878 435.865 202ZM442.308 207.156V217H439.793V195.182H442.308V203.193H442.521C442.904 202.348 443.479 201.677 444.246 201.18C445.021 200.675 446.05 200.423 447.336 200.423C448.451 200.423 449.428 200.647 450.266 201.094C451.104 201.535 451.754 202.213 452.215 203.129C452.684 204.038 452.918 205.196 452.918 206.602V217H450.404V206.773C450.404 205.473 450.067 204.468 449.392 203.758C448.724 203.04 447.798 202.682 446.612 202.682C445.788 202.682 445.049 202.856 444.396 203.204C443.749 203.552 443.238 204.06 442.862 204.727C442.492 205.395 442.308 206.205 442.308 207.156ZM462.333 217.384C461.296 217.384 460.355 217.188 459.51 216.798C458.665 216.4 457.994 215.828 457.497 215.082C456.999 214.33 456.751 213.42 456.751 212.355C456.751 211.418 456.936 210.658 457.305 210.075C457.674 209.486 458.168 209.024 458.786 208.69C459.404 208.357 460.085 208.108 460.831 207.945C461.584 207.774 462.34 207.639 463.1 207.54C464.095 207.412 464.901 207.316 465.519 207.252C466.144 207.181 466.598 207.064 466.882 206.901C467.173 206.737 467.319 206.453 467.319 206.048V205.963C467.319 204.912 467.031 204.095 466.456 203.513C465.888 202.93 465.025 202.639 463.867 202.639C462.667 202.639 461.726 202.902 461.044 203.428C460.362 203.953 459.883 204.514 459.606 205.111L457.22 204.259C457.646 203.264 458.214 202.49 458.924 201.936C459.642 201.375 460.423 200.984 461.268 200.764C462.12 200.537 462.958 200.423 463.782 200.423C464.308 200.423 464.911 200.487 465.593 200.615C466.282 200.736 466.946 200.988 467.585 201.371C468.232 201.755 468.768 202.334 469.194 203.108C469.62 203.882 469.833 204.919 469.833 206.219V217H467.319V214.784H467.191C467.021 215.139 466.737 215.519 466.339 215.924C465.941 216.329 465.412 216.673 464.752 216.957C464.091 217.241 463.285 217.384 462.333 217.384ZM462.717 215.125C463.711 215.125 464.549 214.93 465.231 214.539C465.92 214.148 466.438 213.644 466.786 213.026C467.142 212.408 467.319 211.759 467.319 211.077V208.776C467.213 208.903 466.978 209.021 466.616 209.127C466.261 209.227 465.849 209.315 465.38 209.393C464.919 209.464 464.468 209.528 464.027 209.585C463.594 209.635 463.242 209.678 462.972 209.713C462.319 209.798 461.708 209.937 461.14 210.129C460.579 210.313 460.124 210.594 459.776 210.97C459.436 211.339 459.265 211.844 459.265 212.483C459.265 213.357 459.588 214.017 460.235 214.464C460.888 214.905 461.715 215.125 462.717 215.125ZM481.539 200.636V202.767H473.059V200.636H481.539ZM475.53 196.716H478.044V212.312C478.044 213.023 478.147 213.555 478.353 213.911C478.566 214.259 478.836 214.493 479.163 214.614C479.497 214.727 479.848 214.784 480.218 214.784C480.495 214.784 480.722 214.77 480.9 214.741C481.077 214.706 481.219 214.678 481.326 214.656L481.837 216.915C481.667 216.979 481.429 217.043 481.123 217.107C480.818 217.178 480.431 217.213 479.962 217.213C479.252 217.213 478.556 217.06 477.874 216.755C477.199 216.45 476.638 215.984 476.191 215.359C475.75 214.734 475.53 213.946 475.53 212.994V196.716ZM498.574 217.384C497.537 217.384 496.596 217.188 495.75 216.798C494.905 216.4 494.234 215.828 493.737 215.082C493.24 214.33 492.991 213.42 492.991 212.355C492.991 211.418 493.176 210.658 493.545 210.075C493.914 209.486 494.408 209.024 495.026 208.69C495.644 208.357 496.326 208.108 497.071 207.945C497.824 207.774 498.581 207.639 499.341 207.54C500.335 207.412 501.141 207.316 501.759 207.252C502.384 207.181 502.838 207.064 503.123 206.901C503.414 206.737 503.559 206.453 503.559 206.048V205.963C503.559 204.912 503.272 204.095 502.696 203.513C502.128 202.93 501.265 202.639 500.108 202.639C498.907 202.639 497.966 202.902 497.284 203.428C496.603 203.953 496.123 204.514 495.846 205.111L493.46 204.259C493.886 203.264 494.454 202.49 495.164 201.936C495.882 201.375 496.663 200.984 497.508 200.764C498.36 200.537 499.199 200.423 500.022 200.423C500.548 200.423 501.152 200.487 501.833 200.615C502.522 200.736 503.186 200.988 503.826 201.371C504.472 201.755 505.008 202.334 505.434 203.108C505.86 203.882 506.074 204.919 506.074 206.219V217H503.559V214.784H503.431C503.261 215.139 502.977 215.519 502.579 215.924C502.181 216.329 501.652 216.673 500.992 216.957C500.331 217.241 499.525 217.384 498.574 217.384ZM498.957 215.125C499.951 215.125 500.789 214.93 501.471 214.539C502.16 214.148 502.679 213.644 503.027 213.026C503.382 212.408 503.559 211.759 503.559 211.077V208.776C503.453 208.903 503.218 209.021 502.856 209.127C502.501 209.227 502.089 209.315 501.62 209.393C501.159 209.464 500.708 209.528 500.267 209.585C499.834 209.635 499.483 209.678 499.213 209.713C498.559 209.798 497.949 209.937 497.38 210.129C496.819 210.313 496.365 210.594 496.017 210.97C495.676 211.339 495.505 211.844 495.505 212.483C495.505 213.357 495.828 214.017 496.475 214.464C497.128 214.905 497.956 215.125 498.957 215.125ZM513.177 207.156V217H510.662V200.636H513.091V203.193H513.305C513.688 202.362 514.27 201.695 515.052 201.19C515.833 200.679 516.841 200.423 518.077 200.423C519.185 200.423 520.155 200.651 520.986 201.105C521.817 201.553 522.463 202.234 522.925 203.151C523.386 204.06 523.617 205.21 523.617 206.602V217H521.103V206.773C521.103 205.487 520.769 204.486 520.101 203.768C519.434 203.044 518.518 202.682 517.353 202.682C516.55 202.682 515.833 202.856 515.201 203.204C514.576 203.552 514.082 204.06 513.72 204.727C513.358 205.395 513.177 206.205 513.177 207.156ZM534.39 217.341C533.027 217.341 531.823 216.996 530.779 216.308C529.735 215.612 528.918 214.631 528.328 213.367C527.739 212.096 527.444 210.594 527.444 208.861C527.444 207.142 527.739 205.651 528.328 204.386C528.918 203.122 529.738 202.146 530.789 201.457C531.841 200.768 533.055 200.423 534.433 200.423C535.498 200.423 536.34 200.601 536.958 200.956C537.583 201.304 538.059 201.702 538.385 202.149C538.719 202.589 538.978 202.952 539.163 203.236H539.376V195.182H541.89V217H539.461V214.486H539.163C538.978 214.784 538.716 215.161 538.375 215.615C538.034 216.062 537.547 216.464 536.915 216.819C536.283 217.167 535.441 217.341 534.39 217.341ZM534.731 215.082C535.74 215.082 536.592 214.82 537.288 214.294C537.984 213.761 538.513 213.026 538.875 212.089C539.238 211.144 539.419 210.054 539.419 208.818C539.419 207.597 539.241 206.528 538.886 205.612C538.531 204.688 538.005 203.971 537.309 203.46C536.613 202.941 535.754 202.682 534.731 202.682C533.666 202.682 532.778 202.955 532.068 203.502C531.365 204.042 530.836 204.777 530.48 205.707C530.132 206.631 529.958 207.668 529.958 208.818C529.958 209.983 530.136 211.041 530.491 211.993C530.853 212.937 531.386 213.69 532.089 214.251C532.799 214.805 533.68 215.082 534.731 215.082ZM573.179 202H570.537C570.381 201.24 570.108 200.572 569.717 199.997C569.333 199.422 568.865 198.939 568.311 198.548C567.764 198.151 567.157 197.852 566.489 197.653C565.821 197.455 565.125 197.355 564.401 197.355C563.08 197.355 561.883 197.689 560.811 198.357C559.745 199.024 558.897 200.008 558.265 201.308C557.64 202.607 557.327 204.202 557.327 206.091C557.327 207.98 557.64 209.575 558.265 210.874C558.897 212.174 559.745 213.158 560.811 213.825C561.883 214.493 563.08 214.827 564.401 214.827C565.125 214.827 565.821 214.727 566.489 214.528C567.157 214.33 567.764 214.035 568.311 213.644C568.865 213.246 569.333 212.76 569.717 212.185C570.108 211.602 570.381 210.935 570.537 210.182H573.179C572.98 211.297 572.618 212.295 572.093 213.175C571.567 214.056 570.914 214.805 570.132 215.423C569.351 216.034 568.474 216.499 567.501 216.819C566.535 217.138 565.502 217.298 564.401 217.298C562.54 217.298 560.885 216.844 559.436 215.935C557.988 215.026 556.848 213.733 556.017 212.057C555.186 210.381 554.77 208.392 554.77 206.091C554.77 203.79 555.186 201.801 556.017 200.125C556.848 198.449 557.988 197.156 559.436 196.247C560.885 195.338 562.54 194.884 564.401 194.884C565.502 194.884 566.535 195.043 567.501 195.363C568.474 195.683 569.351 196.151 570.132 196.769C570.914 197.38 571.567 198.126 572.093 199.006C572.618 199.88 572.98 200.878 573.179 202ZM583.756 217.341C582.278 217.341 580.982 216.989 579.867 216.286C578.759 215.583 577.893 214.599 577.268 213.335C576.65 212.071 576.341 210.594 576.341 208.903C576.341 207.199 576.65 205.711 577.268 204.44C577.893 203.168 578.759 202.181 579.867 201.478C580.982 200.775 582.278 200.423 583.756 200.423C585.233 200.423 586.525 200.775 587.633 201.478C588.748 202.181 589.615 203.168 590.233 204.44C590.858 205.711 591.17 207.199 591.17 208.903C591.17 210.594 590.858 212.071 590.233 213.335C589.615 214.599 588.748 215.583 587.633 216.286C586.525 216.989 585.233 217.341 583.756 217.341ZM583.756 215.082C584.878 215.082 585.801 214.795 586.525 214.219C587.25 213.644 587.786 212.888 588.134 211.95C588.482 211.013 588.656 209.997 588.656 208.903C588.656 207.81 588.482 206.79 588.134 205.846C587.786 204.901 587.25 204.138 586.525 203.555C585.801 202.973 584.878 202.682 583.756 202.682C582.633 202.682 581.71 202.973 580.986 203.555C580.261 204.138 579.725 204.901 579.377 205.846C579.029 206.79 578.855 207.81 578.855 208.903C578.855 209.997 579.029 211.013 579.377 211.95C579.725 212.888 580.261 213.644 580.986 214.219C581.71 214.795 582.633 215.082 583.756 215.082ZM597.522 195.182V217H595.008V195.182H597.522ZM604.642 195.182V217H602.127V195.182H604.642ZM614.062 217.384C613.025 217.384 612.084 217.188 611.239 216.798C610.393 216.4 609.722 215.828 609.225 215.082C608.728 214.33 608.479 213.42 608.479 212.355C608.479 211.418 608.664 210.658 609.033 210.075C609.403 209.486 609.896 209.024 610.514 208.69C611.132 208.357 611.814 208.108 612.56 207.945C613.313 207.774 614.069 207.639 614.829 207.54C615.823 207.412 616.629 207.316 617.247 207.252C617.872 207.181 618.327 207.064 618.611 206.901C618.902 206.737 619.048 206.453 619.048 206.048V205.963C619.048 204.912 618.76 204.095 618.185 203.513C617.616 202.93 616.754 202.639 615.596 202.639C614.396 202.639 613.455 202.902 612.773 203.428C612.091 203.953 611.612 204.514 611.335 205.111L608.948 204.259C609.374 203.264 609.942 202.49 610.653 201.936C611.37 201.375 612.151 200.984 612.996 200.764C613.849 200.537 614.687 200.423 615.511 200.423C616.036 200.423 616.64 200.487 617.322 200.615C618.011 200.736 618.675 200.988 619.314 201.371C619.96 201.755 620.496 202.334 620.923 203.108C621.349 203.882 621.562 204.919 621.562 206.219V217H619.048V214.784H618.92C618.749 215.139 618.465 215.519 618.067 215.924C617.67 216.329 617.141 216.673 616.48 216.957C615.82 217.241 615.013 217.384 614.062 217.384ZM614.445 215.125C615.44 215.125 616.278 214.93 616.96 214.539C617.648 214.148 618.167 213.644 618.515 213.026C618.87 212.408 619.048 211.759 619.048 211.077V208.776C618.941 208.903 618.707 209.021 618.344 209.127C617.989 209.227 617.577 209.315 617.109 209.393C616.647 209.464 616.196 209.528 615.756 209.585C615.322 209.635 614.971 209.678 614.701 209.713C614.048 209.798 613.437 209.937 612.869 210.129C612.308 210.313 611.853 210.594 611.505 210.97C611.164 211.339 610.994 211.844 610.994 212.483C610.994 213.357 611.317 214.017 611.963 214.464C612.616 214.905 613.444 215.125 614.445 215.125ZM626.492 217V195.182H629.006V203.236H629.219C629.404 202.952 629.659 202.589 629.986 202.149C630.32 201.702 630.796 201.304 631.414 200.956C632.039 200.601 632.884 200.423 633.949 200.423C635.327 200.423 636.541 200.768 637.593 201.457C638.644 202.146 639.464 203.122 640.053 204.386C640.643 205.651 640.938 207.142 640.938 208.861C640.938 210.594 640.643 212.096 640.053 213.367C639.464 214.631 638.647 215.612 637.603 216.308C636.559 216.996 635.355 217.341 633.992 217.341C632.941 217.341 632.099 217.167 631.467 216.819C630.835 216.464 630.348 216.062 630.007 215.615C629.666 215.161 629.404 214.784 629.219 214.486H628.921V217H626.492ZM628.963 208.818C628.963 210.054 629.144 211.144 629.507 212.089C629.869 213.026 630.398 213.761 631.094 214.294C631.79 214.82 632.642 215.082 633.651 215.082C634.702 215.082 635.579 214.805 636.282 214.251C636.992 213.69 637.525 212.937 637.88 211.993C638.242 211.041 638.423 209.983 638.423 208.818C638.423 207.668 638.246 206.631 637.891 205.707C637.543 204.777 637.014 204.042 636.303 203.502C635.6 202.955 634.716 202.682 633.651 202.682C632.628 202.682 631.769 202.941 631.073 203.46C630.377 203.971 629.851 204.688 629.496 205.612C629.141 206.528 628.963 207.597 628.963 208.818ZM651.431 217.341C649.954 217.341 648.658 216.989 647.543 216.286C646.435 215.583 645.568 214.599 644.943 213.335C644.325 212.071 644.017 210.594 644.017 208.903C644.017 207.199 644.325 205.711 644.943 204.44C645.568 203.168 646.435 202.181 647.543 201.478C648.658 200.775 649.954 200.423 651.431 200.423C652.909 200.423 654.201 200.775 655.309 201.478C656.424 202.181 657.291 203.168 657.909 204.44C658.534 205.711 658.846 207.199 658.846 208.903C658.846 210.594 658.534 212.071 657.909 213.335C657.291 214.599 656.424 215.583 655.309 216.286C654.201 216.989 652.909 217.341 651.431 217.341ZM651.431 215.082C652.553 215.082 653.477 214.795 654.201 214.219C654.926 213.644 655.462 212.888 655.81 211.95C656.158 211.013 656.332 209.997 656.332 208.903C656.332 207.81 656.158 206.79 655.81 205.846C655.462 204.901 654.926 204.138 654.201 203.555C653.477 202.973 652.553 202.682 651.431 202.682C650.309 202.682 649.386 202.973 648.661 203.555C647.937 204.138 647.401 204.901 647.053 205.846C646.705 206.79 646.531 207.81 646.531 208.903C646.531 209.997 646.705 211.013 647.053 211.95C647.401 212.888 647.937 213.644 648.661 214.219C649.386 214.795 650.309 215.082 651.431 215.082ZM662.684 217V200.636H665.113V203.108H665.283C665.582 202.298 666.121 201.641 666.903 201.137C667.684 200.633 668.565 200.381 669.545 200.381C669.729 200.381 669.96 200.384 670.237 200.391C670.514 200.398 670.724 200.409 670.866 200.423V202.98C670.781 202.959 670.585 202.927 670.28 202.884C669.982 202.835 669.665 202.81 669.332 202.81C668.536 202.81 667.826 202.977 667.201 203.31C666.583 203.637 666.093 204.092 665.731 204.674C665.376 205.249 665.198 205.906 665.198 206.645V217H662.684ZM678.661 217.384C677.624 217.384 676.683 217.188 675.838 216.798C674.993 216.4 674.322 215.828 673.825 215.082C673.328 214.33 673.079 213.42 673.079 212.355C673.079 211.418 673.264 210.658 673.633 210.075C674.002 209.486 674.496 209.024 675.114 208.69C675.732 208.357 676.414 208.108 677.159 207.945C677.912 207.774 678.669 207.639 679.428 207.54C680.423 207.412 681.229 207.316 681.847 207.252C682.472 207.181 682.926 207.064 683.21 206.901C683.502 206.737 683.647 206.453 683.647 206.048V205.963C683.647 204.912 683.36 204.095 682.784 203.513C682.216 202.93 681.353 202.639 680.195 202.639C678.995 202.639 678.054 202.902 677.372 203.428C676.691 203.953 676.211 204.514 675.934 205.111L673.548 204.259C673.974 203.264 674.542 202.49 675.252 201.936C675.97 201.375 676.751 200.984 677.596 200.764C678.448 200.537 679.286 200.423 680.11 200.423C680.636 200.423 681.24 200.487 681.921 200.615C682.61 200.736 683.274 200.988 683.914 201.371C684.56 201.755 685.096 202.334 685.522 203.108C685.948 203.882 686.161 204.919 686.161 206.219V217H683.647V214.784H683.519C683.349 215.139 683.065 215.519 682.667 215.924C682.269 216.329 681.74 216.673 681.08 216.957C680.419 217.241 679.613 217.384 678.661 217.384ZM679.045 215.125C680.039 215.125 680.877 214.93 681.559 214.539C682.248 214.148 682.767 213.644 683.115 213.026C683.47 212.408 683.647 211.759 683.647 211.077V208.776C683.541 208.903 683.306 209.021 682.944 209.127C682.589 209.227 682.177 209.315 681.708 209.393C681.247 209.464 680.796 209.528 680.355 209.585C679.922 209.635 679.57 209.678 679.301 209.713C678.647 209.798 678.036 209.937 677.468 210.129C676.907 210.313 676.453 210.594 676.105 210.97C675.764 211.339 675.593 211.844 675.593 212.483C675.593 213.357 675.916 214.017 676.563 214.464C677.216 214.905 678.044 215.125 679.045 215.125ZM697.867 200.636V202.767H689.387V200.636H697.867ZM691.858 196.716H694.373V212.312C694.373 213.023 694.475 213.555 694.681 213.911C694.895 214.259 695.164 214.493 695.491 214.614C695.825 214.727 696.176 214.784 696.546 214.784C696.823 214.784 697.05 214.77 697.228 214.741C697.405 214.706 697.547 214.678 697.654 214.656L698.165 216.915C697.995 216.979 697.757 217.043 697.451 217.107C697.146 217.178 696.759 217.213 696.29 217.213C695.58 217.213 694.884 217.06 694.202 216.755C693.527 216.45 692.966 215.984 692.519 215.359C692.078 214.734 691.858 213.946 691.858 212.994V196.716ZM708.334 217.341C706.757 217.341 705.397 216.993 704.254 216.297C703.117 215.594 702.24 214.614 701.622 213.357C701.011 212.092 700.706 210.622 700.706 208.946C700.706 207.27 701.011 205.793 701.622 204.514C702.24 203.229 703.099 202.227 704.2 201.51C705.308 200.786 706.601 200.423 708.078 200.423C708.93 200.423 709.772 200.565 710.603 200.849C711.434 201.134 712.19 201.595 712.872 202.234C713.554 202.866 714.097 203.705 714.502 204.749C714.907 205.793 715.109 207.078 715.109 208.605V209.67H702.496V207.497H712.553C712.553 206.574 712.368 205.75 711.999 205.026C711.636 204.301 711.118 203.729 710.443 203.31C709.776 202.891 708.987 202.682 708.078 202.682C707.077 202.682 706.21 202.93 705.479 203.428C704.754 203.918 704.197 204.557 703.806 205.345C703.415 206.134 703.22 206.979 703.22 207.881V209.33C703.22 210.565 703.433 211.613 703.859 212.472C704.293 213.325 704.893 213.974 705.66 214.422C706.427 214.862 707.318 215.082 708.334 215.082C708.994 215.082 709.591 214.99 710.124 214.805C710.663 214.614 711.129 214.33 711.519 213.953C711.91 213.57 712.212 213.094 712.425 212.526L714.854 213.207C714.598 214.031 714.168 214.756 713.565 215.381C712.961 215.999 712.215 216.482 711.327 216.83C710.44 217.17 709.442 217.341 708.334 217.341ZM720.766 217.17C720.241 217.17 719.79 216.982 719.413 216.606C719.037 216.229 718.849 215.778 718.849 215.253C718.849 214.727 719.037 214.276 719.413 213.9C719.79 213.523 720.241 213.335 720.766 213.335C721.292 213.335 721.743 213.523 722.119 213.9C722.496 214.276 722.684 214.727 722.684 215.253C722.684 215.601 722.595 215.92 722.418 216.212C722.247 216.503 722.016 216.737 721.725 216.915C721.441 217.085 721.121 217.17 720.766 217.17ZM738.616 195.182V217H735.974V195.182H738.616ZM750.689 200.636V202.767H742.209V200.636H750.689ZM744.681 196.716H747.195V212.312C747.195 213.023 747.298 213.555 747.504 213.911C747.717 214.259 747.987 214.493 748.313 214.614C748.647 214.727 748.999 214.784 749.368 214.784C749.645 214.784 749.872 214.77 750.05 214.741C750.227 214.706 750.369 214.678 750.476 214.656L750.987 216.915C750.817 216.979 750.579 217.043 750.274 217.107C749.968 217.178 749.581 217.213 749.112 217.213C748.402 217.213 747.706 217.06 747.024 216.755C746.35 216.45 745.789 215.984 745.341 215.359C744.901 214.734 744.681 213.946 744.681 212.994V196.716ZM756.644 195.182V202.682H754.301V195.182H756.644ZM772.712 204.301L770.454 204.94C770.312 204.564 770.102 204.198 769.825 203.843C769.555 203.481 769.186 203.183 768.717 202.948C768.249 202.714 767.648 202.597 766.917 202.597C765.915 202.597 765.081 202.827 764.413 203.289C763.753 203.744 763.423 204.322 763.423 205.026C763.423 205.651 763.65 206.144 764.104 206.506C764.559 206.869 765.269 207.17 766.235 207.412L768.664 208.009C770.127 208.364 771.217 208.907 771.935 209.638C772.652 210.363 773.011 211.297 773.011 212.44C773.011 213.378 772.741 214.216 772.201 214.955C771.668 215.693 770.923 216.276 769.964 216.702C769.005 217.128 767.89 217.341 766.619 217.341C764.95 217.341 763.568 216.979 762.474 216.254C761.381 215.53 760.688 214.472 760.397 213.08L762.783 212.483C763.011 213.364 763.44 214.024 764.072 214.464C764.712 214.905 765.546 215.125 766.576 215.125C767.748 215.125 768.678 214.876 769.367 214.379C770.063 213.875 770.411 213.271 770.411 212.568C770.411 212 770.212 211.524 769.815 211.141C769.417 210.75 768.806 210.459 767.982 210.267L765.255 209.628C763.756 209.273 762.656 208.722 761.952 207.977C761.256 207.224 760.908 206.283 760.908 205.153C760.908 204.23 761.168 203.413 761.686 202.703C762.212 201.993 762.925 201.435 763.827 201.031C764.737 200.626 765.766 200.423 766.917 200.423C768.536 200.423 769.808 200.778 770.731 201.489C771.661 202.199 772.322 203.136 772.712 204.301ZM786.469 217H783.699L791.71 195.182H794.437L802.449 217H799.679L793.159 198.634H792.988L786.469 217ZM787.491 208.477H798.656V210.821H787.491V208.477ZM808.02 195.182V217H805.506V195.182H808.02ZM815.14 195.182V217H812.625V195.182H815.14ZM828.182 217V200.636H830.696V217H828.182ZM829.46 197.909C828.97 197.909 828.548 197.742 828.193 197.408C827.845 197.075 827.671 196.673 827.671 196.205C827.671 195.736 827.845 195.335 828.193 195.001C828.548 194.667 828.97 194.5 829.46 194.5C829.95 194.5 830.369 194.667 830.718 195.001C831.073 195.335 831.25 195.736 831.25 196.205C831.25 196.673 831.073 197.075 830.718 197.408C830.369 197.742 829.95 197.909 829.46 197.909ZM837.815 207.156V217H835.301V200.636H837.73V203.193H837.943C838.327 202.362 838.909 201.695 839.69 201.19C840.472 200.679 841.48 200.423 842.716 200.423C843.824 200.423 844.793 200.651 845.624 201.105C846.455 201.553 847.102 202.234 847.563 203.151C848.025 204.06 848.256 205.21 848.256 206.602V217H845.741V206.773C845.741 205.487 845.408 204.486 844.74 203.768C844.072 203.044 843.156 202.682 841.991 202.682C841.189 202.682 840.472 202.856 839.839 203.204C839.214 203.552 838.721 204.06 838.359 204.727C837.996 205.395 837.815 206.205 837.815 207.156ZM873.56 200.636C873.432 199.557 872.914 198.719 872.005 198.122C871.096 197.526 869.981 197.227 868.66 197.227C867.694 197.227 866.849 197.384 866.124 197.696C865.407 198.009 864.846 198.438 864.441 198.985C864.043 199.532 863.844 200.153 863.844 200.849C863.844 201.432 863.983 201.933 864.26 202.352C864.544 202.763 864.906 203.108 865.346 203.385C865.787 203.655 866.248 203.879 866.731 204.056C867.214 204.227 867.658 204.365 868.063 204.472L870.279 205.068C870.847 205.217 871.479 205.423 872.175 205.686C872.878 205.949 873.55 206.308 874.189 206.762C874.835 207.21 875.368 207.785 875.787 208.488C876.206 209.191 876.415 210.054 876.415 211.077C876.415 212.256 876.106 213.321 875.488 214.273C874.878 215.224 873.983 215.981 872.804 216.542C871.632 217.103 870.208 217.384 868.532 217.384C866.969 217.384 865.616 217.131 864.473 216.627C863.336 216.123 862.442 215.42 861.788 214.518C861.142 213.616 860.776 212.568 860.691 211.375H863.418C863.489 212.199 863.766 212.881 864.249 213.42C864.739 213.953 865.357 214.351 866.103 214.614C866.856 214.869 867.665 214.997 868.532 214.997C869.54 214.997 870.446 214.834 871.248 214.507C872.051 214.173 872.687 213.712 873.155 213.122C873.624 212.526 873.858 211.83 873.858 211.034C873.858 210.31 873.656 209.72 873.251 209.266C872.846 208.811 872.314 208.442 871.653 208.158C870.993 207.874 870.279 207.625 869.512 207.412L866.827 206.645C865.123 206.155 863.773 205.455 862.779 204.546C861.785 203.637 861.287 202.447 861.287 200.977C861.287 199.756 861.618 198.69 862.278 197.781C862.946 196.865 863.841 196.155 864.963 195.651C866.092 195.139 867.353 194.884 868.745 194.884C870.151 194.884 871.401 195.136 872.495 195.64C873.589 196.137 874.455 196.819 875.094 197.685C875.741 198.552 876.081 199.536 876.117 200.636H873.56ZM882.038 223.136C881.612 223.136 881.232 223.101 880.898 223.03C880.564 222.966 880.333 222.902 880.205 222.838L880.844 220.622C881.455 220.778 881.995 220.835 882.464 220.793C882.933 220.75 883.348 220.54 883.71 220.164C884.08 219.795 884.417 219.195 884.722 218.364L885.191 217.085L879.14 200.636H881.867L886.384 213.676H886.555L891.072 200.636H893.799L886.853 219.386C886.54 220.232 886.153 220.931 885.692 221.485C885.23 222.046 884.694 222.462 884.083 222.732C883.479 223.001 882.798 223.136 882.038 223.136ZM899.632 207.156V217H897.118V200.636H899.547V203.193H899.76C900.143 202.362 900.725 201.695 901.507 201.19C902.288 200.679 903.297 200.423 904.532 200.423C905.64 200.423 906.61 200.651 907.441 201.105C908.272 201.553 908.918 202.234 909.38 203.151C909.841 204.06 910.072 205.21 910.072 206.602V217H907.558V206.773C907.558 205.487 907.224 204.486 906.556 203.768C905.889 203.044 904.973 202.682 903.808 202.682C903.005 202.682 902.288 202.856 901.656 203.204C901.031 203.552 900.537 204.06 900.175 204.727C899.813 205.395 899.632 206.205 899.632 207.156ZM921.314 217.341C919.78 217.341 918.459 216.979 917.351 216.254C916.243 215.53 915.391 214.532 914.794 213.261C914.198 211.989 913.899 210.537 913.899 208.903C913.899 207.241 914.205 205.775 914.816 204.504C915.433 203.225 916.293 202.227 917.394 201.51C918.502 200.786 919.794 200.423 921.271 200.423C922.422 200.423 923.459 200.636 924.382 201.062C925.306 201.489 926.062 202.085 926.651 202.852C927.241 203.619 927.607 204.514 927.749 205.537H925.235C925.043 204.791 924.617 204.131 923.956 203.555C923.303 202.973 922.422 202.682 921.314 202.682C920.334 202.682 919.475 202.937 918.736 203.449C918.004 203.953 917.433 204.667 917.021 205.59C916.616 206.506 916.414 207.582 916.414 208.818C916.414 210.082 916.612 211.183 917.01 212.121C917.415 213.058 917.983 213.786 918.715 214.305C919.453 214.823 920.32 215.082 921.314 215.082C921.968 215.082 922.561 214.969 923.093 214.741C923.626 214.514 924.077 214.188 924.446 213.761C924.816 213.335 925.078 212.824 925.235 212.227H927.749C927.607 213.193 927.255 214.063 926.694 214.837C926.14 215.604 925.405 216.215 924.489 216.67C923.58 217.117 922.521 217.341 921.314 217.341ZM933.257 217.17C932.731 217.17 932.28 216.982 931.904 216.606C931.527 216.229 931.339 215.778 931.339 215.253C931.339 214.727 931.527 214.276 931.904 213.9C932.28 213.523 932.731 213.335 933.257 213.335C933.782 213.335 934.233 213.523 934.61 213.9C934.986 214.276 935.174 214.727 935.174 215.253C935.174 215.601 935.085 215.92 934.908 216.212C934.737 216.503 934.507 216.737 934.215 216.915C933.931 217.085 933.612 217.17 933.257 217.17Z" fill="white"/>
<path fill-rule="evenodd" clip-rule="evenodd" d="M247.841 80.216C259.62 80.216 269.184 70.856 269.184 59.3744C269.184 47.872 259.599 38.5328 247.841 38.5328C236.062 38.5328 226.499 47.8928 226.499 59.3744C226.499 64.1168 228.139 68.5056 230.887 72L190.267 106.05C189.224 106.923 189.117 108.442 190.012 109.461C190.502 110.022 191.205 110.293 191.886 110.293C192.461 110.293 193.036 110.106 193.505 109.71L234.316 75.4528C237.979 78.4272 242.708 80.216 247.841 80.216ZM132.182 160.213L102.256 190.747C98.6775 188.106 94.2258 186.525 89.3907 186.525C77.6118 186.525 68.0481 195.885 68.0481 207.366C68.0481 218.869 77.6331 228.208 89.3907 228.208C101.17 228.208 110.733 218.848 110.733 207.366C110.733 202.312 108.88 197.694 105.813 194.075L135.718 163.52C136.655 162.563 136.634 161.024 135.633 160.109C134.674 159.214 133.12 159.235 132.182 160.213ZM138.019 108.774C138.934 107.797 138.892 106.258 137.891 105.363L108.007 78.4064C110.584 74.9536 112.118 70.7104 112.118 66.1344C112.118 54.632 102.533 45.2928 90.7752 45.2928C78.9963 45.2928 69.4326 54.6528 69.4326 66.1344C69.4326 77.6368 79.0176 86.976 90.7752 86.976C96.0789 86.976 100.914 85.0832 104.663 81.9424L134.525 108.92C134.994 109.357 135.612 109.565 136.208 109.565C136.868 109.565 137.529 109.294 138.019 108.774ZM228.245 161.835C228.245 173.338 237.83 182.677 249.588 182.677C261.367 182.677 270.931 173.317 270.931 161.835C270.931 150.333 261.346 140.994 249.588 140.994C241.217 140.994 233.954 145.736 230.461 152.6L209.395 145.237C208.117 144.779 206.69 145.445 206.242 146.693C205.774 147.941 206.455 149.334 207.733 149.771L228.799 157.134C228.437 158.653 228.245 160.234 228.245 161.835ZM193.548 194.637C195.465 194.096 197.488 193.784 199.576 193.784C211.354 193.784 220.918 203.144 220.918 214.646C220.918 226.149 211.333 235.488 199.576 235.488C187.797 235.488 178.233 226.128 178.233 214.646C178.233 206.909 182.578 200.149 189.011 196.55L174.718 163.749C174.186 162.522 174.761 161.107 176.018 160.587C177.274 160.067 178.723 160.629 179.255 161.856L193.548 194.637ZM168.179 113.642H158.743C144.153 113.642 131.948 124.312 130.308 138.435C129.967 141.451 130.84 144.134 132.907 146.402C134.973 148.669 137.614 149.813 140.724 149.813H186.178C189.288 149.813 191.908 148.669 193.995 146.402C196.061 144.134 196.934 141.451 196.594 138.435C194.975 124.312 182.749 113.642 168.179 113.642ZM180.938 89.8672C180.938 80.4656 173.1 72.8112 163.472 72.8112C153.844 72.8112 146.006 80.4656 146.006 89.8672C146.006 99.2688 153.844 106.923 163.472 106.923C173.1 106.923 180.938 99.2688 180.938 89.8672Z" fill="#39E079"/>
</svg>